%TF.GenerationSoftware,KiCad,Pcbnew,(5.1.9-0-10_14)*%
%TF.CreationDate,2022-01-29T10:24:00+00:00*%
%TF.ProjectId,SimpleRamFlashCartridge,53696d70-6c65-4526-916d-466c61736843,rev?*%
%TF.SameCoordinates,Original*%
%TF.FileFunction,Copper,L1,Top*%
%TF.FilePolarity,Positive*%
%FSLAX46Y46*%
G04 Gerber Fmt 4.6, Leading zero omitted, Abs format (unit mm)*
G04 Created by KiCad (PCBNEW (5.1.9-0-10_14)) date 2022-01-29 10:24:00*
%MOMM*%
%LPD*%
G01*
G04 APERTURE LIST*
%TA.AperFunction,ComponentPad*%
%ADD10C,1.600000*%
%TD*%
%TA.AperFunction,ComponentPad*%
%ADD11R,1.600000X1.600000*%
%TD*%
%TA.AperFunction,ComponentPad*%
%ADD12O,1.400000X1.400000*%
%TD*%
%TA.AperFunction,ComponentPad*%
%ADD13C,1.400000*%
%TD*%
%TA.AperFunction,ComponentPad*%
%ADD14O,1.600000X1.600000*%
%TD*%
%TA.AperFunction,ComponentPad*%
%ADD15O,1.700000X1.700000*%
%TD*%
%TA.AperFunction,ComponentPad*%
%ADD16R,1.700000X1.700000*%
%TD*%
%TA.AperFunction,ConnectorPad*%
%ADD17R,1.778000X8.636000*%
%TD*%
%TA.AperFunction,ConnectorPad*%
%ADD18R,1.778000X7.620000*%
%TD*%
%TA.AperFunction,ComponentPad*%
%ADD19C,2.000000*%
%TD*%
%TA.AperFunction,ViaPad*%
%ADD20C,0.800000*%
%TD*%
%TA.AperFunction,Conductor*%
%ADD21C,1.000000*%
%TD*%
%TA.AperFunction,Conductor*%
%ADD22C,0.250000*%
%TD*%
%TA.AperFunction,Conductor*%
%ADD23C,0.254000*%
%TD*%
%TA.AperFunction,Conductor*%
%ADD24C,0.100000*%
%TD*%
G04 APERTURE END LIST*
D10*
%TO.P,C2,2*%
%TO.N,GND*%
X193254000Y-82550000D03*
D11*
%TO.P,C2,1*%
%TO.N,+5V*%
X190754000Y-82550000D03*
%TD*%
D12*
%TO.P,R1,2*%
%TO.N,Net-(J3-Pad2)*%
X157226000Y-84582000D03*
D13*
%TO.P,R1,1*%
%TO.N,+5V*%
X164846000Y-84582000D03*
%TD*%
D14*
%TO.P,U2,28*%
%TO.N,+5V*%
X186436000Y-88900000D03*
%TO.P,U2,14*%
%TO.N,GND*%
X219456000Y-104140000D03*
%TO.P,U2,27*%
%TO.N,Net-(J3-Pad2)*%
X188976000Y-88900000D03*
%TO.P,U2,13*%
%TO.N,/D2*%
X216916000Y-104140000D03*
%TO.P,U2,26*%
%TO.N,/A13*%
X191516000Y-88900000D03*
%TO.P,U2,12*%
%TO.N,/D1*%
X214376000Y-104140000D03*
%TO.P,U2,25*%
%TO.N,/A8*%
X194056000Y-88900000D03*
%TO.P,U2,11*%
%TO.N,/D0*%
X211836000Y-104140000D03*
%TO.P,U2,24*%
%TO.N,/A9*%
X196596000Y-88900000D03*
%TO.P,U2,10*%
%TO.N,/BA0*%
X209296000Y-104140000D03*
%TO.P,U2,23*%
%TO.N,/A11*%
X199136000Y-88900000D03*
%TO.P,U2,9*%
%TO.N,/BA1*%
X206756000Y-104140000D03*
%TO.P,U2,22*%
%TO.N,NRD*%
X201676000Y-88900000D03*
%TO.P,U2,8*%
%TO.N,/BA2*%
X204216000Y-104140000D03*
%TO.P,U2,21*%
%TO.N,/A10*%
X204216000Y-88900000D03*
%TO.P,U2,7*%
%TO.N,/BA3*%
X201676000Y-104140000D03*
%TO.P,U2,20*%
%TO.N,ROM*%
X206756000Y-88900000D03*
%TO.P,U2,6*%
%TO.N,/BA4*%
X199136000Y-104140000D03*
%TO.P,U2,19*%
%TO.N,/D7*%
X209296000Y-88900000D03*
%TO.P,U2,5*%
%TO.N,/BA5*%
X196596000Y-104140000D03*
%TO.P,U2,18*%
%TO.N,/D6*%
X211836000Y-88900000D03*
%TO.P,U2,4*%
%TO.N,/BA6*%
X194056000Y-104140000D03*
%TO.P,U2,17*%
%TO.N,/D5*%
X214376000Y-88900000D03*
%TO.P,U2,3*%
%TO.N,/BA7*%
X191516000Y-104140000D03*
%TO.P,U2,16*%
%TO.N,/D4*%
X216916000Y-88900000D03*
%TO.P,U2,2*%
%TO.N,/A12*%
X188976000Y-104140000D03*
%TO.P,U2,15*%
%TO.N,/D3*%
X219456000Y-88900000D03*
D11*
%TO.P,U2,1*%
%TO.N,Net-(J4-Pad2)*%
X186436000Y-104140000D03*
%TD*%
D15*
%TO.P,J4,3*%
%TO.N,+5V*%
X163400000Y-79248000D03*
%TO.P,J4,2*%
%TO.N,Net-(J4-Pad2)*%
X163400000Y-76708000D03*
D16*
%TO.P,J4,1*%
%TO.N,QA*%
X163400000Y-74168000D03*
%TD*%
D15*
%TO.P,J3,3*%
%TO.N,QA*%
X158496000Y-79248000D03*
%TO.P,J3,2*%
%TO.N,Net-(J3-Pad2)*%
X158496000Y-76708000D03*
D16*
%TO.P,J3,1*%
%TO.N,NWE*%
X158496000Y-74168000D03*
%TD*%
D17*
%TO.P,CON1,a22*%
%TO.N,GND*%
X221996000Y-122424000D03*
%TO.P,CON1,a21*%
%TO.N,Net-(CON1-Pada21)*%
X219456000Y-122424000D03*
%TO.P,CON1,a20*%
%TO.N,Net-(CON1-Pada20)*%
X216916000Y-122424000D03*
%TO.P,CON1,a19*%
%TO.N,Net-(CON1-Pada19)*%
X214376000Y-122424000D03*
%TO.P,CON1,a18*%
%TO.N,Net-(CON1-Pada18)*%
X211836000Y-122424000D03*
%TO.P,CON1,a17*%
%TO.N,Net-(CON1-Pada17)*%
X209296000Y-122424000D03*
%TO.P,CON1,a16*%
%TO.N,QA*%
X206756000Y-122424000D03*
%TO.P,CON1,a15*%
%TO.N,Net-(CON1-Pada15)*%
X204216000Y-122424000D03*
%TO.P,CON1,a14*%
%TO.N,Net-(CON1-Pada14)*%
X201676000Y-122424000D03*
%TO.P,CON1,a13*%
%TO.N,Net-(CON1-Pada13)*%
X199136000Y-122424000D03*
%TO.P,CON1,a12*%
%TO.N,Net-(CON1-Pada12)*%
X196596000Y-122424000D03*
%TO.P,CON1,a11*%
%TO.N,/M_RW*%
X194056000Y-122424000D03*
%TO.P,CON1,a10*%
%TO.N,Net-(CON1-Pada10)*%
X191516000Y-122424000D03*
%TO.P,CON1,a9*%
%TO.N,Net-(CON1-Pada9)*%
X188976000Y-122424000D03*
%TO.P,CON1,a8*%
%TO.N,PHI2*%
X186436000Y-122424000D03*
%TO.P,CON1,a7*%
%TO.N,/A12*%
X183896000Y-122424000D03*
%TO.P,CON1,a6*%
%TO.N,/A13*%
X181356000Y-122424000D03*
%TO.P,CON1,a5*%
%TO.N,/A8*%
X178816000Y-122424000D03*
%TO.P,CON1,a4*%
%TO.N,/E_RW*%
X176276000Y-122424000D03*
%TO.P,CON1,a3*%
%TO.N,Net-(CON1-Pada3)*%
X173736000Y-122424000D03*
%TO.P,CON1,a2*%
%TO.N,ROM*%
X171196000Y-122424000D03*
D18*
%TO.P,CON1,a1*%
%TO.N,+5V*%
X168656000Y-121916000D03*
%TD*%
D14*
%TO.P,U1,14*%
%TO.N,+5V*%
X179578000Y-88900000D03*
%TO.P,U1,7*%
%TO.N,GND*%
X171958000Y-104140000D03*
%TO.P,U1,13*%
X179578000Y-91440000D03*
%TO.P,U1,6*%
%TO.N,NWE*%
X171958000Y-101600000D03*
%TO.P,U1,12*%
%TO.N,GND*%
X179578000Y-93980000D03*
%TO.P,U1,5*%
%TO.N,PHI2*%
X171958000Y-99060000D03*
%TO.P,U1,11*%
%TO.N,Net-(U1-Pad11)*%
X179578000Y-96520000D03*
%TO.P,U1,4*%
%TO.N,Net-(U1-Pad3)*%
X171958000Y-96520000D03*
%TO.P,U1,10*%
%TO.N,PHI2*%
X179578000Y-99060000D03*
%TO.P,U1,3*%
%TO.N,Net-(U1-Pad3)*%
X171958000Y-93980000D03*
%TO.P,U1,9*%
%TO.N,RW*%
X179578000Y-101600000D03*
%TO.P,U1,2*%
X171958000Y-91440000D03*
%TO.P,U1,8*%
%TO.N,NRD*%
X179578000Y-104140000D03*
D11*
%TO.P,U1,1*%
%TO.N,RW*%
X171958000Y-88900000D03*
%TD*%
D15*
%TO.P,J2,3*%
%TO.N,/M_RW*%
X160782000Y-89662000D03*
%TO.P,J2,2*%
%TO.N,RW*%
X160782000Y-92202000D03*
D16*
%TO.P,J2,1*%
%TO.N,/E_RW*%
X160782000Y-94742000D03*
%TD*%
D19*
%TO.P,C1,2*%
%TO.N,GND*%
X178482000Y-82550000D03*
%TO.P,C1,1*%
%TO.N,+5V*%
X173482000Y-82550000D03*
%TD*%
D20*
%TO.N,GND*%
X175514000Y-86614000D03*
X185420000Y-80772000D03*
X169418000Y-80518000D03*
%TO.N,+5V*%
X168656000Y-112268000D03*
%TO.N,/M_RW*%
X181864000Y-84836000D03*
%TO.N,/E_RW*%
X171069000Y-111125000D03*
%TO.N,ROM*%
X195834000Y-93218000D03*
X177546000Y-107950000D03*
X171196000Y-114300000D03*
%TO.N,/A9*%
X180086000Y-114554000D03*
%TO.N,/A10*%
X194564000Y-92456000D03*
X191516000Y-92456000D03*
%TO.N,/D3*%
X198374000Y-97028000D03*
X186944000Y-97028000D03*
%TO.N,NWE*%
X167132000Y-90932000D03*
%TO.N,Net-(J4-Pad2)*%
X203962000Y-101600000D03*
X193548000Y-101600000D03*
%TD*%
D21*
%TO.N,GND*%
X221996000Y-122424000D02*
X221996000Y-113284000D01*
%TO.N,+5V*%
X173482000Y-82550000D02*
X170688000Y-82550000D01*
X170688000Y-82550000D02*
X168656000Y-84582000D01*
X168656000Y-84582000D02*
X168656000Y-121666000D01*
X168656000Y-84582000D02*
X166370000Y-82296000D01*
X166370000Y-82296000D02*
X166370000Y-80518000D01*
X166370000Y-80518000D02*
X166370000Y-80264000D01*
X166370000Y-80264000D02*
X165354000Y-79248000D01*
X165354000Y-79248000D02*
X163322000Y-79248000D01*
D22*
%TO.N,QA*%
X206756000Y-122424000D02*
X206756000Y-112776000D01*
X206756000Y-112776000D02*
X205486000Y-111506000D01*
X205486000Y-111506000D02*
X205486000Y-102870000D01*
X205486000Y-102870000D02*
X210566000Y-97790000D01*
X210566000Y-97790000D02*
X210566000Y-82804000D01*
X210566000Y-82804000D02*
X207518000Y-79756000D01*
X207518000Y-79756000D02*
X204978000Y-77216000D01*
X204978000Y-77216000D02*
X169164000Y-77216000D01*
X169164000Y-77216000D02*
X166370000Y-74422000D01*
X166370000Y-74422000D02*
X166116000Y-74422000D01*
X166116000Y-74168000D02*
X166370000Y-74422000D01*
X163400000Y-74168000D02*
X166116000Y-74168000D01*
X158750000Y-79756000D02*
X158750000Y-78994000D01*
X163400000Y-74168000D02*
X162052000Y-74168000D01*
X162052000Y-74168000D02*
X161798000Y-74168000D01*
X161798000Y-74168000D02*
X161036000Y-74930000D01*
X161036000Y-74930000D02*
X161036000Y-78486000D01*
X161036000Y-78486000D02*
X160274000Y-79248000D01*
X160274000Y-79248000D02*
X158496000Y-79248000D01*
%TO.N,/M_RW*%
X203454000Y-84836000D02*
X181864000Y-84836000D01*
X203765990Y-85147990D02*
X203454000Y-84836000D01*
X205486000Y-86868000D02*
X203765990Y-85147990D01*
X205486000Y-97790000D02*
X205486000Y-86868000D01*
X200406000Y-102870000D02*
X205486000Y-97790000D01*
X200406000Y-107950000D02*
X200406000Y-102870000D01*
X194056000Y-114300000D02*
X200406000Y-107950000D01*
X194056000Y-122424000D02*
X194056000Y-114300000D01*
%TO.N,/A12*%
X183896000Y-122424000D02*
X183896000Y-114300000D01*
X183896000Y-114300000D02*
X188976000Y-109220000D01*
X188976000Y-109220000D02*
X188976000Y-104140000D01*
%TO.N,/A13*%
X191516000Y-88900000D02*
X191516000Y-87884000D01*
X191516000Y-87884000D02*
X192024000Y-87376000D01*
X192024000Y-87376000D02*
X197358000Y-87376000D01*
X197358000Y-87376000D02*
X197866000Y-87884000D01*
X197866000Y-87884000D02*
X197866000Y-89916000D01*
X197866000Y-89916000D02*
X198120000Y-90170000D01*
X198120000Y-90170000D02*
X200152000Y-90170000D01*
X200152000Y-90170000D02*
X202692000Y-92710000D01*
X202692000Y-92710000D02*
X202692000Y-98044000D01*
X202692000Y-98044000D02*
X200660000Y-100076000D01*
X200660000Y-100076000D02*
X186944000Y-100076000D01*
X186944000Y-100076000D02*
X184404000Y-102616000D01*
X184404000Y-102616000D02*
X184404000Y-109982000D01*
X184404000Y-109982000D02*
X181356000Y-113030000D01*
X181356000Y-113030000D02*
X181356000Y-122174000D01*
%TO.N,/A8*%
X194818000Y-91694000D02*
X194056000Y-90932000D01*
X199390000Y-91694000D02*
X194818000Y-91694000D01*
X201168000Y-97536000D02*
X201168000Y-93472000D01*
X200152000Y-98552000D02*
X201168000Y-97536000D01*
X194056000Y-90932000D02*
X194056000Y-88900000D01*
X201168000Y-93472000D02*
X199390000Y-91694000D01*
X178816000Y-122424000D02*
X178816000Y-114554000D01*
X178816000Y-114554000D02*
X178816000Y-114300000D01*
X185928000Y-98552000D02*
X187198000Y-98552000D01*
X182626000Y-101854000D02*
X185928000Y-98552000D01*
X182626000Y-107950000D02*
X182626000Y-101854000D01*
X178816000Y-111760000D02*
X182626000Y-107950000D01*
X178816000Y-114554000D02*
X178816000Y-111760000D01*
X187198000Y-98552000D02*
X200152000Y-98552000D01*
X186944000Y-98552000D02*
X187198000Y-98552000D01*
%TO.N,/E_RW*%
X176276000Y-122424000D02*
X176276000Y-116332000D01*
X176276000Y-116332000D02*
X171069000Y-111125000D01*
%TO.N,ROM*%
X171196000Y-116586000D02*
X171196000Y-116586000D01*
X188976000Y-93218000D02*
X195834000Y-93218000D01*
X188976000Y-93218000D02*
X181864000Y-100330000D01*
X181864000Y-107188000D02*
X181102000Y-107950000D01*
X181102000Y-107950000D02*
X179578000Y-107950000D01*
X171196000Y-116332000D02*
X171196000Y-116840000D01*
X171196000Y-116840000D02*
X171196000Y-116586000D01*
X171196000Y-122424000D02*
X171196000Y-116840000D01*
X171196000Y-116332000D02*
X171196000Y-114300000D01*
X179578000Y-107950000D02*
X177546000Y-107950000D01*
X177546000Y-107950000D02*
X177546000Y-107950000D01*
X171196000Y-114300000D02*
X171196000Y-114300000D01*
X181864000Y-100330000D02*
X181864000Y-107188000D01*
%TO.N,/A9*%
X183388000Y-102108000D02*
X183388000Y-109982000D01*
X200406000Y-99314000D02*
X186182000Y-99314000D01*
X201930000Y-97790000D02*
X200406000Y-99314000D01*
X180086000Y-113284000D02*
X180086000Y-114554000D01*
X199644000Y-90932000D02*
X201930000Y-93218000D01*
X183388000Y-109982000D02*
X180086000Y-113284000D01*
X196596000Y-90424000D02*
X197104000Y-90932000D01*
X197104000Y-90932000D02*
X199644000Y-90932000D01*
X186182000Y-99314000D02*
X183388000Y-102108000D01*
X201930000Y-93218000D02*
X201930000Y-97790000D01*
X196596000Y-88900000D02*
X196596000Y-90424000D01*
%TO.N,/A10*%
X194564000Y-92456000D02*
X191516000Y-92456000D01*
X191516000Y-92456000D02*
X191516000Y-92456000D01*
%TO.N,/D3*%
X186944000Y-97028000D02*
X198374000Y-97028000D01*
%TO.N,NWE*%
X167132000Y-90932000D02*
X167132000Y-84582000D01*
X167132000Y-84582000D02*
X164592000Y-82042000D01*
X164592000Y-82042000D02*
X160020000Y-82042000D01*
X160020000Y-82042000D02*
X157480000Y-82042000D01*
X157480000Y-82042000D02*
X156464000Y-81026000D01*
X156464000Y-81026000D02*
X156464000Y-74930000D01*
X156464000Y-74930000D02*
X157226000Y-74168000D01*
X157226000Y-74168000D02*
X158496000Y-74168000D01*
%TO.N,NRD*%
X179578000Y-104140000D02*
X180340000Y-104140000D01*
X180340000Y-104140000D02*
X181102000Y-103378000D01*
X181102000Y-103378000D02*
X181102000Y-99314000D01*
X181102000Y-99314000D02*
X184150000Y-96266000D01*
X184150000Y-96266000D02*
X184150000Y-87630000D01*
X184150000Y-87630000D02*
X185166000Y-86614000D01*
X185166000Y-86614000D02*
X200406000Y-86614000D01*
X200406000Y-86614000D02*
X200660000Y-86614000D01*
X200660000Y-86614000D02*
X201676000Y-87630000D01*
X201676000Y-87630000D02*
X201676000Y-88900000D01*
%TO.N,PHI2*%
X179578000Y-99060000D02*
X179324000Y-99060000D01*
X195326000Y-105410000D02*
X186436000Y-114300000D01*
X195326000Y-101854000D02*
X195326000Y-105410000D01*
X203708000Y-91186000D02*
X203708000Y-98298000D01*
X179578000Y-99060000D02*
X182626000Y-96012000D01*
X202801001Y-87231001D02*
X202801001Y-90279001D01*
X182626000Y-87884000D02*
X184912000Y-85598000D01*
X186436000Y-114300000D02*
X186436000Y-122424000D01*
X201168000Y-85598000D02*
X202801001Y-87231001D01*
X184912000Y-85598000D02*
X201168000Y-85598000D01*
X196342000Y-100838000D02*
X195326000Y-101854000D01*
X203708000Y-98298000D02*
X201168000Y-100838000D01*
X182626000Y-96012000D02*
X182626000Y-87884000D01*
X201168000Y-100838000D02*
X196342000Y-100838000D01*
X202801001Y-90279001D02*
X203708000Y-91186000D01*
%TO.N,RW*%
X171958000Y-91440000D02*
X174244000Y-91440000D01*
X174244000Y-91440000D02*
X175768000Y-92964000D01*
X175768000Y-92964000D02*
X175768000Y-100330000D01*
X175768000Y-100330000D02*
X177038000Y-101600000D01*
X177038000Y-101600000D02*
X179832000Y-101600000D01*
X179832000Y-101600000D02*
X179832000Y-102108000D01*
%TO.N,Net-(J4-Pad2)*%
X203962000Y-101600000D02*
X203962000Y-101600000D01*
X193548000Y-101600000D02*
X187960000Y-101600000D01*
X187960000Y-101600000D02*
X186436000Y-103124000D01*
X186436000Y-103124000D02*
X186436000Y-103886000D01*
X186436000Y-103886000D02*
X186690000Y-104140000D01*
X166116000Y-76708000D02*
X163400000Y-76708000D01*
X167640000Y-76708000D02*
X166116000Y-76708000D01*
X207881001Y-97680999D02*
X207881001Y-82405001D01*
X168910000Y-77978000D02*
X167640000Y-76708000D01*
X203454000Y-77978000D02*
X168910000Y-77978000D01*
X207881001Y-82405001D02*
X203454000Y-77978000D01*
X203962000Y-101600000D02*
X207881001Y-97680999D01*
%TD*%
D23*
%TO.N,GND*%
X237084001Y-115164000D02*
X223552419Y-115164000D01*
X223520000Y-115160807D01*
X223487581Y-115164000D01*
X223390617Y-115173550D01*
X223266207Y-115211290D01*
X223151550Y-115272575D01*
X223051052Y-115355052D01*
X222968575Y-115455550D01*
X222907290Y-115570207D01*
X222869550Y-115694617D01*
X222869315Y-115697000D01*
X207516000Y-115697000D01*
X207516000Y-112813322D01*
X207519676Y-112775999D01*
X207516000Y-112738676D01*
X207516000Y-112738667D01*
X207505003Y-112627014D01*
X207461546Y-112483753D01*
X207390974Y-112351724D01*
X207296001Y-112235999D01*
X207267003Y-112212201D01*
X206246000Y-111191199D01*
X206246000Y-105481983D01*
X206337426Y-105519853D01*
X206614665Y-105575000D01*
X206897335Y-105575000D01*
X207174574Y-105519853D01*
X207435727Y-105411680D01*
X207670759Y-105254637D01*
X207870637Y-105054759D01*
X208026000Y-104822241D01*
X208181363Y-105054759D01*
X208381241Y-105254637D01*
X208616273Y-105411680D01*
X208877426Y-105519853D01*
X209154665Y-105575000D01*
X209437335Y-105575000D01*
X209714574Y-105519853D01*
X209975727Y-105411680D01*
X210210759Y-105254637D01*
X210410637Y-105054759D01*
X210566000Y-104822241D01*
X210721363Y-105054759D01*
X210921241Y-105254637D01*
X211156273Y-105411680D01*
X211417426Y-105519853D01*
X211694665Y-105575000D01*
X211977335Y-105575000D01*
X212254574Y-105519853D01*
X212515727Y-105411680D01*
X212750759Y-105254637D01*
X212950637Y-105054759D01*
X213106000Y-104822241D01*
X213261363Y-105054759D01*
X213461241Y-105254637D01*
X213696273Y-105411680D01*
X213957426Y-105519853D01*
X214234665Y-105575000D01*
X214517335Y-105575000D01*
X214794574Y-105519853D01*
X215055727Y-105411680D01*
X215290759Y-105254637D01*
X215490637Y-105054759D01*
X215646000Y-104822241D01*
X215801363Y-105054759D01*
X216001241Y-105254637D01*
X216236273Y-105411680D01*
X216497426Y-105519853D01*
X216774665Y-105575000D01*
X217057335Y-105575000D01*
X217334574Y-105519853D01*
X217595727Y-105411680D01*
X217830759Y-105254637D01*
X218030637Y-105054759D01*
X218187680Y-104819727D01*
X218192067Y-104809135D01*
X218303615Y-104995131D01*
X218492586Y-105203519D01*
X218718580Y-105371037D01*
X218972913Y-105491246D01*
X219106961Y-105531904D01*
X219329000Y-105409915D01*
X219329000Y-104267000D01*
X219583000Y-104267000D01*
X219583000Y-105409915D01*
X219805039Y-105531904D01*
X219939087Y-105491246D01*
X220193420Y-105371037D01*
X220419414Y-105203519D01*
X220608385Y-104995131D01*
X220753070Y-104753881D01*
X220847909Y-104489040D01*
X220726624Y-104267000D01*
X219583000Y-104267000D01*
X219329000Y-104267000D01*
X219309000Y-104267000D01*
X219309000Y-104013000D01*
X219329000Y-104013000D01*
X219329000Y-102870085D01*
X219583000Y-102870085D01*
X219583000Y-104013000D01*
X220726624Y-104013000D01*
X220847909Y-103790960D01*
X220753070Y-103526119D01*
X220608385Y-103284869D01*
X220419414Y-103076481D01*
X220193420Y-102908963D01*
X219939087Y-102788754D01*
X219805039Y-102748096D01*
X219583000Y-102870085D01*
X219329000Y-102870085D01*
X219106961Y-102748096D01*
X218972913Y-102788754D01*
X218718580Y-102908963D01*
X218492586Y-103076481D01*
X218303615Y-103284869D01*
X218192067Y-103470865D01*
X218187680Y-103460273D01*
X218030637Y-103225241D01*
X217830759Y-103025363D01*
X217595727Y-102868320D01*
X217334574Y-102760147D01*
X217057335Y-102705000D01*
X216774665Y-102705000D01*
X216497426Y-102760147D01*
X216236273Y-102868320D01*
X216001241Y-103025363D01*
X215801363Y-103225241D01*
X215646000Y-103457759D01*
X215490637Y-103225241D01*
X215290759Y-103025363D01*
X215055727Y-102868320D01*
X214794574Y-102760147D01*
X214517335Y-102705000D01*
X214234665Y-102705000D01*
X213957426Y-102760147D01*
X213696273Y-102868320D01*
X213461241Y-103025363D01*
X213261363Y-103225241D01*
X213106000Y-103457759D01*
X212950637Y-103225241D01*
X212750759Y-103025363D01*
X212515727Y-102868320D01*
X212254574Y-102760147D01*
X211977335Y-102705000D01*
X211694665Y-102705000D01*
X211417426Y-102760147D01*
X211156273Y-102868320D01*
X210921241Y-103025363D01*
X210721363Y-103225241D01*
X210566000Y-103457759D01*
X210410637Y-103225241D01*
X210210759Y-103025363D01*
X209975727Y-102868320D01*
X209714574Y-102760147D01*
X209437335Y-102705000D01*
X209154665Y-102705000D01*
X208877426Y-102760147D01*
X208616273Y-102868320D01*
X208381241Y-103025363D01*
X208181363Y-103225241D01*
X208026000Y-103457759D01*
X207870637Y-103225241D01*
X207670759Y-103025363D01*
X207435727Y-102868320D01*
X207174574Y-102760147D01*
X206897335Y-102705000D01*
X206725801Y-102705000D01*
X207489296Y-101941505D01*
X228394640Y-101941505D01*
X228394640Y-102782495D01*
X228558709Y-103607326D01*
X228880542Y-104384300D01*
X229347771Y-105083559D01*
X229942441Y-105678229D01*
X230641700Y-106145458D01*
X231418674Y-106467291D01*
X232243505Y-106631360D01*
X233084495Y-106631360D01*
X233909326Y-106467291D01*
X234686300Y-106145458D01*
X235385559Y-105678229D01*
X235980229Y-105083559D01*
X236447458Y-104384300D01*
X236769291Y-103607326D01*
X236933360Y-102782495D01*
X236933360Y-101941505D01*
X236769291Y-101116674D01*
X236447458Y-100339700D01*
X235980229Y-99640441D01*
X235385559Y-99045771D01*
X234686300Y-98578542D01*
X233909326Y-98256709D01*
X233084495Y-98092640D01*
X232243505Y-98092640D01*
X231418674Y-98256709D01*
X230641700Y-98578542D01*
X229942441Y-99045771D01*
X229347771Y-99640441D01*
X228880542Y-100339700D01*
X228558709Y-101116674D01*
X228394640Y-101941505D01*
X207489296Y-101941505D01*
X211077004Y-98353798D01*
X211106001Y-98330001D01*
X211142930Y-98285003D01*
X211200974Y-98214277D01*
X211271546Y-98082247D01*
X211283148Y-98044000D01*
X211315003Y-97938986D01*
X211326000Y-97827333D01*
X211326000Y-97827323D01*
X211329676Y-97790000D01*
X211326000Y-97752677D01*
X211326000Y-90241983D01*
X211417426Y-90279853D01*
X211694665Y-90335000D01*
X211977335Y-90335000D01*
X212254574Y-90279853D01*
X212515727Y-90171680D01*
X212750759Y-90014637D01*
X212950637Y-89814759D01*
X213106000Y-89582241D01*
X213261363Y-89814759D01*
X213461241Y-90014637D01*
X213696273Y-90171680D01*
X213957426Y-90279853D01*
X214234665Y-90335000D01*
X214517335Y-90335000D01*
X214794574Y-90279853D01*
X215055727Y-90171680D01*
X215290759Y-90014637D01*
X215490637Y-89814759D01*
X215646000Y-89582241D01*
X215801363Y-89814759D01*
X216001241Y-90014637D01*
X216236273Y-90171680D01*
X216497426Y-90279853D01*
X216774665Y-90335000D01*
X217057335Y-90335000D01*
X217334574Y-90279853D01*
X217595727Y-90171680D01*
X217830759Y-90014637D01*
X218030637Y-89814759D01*
X218186000Y-89582241D01*
X218341363Y-89814759D01*
X218541241Y-90014637D01*
X218776273Y-90171680D01*
X219037426Y-90279853D01*
X219314665Y-90335000D01*
X219597335Y-90335000D01*
X219874574Y-90279853D01*
X220135727Y-90171680D01*
X220370759Y-90014637D01*
X220570637Y-89814759D01*
X220727680Y-89579727D01*
X220835853Y-89318574D01*
X220891000Y-89041335D01*
X220891000Y-88758665D01*
X220835853Y-88481426D01*
X220727680Y-88220273D01*
X220570637Y-87985241D01*
X220370759Y-87785363D01*
X220135727Y-87628320D01*
X219874574Y-87520147D01*
X219597335Y-87465000D01*
X219314665Y-87465000D01*
X219037426Y-87520147D01*
X218776273Y-87628320D01*
X218541241Y-87785363D01*
X218341363Y-87985241D01*
X218186000Y-88217759D01*
X218030637Y-87985241D01*
X217830759Y-87785363D01*
X217595727Y-87628320D01*
X217334574Y-87520147D01*
X217057335Y-87465000D01*
X216774665Y-87465000D01*
X216497426Y-87520147D01*
X216236273Y-87628320D01*
X216001241Y-87785363D01*
X215801363Y-87985241D01*
X215646000Y-88217759D01*
X215490637Y-87985241D01*
X215290759Y-87785363D01*
X215055727Y-87628320D01*
X214794574Y-87520147D01*
X214517335Y-87465000D01*
X214234665Y-87465000D01*
X213957426Y-87520147D01*
X213696273Y-87628320D01*
X213461241Y-87785363D01*
X213261363Y-87985241D01*
X213106000Y-88217759D01*
X212950637Y-87985241D01*
X212750759Y-87785363D01*
X212515727Y-87628320D01*
X212254574Y-87520147D01*
X211977335Y-87465000D01*
X211694665Y-87465000D01*
X211417426Y-87520147D01*
X211326000Y-87558017D01*
X211326000Y-82841323D01*
X211329676Y-82804000D01*
X211326000Y-82766677D01*
X211326000Y-82766667D01*
X211315003Y-82655014D01*
X211271546Y-82511753D01*
X211205915Y-82388967D01*
X211200974Y-82379723D01*
X211129799Y-82292997D01*
X211106001Y-82263999D01*
X211077003Y-82240201D01*
X208081808Y-79245007D01*
X208081799Y-79244996D01*
X205541804Y-76705003D01*
X205518001Y-76675999D01*
X205402276Y-76581026D01*
X205270247Y-76510454D01*
X205126986Y-76466997D01*
X205015333Y-76456000D01*
X205015322Y-76456000D01*
X204978000Y-76452324D01*
X204940678Y-76456000D01*
X169478802Y-76456000D01*
X166933804Y-73911003D01*
X166910001Y-73881999D01*
X166880997Y-73858196D01*
X166679804Y-73657003D01*
X166656001Y-73627999D01*
X166540276Y-73533026D01*
X166408247Y-73462454D01*
X166264986Y-73418997D01*
X166153333Y-73408000D01*
X166153322Y-73408000D01*
X166116000Y-73404324D01*
X166078678Y-73408000D01*
X164888072Y-73408000D01*
X164888072Y-73318000D01*
X164875812Y-73193518D01*
X164839502Y-73073820D01*
X164780537Y-72963506D01*
X164701185Y-72866815D01*
X164604494Y-72787463D01*
X164494180Y-72728498D01*
X164374482Y-72692188D01*
X164250000Y-72679928D01*
X162550000Y-72679928D01*
X162425518Y-72692188D01*
X162305820Y-72728498D01*
X162195506Y-72787463D01*
X162098815Y-72866815D01*
X162019463Y-72963506D01*
X161960498Y-73073820D01*
X161924188Y-73193518D01*
X161911928Y-73318000D01*
X161911928Y-73408000D01*
X161835325Y-73408000D01*
X161798000Y-73404324D01*
X161760675Y-73408000D01*
X161760667Y-73408000D01*
X161649014Y-73418997D01*
X161505753Y-73462454D01*
X161373724Y-73533026D01*
X161257999Y-73627999D01*
X161234201Y-73656998D01*
X160525002Y-74366197D01*
X160495999Y-74389999D01*
X160469738Y-74421999D01*
X160401026Y-74505724D01*
X160354763Y-74592276D01*
X160330454Y-74637754D01*
X160286997Y-74781015D01*
X160276000Y-74892668D01*
X160276000Y-74892678D01*
X160272324Y-74930000D01*
X160276000Y-74967323D01*
X160276001Y-78171197D01*
X159959199Y-78488000D01*
X159774178Y-78488000D01*
X159649475Y-78301368D01*
X159442632Y-78094525D01*
X159268240Y-77978000D01*
X159442632Y-77861475D01*
X159649475Y-77654632D01*
X159811990Y-77411411D01*
X159923932Y-77141158D01*
X159981000Y-76854260D01*
X159981000Y-76561740D01*
X159923932Y-76274842D01*
X159811990Y-76004589D01*
X159649475Y-75761368D01*
X159517620Y-75629513D01*
X159590180Y-75607502D01*
X159700494Y-75548537D01*
X159797185Y-75469185D01*
X159876537Y-75372494D01*
X159935502Y-75262180D01*
X159971812Y-75142482D01*
X159984072Y-75018000D01*
X159984072Y-73318000D01*
X159971812Y-73193518D01*
X159935502Y-73073820D01*
X159876537Y-72963506D01*
X159797185Y-72866815D01*
X159700494Y-72787463D01*
X159590180Y-72728498D01*
X159470482Y-72692188D01*
X159346000Y-72679928D01*
X157646000Y-72679928D01*
X157521518Y-72692188D01*
X157401820Y-72728498D01*
X157291506Y-72787463D01*
X157194815Y-72866815D01*
X157115463Y-72963506D01*
X157056498Y-73073820D01*
X157020188Y-73193518D01*
X157007928Y-73318000D01*
X157007928Y-73439954D01*
X156933753Y-73462454D01*
X156801724Y-73533026D01*
X156685999Y-73627999D01*
X156662201Y-73656998D01*
X155952998Y-74366201D01*
X155924000Y-74389999D01*
X155900202Y-74418997D01*
X155900201Y-74418998D01*
X155829026Y-74505724D01*
X155758454Y-74637754D01*
X155714998Y-74781015D01*
X155700324Y-74930000D01*
X155704001Y-74967332D01*
X155704000Y-80988677D01*
X155700324Y-81026000D01*
X155704000Y-81063322D01*
X155704000Y-81063332D01*
X155714997Y-81174985D01*
X155758281Y-81317676D01*
X155758454Y-81318246D01*
X155829026Y-81450276D01*
X155866817Y-81496324D01*
X155923999Y-81566001D01*
X155953002Y-81589804D01*
X156916200Y-82553002D01*
X156939999Y-82582001D01*
X156968997Y-82605799D01*
X157055723Y-82676974D01*
X157154188Y-82729605D01*
X157187753Y-82747546D01*
X157331014Y-82791003D01*
X157442667Y-82802000D01*
X157442677Y-82802000D01*
X157480000Y-82805676D01*
X157517322Y-82802000D01*
X164277199Y-82802000D01*
X164722198Y-83247000D01*
X164714514Y-83247000D01*
X164456595Y-83298304D01*
X164213641Y-83398939D01*
X163994987Y-83545038D01*
X163809038Y-83730987D01*
X163662939Y-83949641D01*
X163562304Y-84192595D01*
X163511000Y-84450514D01*
X163511000Y-84713486D01*
X163562304Y-84971405D01*
X163662939Y-85214359D01*
X163809038Y-85433013D01*
X163994987Y-85618962D01*
X164213641Y-85765061D01*
X164456595Y-85865696D01*
X164714514Y-85917000D01*
X164977486Y-85917000D01*
X165235405Y-85865696D01*
X165478359Y-85765061D01*
X165697013Y-85618962D01*
X165882962Y-85433013D01*
X166029061Y-85214359D01*
X166129696Y-84971405D01*
X166181000Y-84713486D01*
X166181000Y-84705803D01*
X166372001Y-84896804D01*
X166372000Y-90228289D01*
X166328063Y-90272226D01*
X166214795Y-90441744D01*
X166136774Y-90630102D01*
X166097000Y-90830061D01*
X166097000Y-91033939D01*
X166136774Y-91233898D01*
X166214795Y-91422256D01*
X166328063Y-91591774D01*
X166472226Y-91735937D01*
X166641744Y-91849205D01*
X166830102Y-91927226D01*
X167030061Y-91967000D01*
X167233939Y-91967000D01*
X167433898Y-91927226D01*
X167521000Y-91891147D01*
X167521001Y-115289441D01*
X167500450Y-115272575D01*
X167385793Y-115211290D01*
X167261383Y-115173550D01*
X167164419Y-115164000D01*
X167132000Y-115160807D01*
X167099581Y-115164000D01*
X153568000Y-115164000D01*
X153568000Y-101433505D01*
X153718640Y-101433505D01*
X153718640Y-102274495D01*
X153882709Y-103099326D01*
X154204542Y-103876300D01*
X154671771Y-104575559D01*
X155266441Y-105170229D01*
X155965700Y-105637458D01*
X156742674Y-105959291D01*
X157567505Y-106123360D01*
X158408495Y-106123360D01*
X159233326Y-105959291D01*
X160010300Y-105637458D01*
X160709559Y-105170229D01*
X161304229Y-104575559D01*
X161771458Y-103876300D01*
X162093291Y-103099326D01*
X162257360Y-102274495D01*
X162257360Y-101433505D01*
X162093291Y-100608674D01*
X161771458Y-99831700D01*
X161304229Y-99132441D01*
X160709559Y-98537771D01*
X160010300Y-98070542D01*
X159233326Y-97748709D01*
X158408495Y-97584640D01*
X157567505Y-97584640D01*
X156742674Y-97748709D01*
X155965700Y-98070542D01*
X155266441Y-98537771D01*
X154671771Y-99132441D01*
X154204542Y-99831700D01*
X153882709Y-100608674D01*
X153718640Y-101433505D01*
X153568000Y-101433505D01*
X153568000Y-93892000D01*
X159293928Y-93892000D01*
X159293928Y-95592000D01*
X159306188Y-95716482D01*
X159342498Y-95836180D01*
X159401463Y-95946494D01*
X159480815Y-96043185D01*
X159577506Y-96122537D01*
X159687820Y-96181502D01*
X159807518Y-96217812D01*
X159932000Y-96230072D01*
X161632000Y-96230072D01*
X161756482Y-96217812D01*
X161876180Y-96181502D01*
X161986494Y-96122537D01*
X162083185Y-96043185D01*
X162162537Y-95946494D01*
X162221502Y-95836180D01*
X162257812Y-95716482D01*
X162270072Y-95592000D01*
X162270072Y-93892000D01*
X162257812Y-93767518D01*
X162221502Y-93647820D01*
X162162537Y-93537506D01*
X162083185Y-93440815D01*
X161986494Y-93361463D01*
X161876180Y-93302498D01*
X161803620Y-93280487D01*
X161935475Y-93148632D01*
X162097990Y-92905411D01*
X162209932Y-92635158D01*
X162267000Y-92348260D01*
X162267000Y-92055740D01*
X162209932Y-91768842D01*
X162097990Y-91498589D01*
X161935475Y-91255368D01*
X161728632Y-91048525D01*
X161554240Y-90932000D01*
X161728632Y-90815475D01*
X161935475Y-90608632D01*
X162097990Y-90365411D01*
X162209932Y-90095158D01*
X162267000Y-89808260D01*
X162267000Y-89515740D01*
X162209932Y-89228842D01*
X162097990Y-88958589D01*
X161935475Y-88715368D01*
X161728632Y-88508525D01*
X161485411Y-88346010D01*
X161215158Y-88234068D01*
X160928260Y-88177000D01*
X160635740Y-88177000D01*
X160348842Y-88234068D01*
X160078589Y-88346010D01*
X159835368Y-88508525D01*
X159628525Y-88715368D01*
X159466010Y-88958589D01*
X159354068Y-89228842D01*
X159297000Y-89515740D01*
X159297000Y-89808260D01*
X159354068Y-90095158D01*
X159466010Y-90365411D01*
X159628525Y-90608632D01*
X159835368Y-90815475D01*
X160009760Y-90932000D01*
X159835368Y-91048525D01*
X159628525Y-91255368D01*
X159466010Y-91498589D01*
X159354068Y-91768842D01*
X159297000Y-92055740D01*
X159297000Y-92348260D01*
X159354068Y-92635158D01*
X159466010Y-92905411D01*
X159628525Y-93148632D01*
X159760380Y-93280487D01*
X159687820Y-93302498D01*
X159577506Y-93361463D01*
X159480815Y-93440815D01*
X159401463Y-93537506D01*
X159342498Y-93647820D01*
X159306188Y-93767518D01*
X159293928Y-93892000D01*
X153568000Y-93892000D01*
X153568000Y-84450514D01*
X155891000Y-84450514D01*
X155891000Y-84713486D01*
X155942304Y-84971405D01*
X156042939Y-85214359D01*
X156189038Y-85433013D01*
X156374987Y-85618962D01*
X156593641Y-85765061D01*
X156836595Y-85865696D01*
X157094514Y-85917000D01*
X157357486Y-85917000D01*
X157615405Y-85865696D01*
X157858359Y-85765061D01*
X158077013Y-85618962D01*
X158262962Y-85433013D01*
X158409061Y-85214359D01*
X158509696Y-84971405D01*
X158561000Y-84713486D01*
X158561000Y-84450514D01*
X158509696Y-84192595D01*
X158409061Y-83949641D01*
X158262962Y-83730987D01*
X158077013Y-83545038D01*
X157858359Y-83398939D01*
X157615405Y-83298304D01*
X157357486Y-83247000D01*
X157094514Y-83247000D01*
X156836595Y-83298304D01*
X156593641Y-83398939D01*
X156374987Y-83545038D01*
X156189038Y-83730987D01*
X156042939Y-83949641D01*
X155942304Y-84192595D01*
X155891000Y-84450514D01*
X153568000Y-84450514D01*
X153568000Y-66700000D01*
X237084000Y-66700000D01*
X237084001Y-115164000D01*
%TA.AperFunction,Conductor*%
D24*
G36*
X237084001Y-115164000D02*
G01*
X223552419Y-115164000D01*
X223520000Y-115160807D01*
X223487581Y-115164000D01*
X223390617Y-115173550D01*
X223266207Y-115211290D01*
X223151550Y-115272575D01*
X223051052Y-115355052D01*
X222968575Y-115455550D01*
X222907290Y-115570207D01*
X222869550Y-115694617D01*
X222869315Y-115697000D01*
X207516000Y-115697000D01*
X207516000Y-112813322D01*
X207519676Y-112775999D01*
X207516000Y-112738676D01*
X207516000Y-112738667D01*
X207505003Y-112627014D01*
X207461546Y-112483753D01*
X207390974Y-112351724D01*
X207296001Y-112235999D01*
X207267003Y-112212201D01*
X206246000Y-111191199D01*
X206246000Y-105481983D01*
X206337426Y-105519853D01*
X206614665Y-105575000D01*
X206897335Y-105575000D01*
X207174574Y-105519853D01*
X207435727Y-105411680D01*
X207670759Y-105254637D01*
X207870637Y-105054759D01*
X208026000Y-104822241D01*
X208181363Y-105054759D01*
X208381241Y-105254637D01*
X208616273Y-105411680D01*
X208877426Y-105519853D01*
X209154665Y-105575000D01*
X209437335Y-105575000D01*
X209714574Y-105519853D01*
X209975727Y-105411680D01*
X210210759Y-105254637D01*
X210410637Y-105054759D01*
X210566000Y-104822241D01*
X210721363Y-105054759D01*
X210921241Y-105254637D01*
X211156273Y-105411680D01*
X211417426Y-105519853D01*
X211694665Y-105575000D01*
X211977335Y-105575000D01*
X212254574Y-105519853D01*
X212515727Y-105411680D01*
X212750759Y-105254637D01*
X212950637Y-105054759D01*
X213106000Y-104822241D01*
X213261363Y-105054759D01*
X213461241Y-105254637D01*
X213696273Y-105411680D01*
X213957426Y-105519853D01*
X214234665Y-105575000D01*
X214517335Y-105575000D01*
X214794574Y-105519853D01*
X215055727Y-105411680D01*
X215290759Y-105254637D01*
X215490637Y-105054759D01*
X215646000Y-104822241D01*
X215801363Y-105054759D01*
X216001241Y-105254637D01*
X216236273Y-105411680D01*
X216497426Y-105519853D01*
X216774665Y-105575000D01*
X217057335Y-105575000D01*
X217334574Y-105519853D01*
X217595727Y-105411680D01*
X217830759Y-105254637D01*
X218030637Y-105054759D01*
X218187680Y-104819727D01*
X218192067Y-104809135D01*
X218303615Y-104995131D01*
X218492586Y-105203519D01*
X218718580Y-105371037D01*
X218972913Y-105491246D01*
X219106961Y-105531904D01*
X219329000Y-105409915D01*
X219329000Y-104267000D01*
X219583000Y-104267000D01*
X219583000Y-105409915D01*
X219805039Y-105531904D01*
X219939087Y-105491246D01*
X220193420Y-105371037D01*
X220419414Y-105203519D01*
X220608385Y-104995131D01*
X220753070Y-104753881D01*
X220847909Y-104489040D01*
X220726624Y-104267000D01*
X219583000Y-104267000D01*
X219329000Y-104267000D01*
X219309000Y-104267000D01*
X219309000Y-104013000D01*
X219329000Y-104013000D01*
X219329000Y-102870085D01*
X219583000Y-102870085D01*
X219583000Y-104013000D01*
X220726624Y-104013000D01*
X220847909Y-103790960D01*
X220753070Y-103526119D01*
X220608385Y-103284869D01*
X220419414Y-103076481D01*
X220193420Y-102908963D01*
X219939087Y-102788754D01*
X219805039Y-102748096D01*
X219583000Y-102870085D01*
X219329000Y-102870085D01*
X219106961Y-102748096D01*
X218972913Y-102788754D01*
X218718580Y-102908963D01*
X218492586Y-103076481D01*
X218303615Y-103284869D01*
X218192067Y-103470865D01*
X218187680Y-103460273D01*
X218030637Y-103225241D01*
X217830759Y-103025363D01*
X217595727Y-102868320D01*
X217334574Y-102760147D01*
X217057335Y-102705000D01*
X216774665Y-102705000D01*
X216497426Y-102760147D01*
X216236273Y-102868320D01*
X216001241Y-103025363D01*
X215801363Y-103225241D01*
X215646000Y-103457759D01*
X215490637Y-103225241D01*
X215290759Y-103025363D01*
X215055727Y-102868320D01*
X214794574Y-102760147D01*
X214517335Y-102705000D01*
X214234665Y-102705000D01*
X213957426Y-102760147D01*
X213696273Y-102868320D01*
X213461241Y-103025363D01*
X213261363Y-103225241D01*
X213106000Y-103457759D01*
X212950637Y-103225241D01*
X212750759Y-103025363D01*
X212515727Y-102868320D01*
X212254574Y-102760147D01*
X211977335Y-102705000D01*
X211694665Y-102705000D01*
X211417426Y-102760147D01*
X211156273Y-102868320D01*
X210921241Y-103025363D01*
X210721363Y-103225241D01*
X210566000Y-103457759D01*
X210410637Y-103225241D01*
X210210759Y-103025363D01*
X209975727Y-102868320D01*
X209714574Y-102760147D01*
X209437335Y-102705000D01*
X209154665Y-102705000D01*
X208877426Y-102760147D01*
X208616273Y-102868320D01*
X208381241Y-103025363D01*
X208181363Y-103225241D01*
X208026000Y-103457759D01*
X207870637Y-103225241D01*
X207670759Y-103025363D01*
X207435727Y-102868320D01*
X207174574Y-102760147D01*
X206897335Y-102705000D01*
X206725801Y-102705000D01*
X207489296Y-101941505D01*
X228394640Y-101941505D01*
X228394640Y-102782495D01*
X228558709Y-103607326D01*
X228880542Y-104384300D01*
X229347771Y-105083559D01*
X229942441Y-105678229D01*
X230641700Y-106145458D01*
X231418674Y-106467291D01*
X232243505Y-106631360D01*
X233084495Y-106631360D01*
X233909326Y-106467291D01*
X234686300Y-106145458D01*
X235385559Y-105678229D01*
X235980229Y-105083559D01*
X236447458Y-104384300D01*
X236769291Y-103607326D01*
X236933360Y-102782495D01*
X236933360Y-101941505D01*
X236769291Y-101116674D01*
X236447458Y-100339700D01*
X235980229Y-99640441D01*
X235385559Y-99045771D01*
X234686300Y-98578542D01*
X233909326Y-98256709D01*
X233084495Y-98092640D01*
X232243505Y-98092640D01*
X231418674Y-98256709D01*
X230641700Y-98578542D01*
X229942441Y-99045771D01*
X229347771Y-99640441D01*
X228880542Y-100339700D01*
X228558709Y-101116674D01*
X228394640Y-101941505D01*
X207489296Y-101941505D01*
X211077004Y-98353798D01*
X211106001Y-98330001D01*
X211142930Y-98285003D01*
X211200974Y-98214277D01*
X211271546Y-98082247D01*
X211283148Y-98044000D01*
X211315003Y-97938986D01*
X211326000Y-97827333D01*
X211326000Y-97827323D01*
X211329676Y-97790000D01*
X211326000Y-97752677D01*
X211326000Y-90241983D01*
X211417426Y-90279853D01*
X211694665Y-90335000D01*
X211977335Y-90335000D01*
X212254574Y-90279853D01*
X212515727Y-90171680D01*
X212750759Y-90014637D01*
X212950637Y-89814759D01*
X213106000Y-89582241D01*
X213261363Y-89814759D01*
X213461241Y-90014637D01*
X213696273Y-90171680D01*
X213957426Y-90279853D01*
X214234665Y-90335000D01*
X214517335Y-90335000D01*
X214794574Y-90279853D01*
X215055727Y-90171680D01*
X215290759Y-90014637D01*
X215490637Y-89814759D01*
X215646000Y-89582241D01*
X215801363Y-89814759D01*
X216001241Y-90014637D01*
X216236273Y-90171680D01*
X216497426Y-90279853D01*
X216774665Y-90335000D01*
X217057335Y-90335000D01*
X217334574Y-90279853D01*
X217595727Y-90171680D01*
X217830759Y-90014637D01*
X218030637Y-89814759D01*
X218186000Y-89582241D01*
X218341363Y-89814759D01*
X218541241Y-90014637D01*
X218776273Y-90171680D01*
X219037426Y-90279853D01*
X219314665Y-90335000D01*
X219597335Y-90335000D01*
X219874574Y-90279853D01*
X220135727Y-90171680D01*
X220370759Y-90014637D01*
X220570637Y-89814759D01*
X220727680Y-89579727D01*
X220835853Y-89318574D01*
X220891000Y-89041335D01*
X220891000Y-88758665D01*
X220835853Y-88481426D01*
X220727680Y-88220273D01*
X220570637Y-87985241D01*
X220370759Y-87785363D01*
X220135727Y-87628320D01*
X219874574Y-87520147D01*
X219597335Y-87465000D01*
X219314665Y-87465000D01*
X219037426Y-87520147D01*
X218776273Y-87628320D01*
X218541241Y-87785363D01*
X218341363Y-87985241D01*
X218186000Y-88217759D01*
X218030637Y-87985241D01*
X217830759Y-87785363D01*
X217595727Y-87628320D01*
X217334574Y-87520147D01*
X217057335Y-87465000D01*
X216774665Y-87465000D01*
X216497426Y-87520147D01*
X216236273Y-87628320D01*
X216001241Y-87785363D01*
X215801363Y-87985241D01*
X215646000Y-88217759D01*
X215490637Y-87985241D01*
X215290759Y-87785363D01*
X215055727Y-87628320D01*
X214794574Y-87520147D01*
X214517335Y-87465000D01*
X214234665Y-87465000D01*
X213957426Y-87520147D01*
X213696273Y-87628320D01*
X213461241Y-87785363D01*
X213261363Y-87985241D01*
X213106000Y-88217759D01*
X212950637Y-87985241D01*
X212750759Y-87785363D01*
X212515727Y-87628320D01*
X212254574Y-87520147D01*
X211977335Y-87465000D01*
X211694665Y-87465000D01*
X211417426Y-87520147D01*
X211326000Y-87558017D01*
X211326000Y-82841323D01*
X211329676Y-82804000D01*
X211326000Y-82766677D01*
X211326000Y-82766667D01*
X211315003Y-82655014D01*
X211271546Y-82511753D01*
X211205915Y-82388967D01*
X211200974Y-82379723D01*
X211129799Y-82292997D01*
X211106001Y-82263999D01*
X211077003Y-82240201D01*
X208081808Y-79245007D01*
X208081799Y-79244996D01*
X205541804Y-76705003D01*
X205518001Y-76675999D01*
X205402276Y-76581026D01*
X205270247Y-76510454D01*
X205126986Y-76466997D01*
X205015333Y-76456000D01*
X205015322Y-76456000D01*
X204978000Y-76452324D01*
X204940678Y-76456000D01*
X169478802Y-76456000D01*
X166933804Y-73911003D01*
X166910001Y-73881999D01*
X166880997Y-73858196D01*
X166679804Y-73657003D01*
X166656001Y-73627999D01*
X166540276Y-73533026D01*
X166408247Y-73462454D01*
X166264986Y-73418997D01*
X166153333Y-73408000D01*
X166153322Y-73408000D01*
X166116000Y-73404324D01*
X166078678Y-73408000D01*
X164888072Y-73408000D01*
X164888072Y-73318000D01*
X164875812Y-73193518D01*
X164839502Y-73073820D01*
X164780537Y-72963506D01*
X164701185Y-72866815D01*
X164604494Y-72787463D01*
X164494180Y-72728498D01*
X164374482Y-72692188D01*
X164250000Y-72679928D01*
X162550000Y-72679928D01*
X162425518Y-72692188D01*
X162305820Y-72728498D01*
X162195506Y-72787463D01*
X162098815Y-72866815D01*
X162019463Y-72963506D01*
X161960498Y-73073820D01*
X161924188Y-73193518D01*
X161911928Y-73318000D01*
X161911928Y-73408000D01*
X161835325Y-73408000D01*
X161798000Y-73404324D01*
X161760675Y-73408000D01*
X161760667Y-73408000D01*
X161649014Y-73418997D01*
X161505753Y-73462454D01*
X161373724Y-73533026D01*
X161257999Y-73627999D01*
X161234201Y-73656998D01*
X160525002Y-74366197D01*
X160495999Y-74389999D01*
X160469738Y-74421999D01*
X160401026Y-74505724D01*
X160354763Y-74592276D01*
X160330454Y-74637754D01*
X160286997Y-74781015D01*
X160276000Y-74892668D01*
X160276000Y-74892678D01*
X160272324Y-74930000D01*
X160276000Y-74967323D01*
X160276001Y-78171197D01*
X159959199Y-78488000D01*
X159774178Y-78488000D01*
X159649475Y-78301368D01*
X159442632Y-78094525D01*
X159268240Y-77978000D01*
X159442632Y-77861475D01*
X159649475Y-77654632D01*
X159811990Y-77411411D01*
X159923932Y-77141158D01*
X159981000Y-76854260D01*
X159981000Y-76561740D01*
X159923932Y-76274842D01*
X159811990Y-76004589D01*
X159649475Y-75761368D01*
X159517620Y-75629513D01*
X159590180Y-75607502D01*
X159700494Y-75548537D01*
X159797185Y-75469185D01*
X159876537Y-75372494D01*
X159935502Y-75262180D01*
X159971812Y-75142482D01*
X159984072Y-75018000D01*
X159984072Y-73318000D01*
X159971812Y-73193518D01*
X159935502Y-73073820D01*
X159876537Y-72963506D01*
X159797185Y-72866815D01*
X159700494Y-72787463D01*
X159590180Y-72728498D01*
X159470482Y-72692188D01*
X159346000Y-72679928D01*
X157646000Y-72679928D01*
X157521518Y-72692188D01*
X157401820Y-72728498D01*
X157291506Y-72787463D01*
X157194815Y-72866815D01*
X157115463Y-72963506D01*
X157056498Y-73073820D01*
X157020188Y-73193518D01*
X157007928Y-73318000D01*
X157007928Y-73439954D01*
X156933753Y-73462454D01*
X156801724Y-73533026D01*
X156685999Y-73627999D01*
X156662201Y-73656998D01*
X155952998Y-74366201D01*
X155924000Y-74389999D01*
X155900202Y-74418997D01*
X155900201Y-74418998D01*
X155829026Y-74505724D01*
X155758454Y-74637754D01*
X155714998Y-74781015D01*
X155700324Y-74930000D01*
X155704001Y-74967332D01*
X155704000Y-80988677D01*
X155700324Y-81026000D01*
X155704000Y-81063322D01*
X155704000Y-81063332D01*
X155714997Y-81174985D01*
X155758281Y-81317676D01*
X155758454Y-81318246D01*
X155829026Y-81450276D01*
X155866817Y-81496324D01*
X155923999Y-81566001D01*
X155953002Y-81589804D01*
X156916200Y-82553002D01*
X156939999Y-82582001D01*
X156968997Y-82605799D01*
X157055723Y-82676974D01*
X157154188Y-82729605D01*
X157187753Y-82747546D01*
X157331014Y-82791003D01*
X157442667Y-82802000D01*
X157442677Y-82802000D01*
X157480000Y-82805676D01*
X157517322Y-82802000D01*
X164277199Y-82802000D01*
X164722198Y-83247000D01*
X164714514Y-83247000D01*
X164456595Y-83298304D01*
X164213641Y-83398939D01*
X163994987Y-83545038D01*
X163809038Y-83730987D01*
X163662939Y-83949641D01*
X163562304Y-84192595D01*
X163511000Y-84450514D01*
X163511000Y-84713486D01*
X163562304Y-84971405D01*
X163662939Y-85214359D01*
X163809038Y-85433013D01*
X163994987Y-85618962D01*
X164213641Y-85765061D01*
X164456595Y-85865696D01*
X164714514Y-85917000D01*
X164977486Y-85917000D01*
X165235405Y-85865696D01*
X165478359Y-85765061D01*
X165697013Y-85618962D01*
X165882962Y-85433013D01*
X166029061Y-85214359D01*
X166129696Y-84971405D01*
X166181000Y-84713486D01*
X166181000Y-84705803D01*
X166372001Y-84896804D01*
X166372000Y-90228289D01*
X166328063Y-90272226D01*
X166214795Y-90441744D01*
X166136774Y-90630102D01*
X166097000Y-90830061D01*
X166097000Y-91033939D01*
X166136774Y-91233898D01*
X166214795Y-91422256D01*
X166328063Y-91591774D01*
X166472226Y-91735937D01*
X166641744Y-91849205D01*
X166830102Y-91927226D01*
X167030061Y-91967000D01*
X167233939Y-91967000D01*
X167433898Y-91927226D01*
X167521000Y-91891147D01*
X167521001Y-115289441D01*
X167500450Y-115272575D01*
X167385793Y-115211290D01*
X167261383Y-115173550D01*
X167164419Y-115164000D01*
X167132000Y-115160807D01*
X167099581Y-115164000D01*
X153568000Y-115164000D01*
X153568000Y-101433505D01*
X153718640Y-101433505D01*
X153718640Y-102274495D01*
X153882709Y-103099326D01*
X154204542Y-103876300D01*
X154671771Y-104575559D01*
X155266441Y-105170229D01*
X155965700Y-105637458D01*
X156742674Y-105959291D01*
X157567505Y-106123360D01*
X158408495Y-106123360D01*
X159233326Y-105959291D01*
X160010300Y-105637458D01*
X160709559Y-105170229D01*
X161304229Y-104575559D01*
X161771458Y-103876300D01*
X162093291Y-103099326D01*
X162257360Y-102274495D01*
X162257360Y-101433505D01*
X162093291Y-100608674D01*
X161771458Y-99831700D01*
X161304229Y-99132441D01*
X160709559Y-98537771D01*
X160010300Y-98070542D01*
X159233326Y-97748709D01*
X158408495Y-97584640D01*
X157567505Y-97584640D01*
X156742674Y-97748709D01*
X155965700Y-98070542D01*
X155266441Y-98537771D01*
X154671771Y-99132441D01*
X154204542Y-99831700D01*
X153882709Y-100608674D01*
X153718640Y-101433505D01*
X153568000Y-101433505D01*
X153568000Y-93892000D01*
X159293928Y-93892000D01*
X159293928Y-95592000D01*
X159306188Y-95716482D01*
X159342498Y-95836180D01*
X159401463Y-95946494D01*
X159480815Y-96043185D01*
X159577506Y-96122537D01*
X159687820Y-96181502D01*
X159807518Y-96217812D01*
X159932000Y-96230072D01*
X161632000Y-96230072D01*
X161756482Y-96217812D01*
X161876180Y-96181502D01*
X161986494Y-96122537D01*
X162083185Y-96043185D01*
X162162537Y-95946494D01*
X162221502Y-95836180D01*
X162257812Y-95716482D01*
X162270072Y-95592000D01*
X162270072Y-93892000D01*
X162257812Y-93767518D01*
X162221502Y-93647820D01*
X162162537Y-93537506D01*
X162083185Y-93440815D01*
X161986494Y-93361463D01*
X161876180Y-93302498D01*
X161803620Y-93280487D01*
X161935475Y-93148632D01*
X162097990Y-92905411D01*
X162209932Y-92635158D01*
X162267000Y-92348260D01*
X162267000Y-92055740D01*
X162209932Y-91768842D01*
X162097990Y-91498589D01*
X161935475Y-91255368D01*
X161728632Y-91048525D01*
X161554240Y-90932000D01*
X161728632Y-90815475D01*
X161935475Y-90608632D01*
X162097990Y-90365411D01*
X162209932Y-90095158D01*
X162267000Y-89808260D01*
X162267000Y-89515740D01*
X162209932Y-89228842D01*
X162097990Y-88958589D01*
X161935475Y-88715368D01*
X161728632Y-88508525D01*
X161485411Y-88346010D01*
X161215158Y-88234068D01*
X160928260Y-88177000D01*
X160635740Y-88177000D01*
X160348842Y-88234068D01*
X160078589Y-88346010D01*
X159835368Y-88508525D01*
X159628525Y-88715368D01*
X159466010Y-88958589D01*
X159354068Y-89228842D01*
X159297000Y-89515740D01*
X159297000Y-89808260D01*
X159354068Y-90095158D01*
X159466010Y-90365411D01*
X159628525Y-90608632D01*
X159835368Y-90815475D01*
X160009760Y-90932000D01*
X159835368Y-91048525D01*
X159628525Y-91255368D01*
X159466010Y-91498589D01*
X159354068Y-91768842D01*
X159297000Y-92055740D01*
X159297000Y-92348260D01*
X159354068Y-92635158D01*
X159466010Y-92905411D01*
X159628525Y-93148632D01*
X159760380Y-93280487D01*
X159687820Y-93302498D01*
X159577506Y-93361463D01*
X159480815Y-93440815D01*
X159401463Y-93537506D01*
X159342498Y-93647820D01*
X159306188Y-93767518D01*
X159293928Y-93892000D01*
X153568000Y-93892000D01*
X153568000Y-84450514D01*
X155891000Y-84450514D01*
X155891000Y-84713486D01*
X155942304Y-84971405D01*
X156042939Y-85214359D01*
X156189038Y-85433013D01*
X156374987Y-85618962D01*
X156593641Y-85765061D01*
X156836595Y-85865696D01*
X157094514Y-85917000D01*
X157357486Y-85917000D01*
X157615405Y-85865696D01*
X157858359Y-85765061D01*
X158077013Y-85618962D01*
X158262962Y-85433013D01*
X158409061Y-85214359D01*
X158509696Y-84971405D01*
X158561000Y-84713486D01*
X158561000Y-84450514D01*
X158509696Y-84192595D01*
X158409061Y-83949641D01*
X158262962Y-83730987D01*
X158077013Y-83545038D01*
X157858359Y-83398939D01*
X157615405Y-83298304D01*
X157357486Y-83247000D01*
X157094514Y-83247000D01*
X156836595Y-83298304D01*
X156593641Y-83398939D01*
X156374987Y-83545038D01*
X156189038Y-83730987D01*
X156042939Y-83949641D01*
X155942304Y-84192595D01*
X155891000Y-84450514D01*
X153568000Y-84450514D01*
X153568000Y-66700000D01*
X237084000Y-66700000D01*
X237084001Y-115164000D01*
G37*
%TD.AperFunction*%
D23*
X168346200Y-78489002D02*
X168369999Y-78518001D01*
X168485724Y-78612974D01*
X168617753Y-78683546D01*
X168761014Y-78727003D01*
X168872667Y-78738000D01*
X168872676Y-78738000D01*
X168909999Y-78741676D01*
X168947322Y-78738000D01*
X203139199Y-78738000D01*
X207121002Y-82719804D01*
X207121002Y-87509491D01*
X206897335Y-87465000D01*
X206614665Y-87465000D01*
X206337426Y-87520147D01*
X206246000Y-87558017D01*
X206246000Y-86905322D01*
X206249676Y-86867999D01*
X206246000Y-86830676D01*
X206246000Y-86830667D01*
X206235003Y-86719014D01*
X206191546Y-86575753D01*
X206120974Y-86443724D01*
X206107811Y-86427685D01*
X206049799Y-86356996D01*
X206049795Y-86356992D01*
X206026001Y-86327999D01*
X205997008Y-86304205D01*
X204329793Y-84636992D01*
X204329789Y-84636987D01*
X204017803Y-84325002D01*
X203994001Y-84295999D01*
X203878276Y-84201026D01*
X203746247Y-84130454D01*
X203602986Y-84086997D01*
X203491333Y-84076000D01*
X203491322Y-84076000D01*
X203454000Y-84072324D01*
X203416678Y-84076000D01*
X182567711Y-84076000D01*
X182523774Y-84032063D01*
X182354256Y-83918795D01*
X182165898Y-83840774D01*
X181965939Y-83801000D01*
X181762061Y-83801000D01*
X181562102Y-83840774D01*
X181373744Y-83918795D01*
X181204226Y-84032063D01*
X181060063Y-84176226D01*
X180946795Y-84345744D01*
X180868774Y-84534102D01*
X180829000Y-84734061D01*
X180829000Y-84937939D01*
X180868774Y-85137898D01*
X180946795Y-85326256D01*
X181060063Y-85495774D01*
X181204226Y-85639937D01*
X181373744Y-85753205D01*
X181562102Y-85831226D01*
X181762061Y-85871000D01*
X181965939Y-85871000D01*
X182165898Y-85831226D01*
X182354256Y-85753205D01*
X182523774Y-85639937D01*
X182567711Y-85596000D01*
X183839198Y-85596000D01*
X182114998Y-87320201D01*
X182086000Y-87343999D01*
X182062202Y-87372997D01*
X182062201Y-87372998D01*
X181991026Y-87459724D01*
X181920454Y-87591754D01*
X181897251Y-87668247D01*
X181876998Y-87735014D01*
X181872667Y-87778985D01*
X181862324Y-87884000D01*
X181866001Y-87921332D01*
X181866000Y-95697198D01*
X181013000Y-96550198D01*
X181013000Y-96378665D01*
X180957853Y-96101426D01*
X180849680Y-95840273D01*
X180692637Y-95605241D01*
X180492759Y-95405363D01*
X180257727Y-95248320D01*
X180247135Y-95243933D01*
X180433131Y-95132385D01*
X180641519Y-94943414D01*
X180809037Y-94717420D01*
X180929246Y-94463087D01*
X180969904Y-94329039D01*
X180847915Y-94107000D01*
X179705000Y-94107000D01*
X179705000Y-94127000D01*
X179451000Y-94127000D01*
X179451000Y-94107000D01*
X178308085Y-94107000D01*
X178186096Y-94329039D01*
X178226754Y-94463087D01*
X178346963Y-94717420D01*
X178514481Y-94943414D01*
X178722869Y-95132385D01*
X178908865Y-95243933D01*
X178898273Y-95248320D01*
X178663241Y-95405363D01*
X178463363Y-95605241D01*
X178306320Y-95840273D01*
X178198147Y-96101426D01*
X178143000Y-96378665D01*
X178143000Y-96661335D01*
X178198147Y-96938574D01*
X178306320Y-97199727D01*
X178463363Y-97434759D01*
X178663241Y-97634637D01*
X178895759Y-97790000D01*
X178663241Y-97945363D01*
X178463363Y-98145241D01*
X178306320Y-98380273D01*
X178198147Y-98641426D01*
X178143000Y-98918665D01*
X178143000Y-99201335D01*
X178198147Y-99478574D01*
X178306320Y-99739727D01*
X178463363Y-99974759D01*
X178663241Y-100174637D01*
X178895759Y-100330000D01*
X178663241Y-100485363D01*
X178463363Y-100685241D01*
X178359957Y-100840000D01*
X177352802Y-100840000D01*
X176528000Y-100015199D01*
X176528000Y-93001322D01*
X176531676Y-92963999D01*
X176528000Y-92926676D01*
X176528000Y-92926667D01*
X176517003Y-92815014D01*
X176473546Y-92671753D01*
X176402974Y-92539724D01*
X176344930Y-92468997D01*
X176331799Y-92452996D01*
X176331795Y-92452992D01*
X176308001Y-92423999D01*
X176279009Y-92400206D01*
X175667842Y-91789039D01*
X178186096Y-91789039D01*
X178226754Y-91923087D01*
X178346963Y-92177420D01*
X178514481Y-92403414D01*
X178722869Y-92592385D01*
X178918982Y-92710000D01*
X178722869Y-92827615D01*
X178514481Y-93016586D01*
X178346963Y-93242580D01*
X178226754Y-93496913D01*
X178186096Y-93630961D01*
X178308085Y-93853000D01*
X179451000Y-93853000D01*
X179451000Y-91567000D01*
X179705000Y-91567000D01*
X179705000Y-93853000D01*
X180847915Y-93853000D01*
X180969904Y-93630961D01*
X180929246Y-93496913D01*
X180809037Y-93242580D01*
X180641519Y-93016586D01*
X180433131Y-92827615D01*
X180237018Y-92710000D01*
X180433131Y-92592385D01*
X180641519Y-92403414D01*
X180809037Y-92177420D01*
X180929246Y-91923087D01*
X180969904Y-91789039D01*
X180847915Y-91567000D01*
X179705000Y-91567000D01*
X179451000Y-91567000D01*
X178308085Y-91567000D01*
X178186096Y-91789039D01*
X175667842Y-91789039D01*
X174807803Y-90929002D01*
X174784001Y-90899999D01*
X174668276Y-90805026D01*
X174536247Y-90734454D01*
X174392986Y-90690997D01*
X174281333Y-90680000D01*
X174281322Y-90680000D01*
X174244000Y-90676324D01*
X174206678Y-90680000D01*
X173176043Y-90680000D01*
X173072637Y-90525241D01*
X172874039Y-90326643D01*
X172882482Y-90325812D01*
X173002180Y-90289502D01*
X173112494Y-90230537D01*
X173209185Y-90151185D01*
X173288537Y-90054494D01*
X173347502Y-89944180D01*
X173383812Y-89824482D01*
X173396072Y-89700000D01*
X173396072Y-88758665D01*
X178143000Y-88758665D01*
X178143000Y-89041335D01*
X178198147Y-89318574D01*
X178306320Y-89579727D01*
X178463363Y-89814759D01*
X178663241Y-90014637D01*
X178898273Y-90171680D01*
X178908865Y-90176067D01*
X178722869Y-90287615D01*
X178514481Y-90476586D01*
X178346963Y-90702580D01*
X178226754Y-90956913D01*
X178186096Y-91090961D01*
X178308085Y-91313000D01*
X179451000Y-91313000D01*
X179451000Y-91293000D01*
X179705000Y-91293000D01*
X179705000Y-91313000D01*
X180847915Y-91313000D01*
X180969904Y-91090961D01*
X180929246Y-90956913D01*
X180809037Y-90702580D01*
X180641519Y-90476586D01*
X180433131Y-90287615D01*
X180247135Y-90176067D01*
X180257727Y-90171680D01*
X180492759Y-90014637D01*
X180692637Y-89814759D01*
X180849680Y-89579727D01*
X180957853Y-89318574D01*
X181013000Y-89041335D01*
X181013000Y-88758665D01*
X180957853Y-88481426D01*
X180849680Y-88220273D01*
X180692637Y-87985241D01*
X180492759Y-87785363D01*
X180257727Y-87628320D01*
X179996574Y-87520147D01*
X179719335Y-87465000D01*
X179436665Y-87465000D01*
X179159426Y-87520147D01*
X178898273Y-87628320D01*
X178663241Y-87785363D01*
X178463363Y-87985241D01*
X178306320Y-88220273D01*
X178198147Y-88481426D01*
X178143000Y-88758665D01*
X173396072Y-88758665D01*
X173396072Y-88100000D01*
X173383812Y-87975518D01*
X173347502Y-87855820D01*
X173288537Y-87745506D01*
X173209185Y-87648815D01*
X173112494Y-87569463D01*
X173002180Y-87510498D01*
X172882482Y-87474188D01*
X172758000Y-87461928D01*
X171158000Y-87461928D01*
X171033518Y-87474188D01*
X170913820Y-87510498D01*
X170803506Y-87569463D01*
X170706815Y-87648815D01*
X170627463Y-87745506D01*
X170568498Y-87855820D01*
X170532188Y-87975518D01*
X170519928Y-88100000D01*
X170519928Y-89700000D01*
X170532188Y-89824482D01*
X170568498Y-89944180D01*
X170627463Y-90054494D01*
X170706815Y-90151185D01*
X170803506Y-90230537D01*
X170913820Y-90289502D01*
X171033518Y-90325812D01*
X171041961Y-90326643D01*
X170843363Y-90525241D01*
X170686320Y-90760273D01*
X170578147Y-91021426D01*
X170523000Y-91298665D01*
X170523000Y-91581335D01*
X170578147Y-91858574D01*
X170686320Y-92119727D01*
X170843363Y-92354759D01*
X171043241Y-92554637D01*
X171275759Y-92710000D01*
X171043241Y-92865363D01*
X170843363Y-93065241D01*
X170686320Y-93300273D01*
X170578147Y-93561426D01*
X170523000Y-93838665D01*
X170523000Y-94121335D01*
X170578147Y-94398574D01*
X170686320Y-94659727D01*
X170843363Y-94894759D01*
X171043241Y-95094637D01*
X171275759Y-95250000D01*
X171043241Y-95405363D01*
X170843363Y-95605241D01*
X170686320Y-95840273D01*
X170578147Y-96101426D01*
X170523000Y-96378665D01*
X170523000Y-96661335D01*
X170578147Y-96938574D01*
X170686320Y-97199727D01*
X170843363Y-97434759D01*
X171043241Y-97634637D01*
X171275759Y-97790000D01*
X171043241Y-97945363D01*
X170843363Y-98145241D01*
X170686320Y-98380273D01*
X170578147Y-98641426D01*
X170523000Y-98918665D01*
X170523000Y-99201335D01*
X170578147Y-99478574D01*
X170686320Y-99739727D01*
X170843363Y-99974759D01*
X171043241Y-100174637D01*
X171275759Y-100330000D01*
X171043241Y-100485363D01*
X170843363Y-100685241D01*
X170686320Y-100920273D01*
X170578147Y-101181426D01*
X170523000Y-101458665D01*
X170523000Y-101741335D01*
X170578147Y-102018574D01*
X170686320Y-102279727D01*
X170843363Y-102514759D01*
X171043241Y-102714637D01*
X171278273Y-102871680D01*
X171288865Y-102876067D01*
X171102869Y-102987615D01*
X170894481Y-103176586D01*
X170726963Y-103402580D01*
X170606754Y-103656913D01*
X170566096Y-103790961D01*
X170688085Y-104013000D01*
X171831000Y-104013000D01*
X171831000Y-103993000D01*
X172085000Y-103993000D01*
X172085000Y-104013000D01*
X173227915Y-104013000D01*
X173349904Y-103790961D01*
X173309246Y-103656913D01*
X173189037Y-103402580D01*
X173021519Y-103176586D01*
X172813131Y-102987615D01*
X172627135Y-102876067D01*
X172637727Y-102871680D01*
X172872759Y-102714637D01*
X173072637Y-102514759D01*
X173229680Y-102279727D01*
X173337853Y-102018574D01*
X173393000Y-101741335D01*
X173393000Y-101458665D01*
X173337853Y-101181426D01*
X173229680Y-100920273D01*
X173072637Y-100685241D01*
X172872759Y-100485363D01*
X172640241Y-100330000D01*
X172872759Y-100174637D01*
X173072637Y-99974759D01*
X173229680Y-99739727D01*
X173337853Y-99478574D01*
X173393000Y-99201335D01*
X173393000Y-98918665D01*
X173337853Y-98641426D01*
X173229680Y-98380273D01*
X173072637Y-98145241D01*
X172872759Y-97945363D01*
X172640241Y-97790000D01*
X172872759Y-97634637D01*
X173072637Y-97434759D01*
X173229680Y-97199727D01*
X173337853Y-96938574D01*
X173393000Y-96661335D01*
X173393000Y-96378665D01*
X173337853Y-96101426D01*
X173229680Y-95840273D01*
X173072637Y-95605241D01*
X172872759Y-95405363D01*
X172640241Y-95250000D01*
X172872759Y-95094637D01*
X173072637Y-94894759D01*
X173229680Y-94659727D01*
X173337853Y-94398574D01*
X173393000Y-94121335D01*
X173393000Y-93838665D01*
X173337853Y-93561426D01*
X173229680Y-93300273D01*
X173072637Y-93065241D01*
X172872759Y-92865363D01*
X172640241Y-92710000D01*
X172872759Y-92554637D01*
X173072637Y-92354759D01*
X173176043Y-92200000D01*
X173929199Y-92200000D01*
X175008000Y-93278803D01*
X175008001Y-100292667D01*
X175004324Y-100330000D01*
X175008001Y-100367333D01*
X175018998Y-100478986D01*
X175032180Y-100522442D01*
X175062454Y-100622246D01*
X175133026Y-100754276D01*
X175191070Y-100825002D01*
X175228000Y-100870001D01*
X175256998Y-100893799D01*
X176474201Y-102111003D01*
X176497999Y-102140001D01*
X176613724Y-102234974D01*
X176745753Y-102305546D01*
X176889014Y-102349003D01*
X177000667Y-102360000D01*
X177000676Y-102360000D01*
X177037999Y-102363676D01*
X177075322Y-102360000D01*
X178359957Y-102360000D01*
X178463363Y-102514759D01*
X178663241Y-102714637D01*
X178895759Y-102870000D01*
X178663241Y-103025363D01*
X178463363Y-103225241D01*
X178306320Y-103460273D01*
X178198147Y-103721426D01*
X178143000Y-103998665D01*
X178143000Y-104281335D01*
X178198147Y-104558574D01*
X178306320Y-104819727D01*
X178463363Y-105054759D01*
X178663241Y-105254637D01*
X178898273Y-105411680D01*
X179159426Y-105519853D01*
X179436665Y-105575000D01*
X179719335Y-105575000D01*
X179996574Y-105519853D01*
X180257727Y-105411680D01*
X180492759Y-105254637D01*
X180692637Y-105054759D01*
X180849680Y-104819727D01*
X180930718Y-104624083D01*
X181104001Y-104450801D01*
X181104001Y-106873197D01*
X180787199Y-107190000D01*
X178249711Y-107190000D01*
X178205774Y-107146063D01*
X178036256Y-107032795D01*
X177847898Y-106954774D01*
X177647939Y-106915000D01*
X177444061Y-106915000D01*
X177244102Y-106954774D01*
X177055744Y-107032795D01*
X176886226Y-107146063D01*
X176742063Y-107290226D01*
X176628795Y-107459744D01*
X176550774Y-107648102D01*
X176511000Y-107848061D01*
X176511000Y-108051939D01*
X176550774Y-108251898D01*
X176628795Y-108440256D01*
X176742063Y-108609774D01*
X176886226Y-108753937D01*
X177055744Y-108867205D01*
X177244102Y-108945226D01*
X177444061Y-108985000D01*
X177647939Y-108985000D01*
X177847898Y-108945226D01*
X178036256Y-108867205D01*
X178205774Y-108753937D01*
X178249711Y-108710000D01*
X180791198Y-108710000D01*
X178304998Y-111196201D01*
X178276000Y-111219999D01*
X178252202Y-111248997D01*
X178252201Y-111248998D01*
X178181026Y-111335724D01*
X178110454Y-111467754D01*
X178066998Y-111611015D01*
X178052324Y-111760000D01*
X178056001Y-111797332D01*
X178056000Y-114262666D01*
X178056000Y-114591332D01*
X178056001Y-114591342D01*
X178056001Y-115697000D01*
X176715802Y-115697000D01*
X172104000Y-111085199D01*
X172104000Y-111023061D01*
X172064226Y-110823102D01*
X171986205Y-110634744D01*
X171872937Y-110465226D01*
X171728774Y-110321063D01*
X171559256Y-110207795D01*
X171370898Y-110129774D01*
X171170939Y-110090000D01*
X170967061Y-110090000D01*
X170767102Y-110129774D01*
X170578744Y-110207795D01*
X170409226Y-110321063D01*
X170265063Y-110465226D01*
X170151795Y-110634744D01*
X170073774Y-110823102D01*
X170034000Y-111023061D01*
X170034000Y-111226939D01*
X170073774Y-111426898D01*
X170151795Y-111615256D01*
X170265063Y-111784774D01*
X170409226Y-111928937D01*
X170578744Y-112042205D01*
X170767102Y-112120226D01*
X170967061Y-112160000D01*
X171029199Y-112160000D01*
X174566198Y-115697000D01*
X171956000Y-115697000D01*
X171956000Y-115003711D01*
X171999937Y-114959774D01*
X172113205Y-114790256D01*
X172191226Y-114601898D01*
X172231000Y-114401939D01*
X172231000Y-114198061D01*
X172191226Y-113998102D01*
X172113205Y-113809744D01*
X171999937Y-113640226D01*
X171855774Y-113496063D01*
X171686256Y-113382795D01*
X171497898Y-113304774D01*
X171297939Y-113265000D01*
X171094061Y-113265000D01*
X170894102Y-113304774D01*
X170705744Y-113382795D01*
X170536226Y-113496063D01*
X170392063Y-113640226D01*
X170278795Y-113809744D01*
X170200774Y-113998102D01*
X170161000Y-114198061D01*
X170161000Y-114401939D01*
X170200774Y-114601898D01*
X170278795Y-114790256D01*
X170392063Y-114959774D01*
X170436001Y-115003712D01*
X170436000Y-115697000D01*
X169791000Y-115697000D01*
X169791000Y-104489039D01*
X170566096Y-104489039D01*
X170606754Y-104623087D01*
X170726963Y-104877420D01*
X170894481Y-105103414D01*
X171102869Y-105292385D01*
X171344119Y-105437070D01*
X171608960Y-105531909D01*
X171831000Y-105410624D01*
X171831000Y-104267000D01*
X172085000Y-104267000D01*
X172085000Y-105410624D01*
X172307040Y-105531909D01*
X172571881Y-105437070D01*
X172813131Y-105292385D01*
X173021519Y-105103414D01*
X173189037Y-104877420D01*
X173309246Y-104623087D01*
X173349904Y-104489039D01*
X173227915Y-104267000D01*
X172085000Y-104267000D01*
X171831000Y-104267000D01*
X170688085Y-104267000D01*
X170566096Y-104489039D01*
X169791000Y-104489039D01*
X169791000Y-85052131D01*
X171158132Y-83685000D01*
X172304761Y-83685000D01*
X172439748Y-83819987D01*
X172707537Y-83998918D01*
X173005088Y-84122168D01*
X173320967Y-84185000D01*
X173643033Y-84185000D01*
X173958912Y-84122168D01*
X174256463Y-83998918D01*
X174524252Y-83819987D01*
X174658826Y-83685413D01*
X177526192Y-83685413D01*
X177621956Y-83949814D01*
X177911571Y-84090704D01*
X178223108Y-84172384D01*
X178544595Y-84191718D01*
X178863675Y-84147961D01*
X179168088Y-84042795D01*
X179342044Y-83949814D01*
X179437808Y-83685413D01*
X178482000Y-82729605D01*
X177526192Y-83685413D01*
X174658826Y-83685413D01*
X174751987Y-83592252D01*
X174930918Y-83324463D01*
X175054168Y-83026912D01*
X175117000Y-82711033D01*
X175117000Y-82612595D01*
X176840282Y-82612595D01*
X176884039Y-82931675D01*
X176989205Y-83236088D01*
X177082186Y-83410044D01*
X177346587Y-83505808D01*
X178302395Y-82550000D01*
X178661605Y-82550000D01*
X179617413Y-83505808D01*
X179881814Y-83410044D01*
X180022704Y-83120429D01*
X180104384Y-82808892D01*
X180123718Y-82487405D01*
X180079961Y-82168325D01*
X179974795Y-81863912D01*
X179913909Y-81750000D01*
X189315928Y-81750000D01*
X189315928Y-83350000D01*
X189328188Y-83474482D01*
X189364498Y-83594180D01*
X189423463Y-83704494D01*
X189502815Y-83801185D01*
X189599506Y-83880537D01*
X189709820Y-83939502D01*
X189829518Y-83975812D01*
X189954000Y-83988072D01*
X191554000Y-83988072D01*
X191678482Y-83975812D01*
X191798180Y-83939502D01*
X191908494Y-83880537D01*
X192005185Y-83801185D01*
X192084537Y-83704494D01*
X192143502Y-83594180D01*
X192159117Y-83542702D01*
X192440903Y-83542702D01*
X192512486Y-83786671D01*
X192767996Y-83907571D01*
X193042184Y-83976300D01*
X193324512Y-83990217D01*
X193604130Y-83948787D01*
X193870292Y-83853603D01*
X193995514Y-83786671D01*
X194067097Y-83542702D01*
X193254000Y-82729605D01*
X192440903Y-83542702D01*
X192159117Y-83542702D01*
X192179812Y-83474482D01*
X192192072Y-83350000D01*
X192192072Y-83342785D01*
X192261298Y-83363097D01*
X193074395Y-82550000D01*
X193433605Y-82550000D01*
X194246702Y-83363097D01*
X194490671Y-83291514D01*
X194611571Y-83036004D01*
X194680300Y-82761816D01*
X194694217Y-82479488D01*
X194652787Y-82199870D01*
X194557603Y-81933708D01*
X194490671Y-81808486D01*
X194246702Y-81736903D01*
X193433605Y-82550000D01*
X193074395Y-82550000D01*
X192261298Y-81736903D01*
X192192072Y-81757215D01*
X192192072Y-81750000D01*
X192179812Y-81625518D01*
X192159118Y-81557298D01*
X192440903Y-81557298D01*
X193254000Y-82370395D01*
X194067097Y-81557298D01*
X193995514Y-81313329D01*
X193740004Y-81192429D01*
X193465816Y-81123700D01*
X193183488Y-81109783D01*
X192903870Y-81151213D01*
X192637708Y-81246397D01*
X192512486Y-81313329D01*
X192440903Y-81557298D01*
X192159118Y-81557298D01*
X192143502Y-81505820D01*
X192084537Y-81395506D01*
X192005185Y-81298815D01*
X191908494Y-81219463D01*
X191798180Y-81160498D01*
X191678482Y-81124188D01*
X191554000Y-81111928D01*
X189954000Y-81111928D01*
X189829518Y-81124188D01*
X189709820Y-81160498D01*
X189599506Y-81219463D01*
X189502815Y-81298815D01*
X189423463Y-81395506D01*
X189364498Y-81505820D01*
X189328188Y-81625518D01*
X189315928Y-81750000D01*
X179913909Y-81750000D01*
X179881814Y-81689956D01*
X179617413Y-81594192D01*
X178661605Y-82550000D01*
X178302395Y-82550000D01*
X177346587Y-81594192D01*
X177082186Y-81689956D01*
X176941296Y-81979571D01*
X176859616Y-82291108D01*
X176840282Y-82612595D01*
X175117000Y-82612595D01*
X175117000Y-82388967D01*
X175054168Y-82073088D01*
X174930918Y-81775537D01*
X174751987Y-81507748D01*
X174658826Y-81414587D01*
X177526192Y-81414587D01*
X178482000Y-82370395D01*
X179437808Y-81414587D01*
X179342044Y-81150186D01*
X179052429Y-81009296D01*
X178740892Y-80927616D01*
X178419405Y-80908282D01*
X178100325Y-80952039D01*
X177795912Y-81057205D01*
X177621956Y-81150186D01*
X177526192Y-81414587D01*
X174658826Y-81414587D01*
X174524252Y-81280013D01*
X174256463Y-81101082D01*
X173958912Y-80977832D01*
X173643033Y-80915000D01*
X173320967Y-80915000D01*
X173005088Y-80977832D01*
X172707537Y-81101082D01*
X172439748Y-81280013D01*
X172304761Y-81415000D01*
X170743751Y-81415000D01*
X170688000Y-81409509D01*
X170632248Y-81415000D01*
X170465501Y-81431423D01*
X170251553Y-81496324D01*
X170054377Y-81601716D01*
X169881551Y-81743551D01*
X169846009Y-81786859D01*
X168656000Y-82976868D01*
X167505000Y-81825869D01*
X167505000Y-80319751D01*
X167510491Y-80264000D01*
X167488577Y-80041501D01*
X167423676Y-79827553D01*
X167361672Y-79711551D01*
X167318284Y-79630377D01*
X167176449Y-79457551D01*
X167133140Y-79422008D01*
X166195996Y-78484864D01*
X166160449Y-78441551D01*
X165987623Y-78299716D01*
X165790447Y-78194324D01*
X165576499Y-78129423D01*
X165409752Y-78113000D01*
X165409751Y-78113000D01*
X165354000Y-78107509D01*
X165298249Y-78113000D01*
X164365107Y-78113000D01*
X164346632Y-78094525D01*
X164172240Y-77978000D01*
X164346632Y-77861475D01*
X164553475Y-77654632D01*
X164678178Y-77468000D01*
X167325199Y-77468000D01*
X168346200Y-78489002D01*
%TA.AperFunction,Conductor*%
D24*
G36*
X168346200Y-78489002D02*
G01*
X168369999Y-78518001D01*
X168485724Y-78612974D01*
X168617753Y-78683546D01*
X168761014Y-78727003D01*
X168872667Y-78738000D01*
X168872676Y-78738000D01*
X168909999Y-78741676D01*
X168947322Y-78738000D01*
X203139199Y-78738000D01*
X207121002Y-82719804D01*
X207121002Y-87509491D01*
X206897335Y-87465000D01*
X206614665Y-87465000D01*
X206337426Y-87520147D01*
X206246000Y-87558017D01*
X206246000Y-86905322D01*
X206249676Y-86867999D01*
X206246000Y-86830676D01*
X206246000Y-86830667D01*
X206235003Y-86719014D01*
X206191546Y-86575753D01*
X206120974Y-86443724D01*
X206107811Y-86427685D01*
X206049799Y-86356996D01*
X206049795Y-86356992D01*
X206026001Y-86327999D01*
X205997008Y-86304205D01*
X204329793Y-84636992D01*
X204329789Y-84636987D01*
X204017803Y-84325002D01*
X203994001Y-84295999D01*
X203878276Y-84201026D01*
X203746247Y-84130454D01*
X203602986Y-84086997D01*
X203491333Y-84076000D01*
X203491322Y-84076000D01*
X203454000Y-84072324D01*
X203416678Y-84076000D01*
X182567711Y-84076000D01*
X182523774Y-84032063D01*
X182354256Y-83918795D01*
X182165898Y-83840774D01*
X181965939Y-83801000D01*
X181762061Y-83801000D01*
X181562102Y-83840774D01*
X181373744Y-83918795D01*
X181204226Y-84032063D01*
X181060063Y-84176226D01*
X180946795Y-84345744D01*
X180868774Y-84534102D01*
X180829000Y-84734061D01*
X180829000Y-84937939D01*
X180868774Y-85137898D01*
X180946795Y-85326256D01*
X181060063Y-85495774D01*
X181204226Y-85639937D01*
X181373744Y-85753205D01*
X181562102Y-85831226D01*
X181762061Y-85871000D01*
X181965939Y-85871000D01*
X182165898Y-85831226D01*
X182354256Y-85753205D01*
X182523774Y-85639937D01*
X182567711Y-85596000D01*
X183839198Y-85596000D01*
X182114998Y-87320201D01*
X182086000Y-87343999D01*
X182062202Y-87372997D01*
X182062201Y-87372998D01*
X181991026Y-87459724D01*
X181920454Y-87591754D01*
X181897251Y-87668247D01*
X181876998Y-87735014D01*
X181872667Y-87778985D01*
X181862324Y-87884000D01*
X181866001Y-87921332D01*
X181866000Y-95697198D01*
X181013000Y-96550198D01*
X181013000Y-96378665D01*
X180957853Y-96101426D01*
X180849680Y-95840273D01*
X180692637Y-95605241D01*
X180492759Y-95405363D01*
X180257727Y-95248320D01*
X180247135Y-95243933D01*
X180433131Y-95132385D01*
X180641519Y-94943414D01*
X180809037Y-94717420D01*
X180929246Y-94463087D01*
X180969904Y-94329039D01*
X180847915Y-94107000D01*
X179705000Y-94107000D01*
X179705000Y-94127000D01*
X179451000Y-94127000D01*
X179451000Y-94107000D01*
X178308085Y-94107000D01*
X178186096Y-94329039D01*
X178226754Y-94463087D01*
X178346963Y-94717420D01*
X178514481Y-94943414D01*
X178722869Y-95132385D01*
X178908865Y-95243933D01*
X178898273Y-95248320D01*
X178663241Y-95405363D01*
X178463363Y-95605241D01*
X178306320Y-95840273D01*
X178198147Y-96101426D01*
X178143000Y-96378665D01*
X178143000Y-96661335D01*
X178198147Y-96938574D01*
X178306320Y-97199727D01*
X178463363Y-97434759D01*
X178663241Y-97634637D01*
X178895759Y-97790000D01*
X178663241Y-97945363D01*
X178463363Y-98145241D01*
X178306320Y-98380273D01*
X178198147Y-98641426D01*
X178143000Y-98918665D01*
X178143000Y-99201335D01*
X178198147Y-99478574D01*
X178306320Y-99739727D01*
X178463363Y-99974759D01*
X178663241Y-100174637D01*
X178895759Y-100330000D01*
X178663241Y-100485363D01*
X178463363Y-100685241D01*
X178359957Y-100840000D01*
X177352802Y-100840000D01*
X176528000Y-100015199D01*
X176528000Y-93001322D01*
X176531676Y-92963999D01*
X176528000Y-92926676D01*
X176528000Y-92926667D01*
X176517003Y-92815014D01*
X176473546Y-92671753D01*
X176402974Y-92539724D01*
X176344930Y-92468997D01*
X176331799Y-92452996D01*
X176331795Y-92452992D01*
X176308001Y-92423999D01*
X176279009Y-92400206D01*
X175667842Y-91789039D01*
X178186096Y-91789039D01*
X178226754Y-91923087D01*
X178346963Y-92177420D01*
X178514481Y-92403414D01*
X178722869Y-92592385D01*
X178918982Y-92710000D01*
X178722869Y-92827615D01*
X178514481Y-93016586D01*
X178346963Y-93242580D01*
X178226754Y-93496913D01*
X178186096Y-93630961D01*
X178308085Y-93853000D01*
X179451000Y-93853000D01*
X179451000Y-91567000D01*
X179705000Y-91567000D01*
X179705000Y-93853000D01*
X180847915Y-93853000D01*
X180969904Y-93630961D01*
X180929246Y-93496913D01*
X180809037Y-93242580D01*
X180641519Y-93016586D01*
X180433131Y-92827615D01*
X180237018Y-92710000D01*
X180433131Y-92592385D01*
X180641519Y-92403414D01*
X180809037Y-92177420D01*
X180929246Y-91923087D01*
X180969904Y-91789039D01*
X180847915Y-91567000D01*
X179705000Y-91567000D01*
X179451000Y-91567000D01*
X178308085Y-91567000D01*
X178186096Y-91789039D01*
X175667842Y-91789039D01*
X174807803Y-90929002D01*
X174784001Y-90899999D01*
X174668276Y-90805026D01*
X174536247Y-90734454D01*
X174392986Y-90690997D01*
X174281333Y-90680000D01*
X174281322Y-90680000D01*
X174244000Y-90676324D01*
X174206678Y-90680000D01*
X173176043Y-90680000D01*
X173072637Y-90525241D01*
X172874039Y-90326643D01*
X172882482Y-90325812D01*
X173002180Y-90289502D01*
X173112494Y-90230537D01*
X173209185Y-90151185D01*
X173288537Y-90054494D01*
X173347502Y-89944180D01*
X173383812Y-89824482D01*
X173396072Y-89700000D01*
X173396072Y-88758665D01*
X178143000Y-88758665D01*
X178143000Y-89041335D01*
X178198147Y-89318574D01*
X178306320Y-89579727D01*
X178463363Y-89814759D01*
X178663241Y-90014637D01*
X178898273Y-90171680D01*
X178908865Y-90176067D01*
X178722869Y-90287615D01*
X178514481Y-90476586D01*
X178346963Y-90702580D01*
X178226754Y-90956913D01*
X178186096Y-91090961D01*
X178308085Y-91313000D01*
X179451000Y-91313000D01*
X179451000Y-91293000D01*
X179705000Y-91293000D01*
X179705000Y-91313000D01*
X180847915Y-91313000D01*
X180969904Y-91090961D01*
X180929246Y-90956913D01*
X180809037Y-90702580D01*
X180641519Y-90476586D01*
X180433131Y-90287615D01*
X180247135Y-90176067D01*
X180257727Y-90171680D01*
X180492759Y-90014637D01*
X180692637Y-89814759D01*
X180849680Y-89579727D01*
X180957853Y-89318574D01*
X181013000Y-89041335D01*
X181013000Y-88758665D01*
X180957853Y-88481426D01*
X180849680Y-88220273D01*
X180692637Y-87985241D01*
X180492759Y-87785363D01*
X180257727Y-87628320D01*
X179996574Y-87520147D01*
X179719335Y-87465000D01*
X179436665Y-87465000D01*
X179159426Y-87520147D01*
X178898273Y-87628320D01*
X178663241Y-87785363D01*
X178463363Y-87985241D01*
X178306320Y-88220273D01*
X178198147Y-88481426D01*
X178143000Y-88758665D01*
X173396072Y-88758665D01*
X173396072Y-88100000D01*
X173383812Y-87975518D01*
X173347502Y-87855820D01*
X173288537Y-87745506D01*
X173209185Y-87648815D01*
X173112494Y-87569463D01*
X173002180Y-87510498D01*
X172882482Y-87474188D01*
X172758000Y-87461928D01*
X171158000Y-87461928D01*
X171033518Y-87474188D01*
X170913820Y-87510498D01*
X170803506Y-87569463D01*
X170706815Y-87648815D01*
X170627463Y-87745506D01*
X170568498Y-87855820D01*
X170532188Y-87975518D01*
X170519928Y-88100000D01*
X170519928Y-89700000D01*
X170532188Y-89824482D01*
X170568498Y-89944180D01*
X170627463Y-90054494D01*
X170706815Y-90151185D01*
X170803506Y-90230537D01*
X170913820Y-90289502D01*
X171033518Y-90325812D01*
X171041961Y-90326643D01*
X170843363Y-90525241D01*
X170686320Y-90760273D01*
X170578147Y-91021426D01*
X170523000Y-91298665D01*
X170523000Y-91581335D01*
X170578147Y-91858574D01*
X170686320Y-92119727D01*
X170843363Y-92354759D01*
X171043241Y-92554637D01*
X171275759Y-92710000D01*
X171043241Y-92865363D01*
X170843363Y-93065241D01*
X170686320Y-93300273D01*
X170578147Y-93561426D01*
X170523000Y-93838665D01*
X170523000Y-94121335D01*
X170578147Y-94398574D01*
X170686320Y-94659727D01*
X170843363Y-94894759D01*
X171043241Y-95094637D01*
X171275759Y-95250000D01*
X171043241Y-95405363D01*
X170843363Y-95605241D01*
X170686320Y-95840273D01*
X170578147Y-96101426D01*
X170523000Y-96378665D01*
X170523000Y-96661335D01*
X170578147Y-96938574D01*
X170686320Y-97199727D01*
X170843363Y-97434759D01*
X171043241Y-97634637D01*
X171275759Y-97790000D01*
X171043241Y-97945363D01*
X170843363Y-98145241D01*
X170686320Y-98380273D01*
X170578147Y-98641426D01*
X170523000Y-98918665D01*
X170523000Y-99201335D01*
X170578147Y-99478574D01*
X170686320Y-99739727D01*
X170843363Y-99974759D01*
X171043241Y-100174637D01*
X171275759Y-100330000D01*
X171043241Y-100485363D01*
X170843363Y-100685241D01*
X170686320Y-100920273D01*
X170578147Y-101181426D01*
X170523000Y-101458665D01*
X170523000Y-101741335D01*
X170578147Y-102018574D01*
X170686320Y-102279727D01*
X170843363Y-102514759D01*
X171043241Y-102714637D01*
X171278273Y-102871680D01*
X171288865Y-102876067D01*
X171102869Y-102987615D01*
X170894481Y-103176586D01*
X170726963Y-103402580D01*
X170606754Y-103656913D01*
X170566096Y-103790961D01*
X170688085Y-104013000D01*
X171831000Y-104013000D01*
X171831000Y-103993000D01*
X172085000Y-103993000D01*
X172085000Y-104013000D01*
X173227915Y-104013000D01*
X173349904Y-103790961D01*
X173309246Y-103656913D01*
X173189037Y-103402580D01*
X173021519Y-103176586D01*
X172813131Y-102987615D01*
X172627135Y-102876067D01*
X172637727Y-102871680D01*
X172872759Y-102714637D01*
X173072637Y-102514759D01*
X173229680Y-102279727D01*
X173337853Y-102018574D01*
X173393000Y-101741335D01*
X173393000Y-101458665D01*
X173337853Y-101181426D01*
X173229680Y-100920273D01*
X173072637Y-100685241D01*
X172872759Y-100485363D01*
X172640241Y-100330000D01*
X172872759Y-100174637D01*
X173072637Y-99974759D01*
X173229680Y-99739727D01*
X173337853Y-99478574D01*
X173393000Y-99201335D01*
X173393000Y-98918665D01*
X173337853Y-98641426D01*
X173229680Y-98380273D01*
X173072637Y-98145241D01*
X172872759Y-97945363D01*
X172640241Y-97790000D01*
X172872759Y-97634637D01*
X173072637Y-97434759D01*
X173229680Y-97199727D01*
X173337853Y-96938574D01*
X173393000Y-96661335D01*
X173393000Y-96378665D01*
X173337853Y-96101426D01*
X173229680Y-95840273D01*
X173072637Y-95605241D01*
X172872759Y-95405363D01*
X172640241Y-95250000D01*
X172872759Y-95094637D01*
X173072637Y-94894759D01*
X173229680Y-94659727D01*
X173337853Y-94398574D01*
X173393000Y-94121335D01*
X173393000Y-93838665D01*
X173337853Y-93561426D01*
X173229680Y-93300273D01*
X173072637Y-93065241D01*
X172872759Y-92865363D01*
X172640241Y-92710000D01*
X172872759Y-92554637D01*
X173072637Y-92354759D01*
X173176043Y-92200000D01*
X173929199Y-92200000D01*
X175008000Y-93278803D01*
X175008001Y-100292667D01*
X175004324Y-100330000D01*
X175008001Y-100367333D01*
X175018998Y-100478986D01*
X175032180Y-100522442D01*
X175062454Y-100622246D01*
X175133026Y-100754276D01*
X175191070Y-100825002D01*
X175228000Y-100870001D01*
X175256998Y-100893799D01*
X176474201Y-102111003D01*
X176497999Y-102140001D01*
X176613724Y-102234974D01*
X176745753Y-102305546D01*
X176889014Y-102349003D01*
X177000667Y-102360000D01*
X177000676Y-102360000D01*
X177037999Y-102363676D01*
X177075322Y-102360000D01*
X178359957Y-102360000D01*
X178463363Y-102514759D01*
X178663241Y-102714637D01*
X178895759Y-102870000D01*
X178663241Y-103025363D01*
X178463363Y-103225241D01*
X178306320Y-103460273D01*
X178198147Y-103721426D01*
X178143000Y-103998665D01*
X178143000Y-104281335D01*
X178198147Y-104558574D01*
X178306320Y-104819727D01*
X178463363Y-105054759D01*
X178663241Y-105254637D01*
X178898273Y-105411680D01*
X179159426Y-105519853D01*
X179436665Y-105575000D01*
X179719335Y-105575000D01*
X179996574Y-105519853D01*
X180257727Y-105411680D01*
X180492759Y-105254637D01*
X180692637Y-105054759D01*
X180849680Y-104819727D01*
X180930718Y-104624083D01*
X181104001Y-104450801D01*
X181104001Y-106873197D01*
X180787199Y-107190000D01*
X178249711Y-107190000D01*
X178205774Y-107146063D01*
X178036256Y-107032795D01*
X177847898Y-106954774D01*
X177647939Y-106915000D01*
X177444061Y-106915000D01*
X177244102Y-106954774D01*
X177055744Y-107032795D01*
X176886226Y-107146063D01*
X176742063Y-107290226D01*
X176628795Y-107459744D01*
X176550774Y-107648102D01*
X176511000Y-107848061D01*
X176511000Y-108051939D01*
X176550774Y-108251898D01*
X176628795Y-108440256D01*
X176742063Y-108609774D01*
X176886226Y-108753937D01*
X177055744Y-108867205D01*
X177244102Y-108945226D01*
X177444061Y-108985000D01*
X177647939Y-108985000D01*
X177847898Y-108945226D01*
X178036256Y-108867205D01*
X178205774Y-108753937D01*
X178249711Y-108710000D01*
X180791198Y-108710000D01*
X178304998Y-111196201D01*
X178276000Y-111219999D01*
X178252202Y-111248997D01*
X178252201Y-111248998D01*
X178181026Y-111335724D01*
X178110454Y-111467754D01*
X178066998Y-111611015D01*
X178052324Y-111760000D01*
X178056001Y-111797332D01*
X178056000Y-114262666D01*
X178056000Y-114591332D01*
X178056001Y-114591342D01*
X178056001Y-115697000D01*
X176715802Y-115697000D01*
X172104000Y-111085199D01*
X172104000Y-111023061D01*
X172064226Y-110823102D01*
X171986205Y-110634744D01*
X171872937Y-110465226D01*
X171728774Y-110321063D01*
X171559256Y-110207795D01*
X171370898Y-110129774D01*
X171170939Y-110090000D01*
X170967061Y-110090000D01*
X170767102Y-110129774D01*
X170578744Y-110207795D01*
X170409226Y-110321063D01*
X170265063Y-110465226D01*
X170151795Y-110634744D01*
X170073774Y-110823102D01*
X170034000Y-111023061D01*
X170034000Y-111226939D01*
X170073774Y-111426898D01*
X170151795Y-111615256D01*
X170265063Y-111784774D01*
X170409226Y-111928937D01*
X170578744Y-112042205D01*
X170767102Y-112120226D01*
X170967061Y-112160000D01*
X171029199Y-112160000D01*
X174566198Y-115697000D01*
X171956000Y-115697000D01*
X171956000Y-115003711D01*
X171999937Y-114959774D01*
X172113205Y-114790256D01*
X172191226Y-114601898D01*
X172231000Y-114401939D01*
X172231000Y-114198061D01*
X172191226Y-113998102D01*
X172113205Y-113809744D01*
X171999937Y-113640226D01*
X171855774Y-113496063D01*
X171686256Y-113382795D01*
X171497898Y-113304774D01*
X171297939Y-113265000D01*
X171094061Y-113265000D01*
X170894102Y-113304774D01*
X170705744Y-113382795D01*
X170536226Y-113496063D01*
X170392063Y-113640226D01*
X170278795Y-113809744D01*
X170200774Y-113998102D01*
X170161000Y-114198061D01*
X170161000Y-114401939D01*
X170200774Y-114601898D01*
X170278795Y-114790256D01*
X170392063Y-114959774D01*
X170436001Y-115003712D01*
X170436000Y-115697000D01*
X169791000Y-115697000D01*
X169791000Y-104489039D01*
X170566096Y-104489039D01*
X170606754Y-104623087D01*
X170726963Y-104877420D01*
X170894481Y-105103414D01*
X171102869Y-105292385D01*
X171344119Y-105437070D01*
X171608960Y-105531909D01*
X171831000Y-105410624D01*
X171831000Y-104267000D01*
X172085000Y-104267000D01*
X172085000Y-105410624D01*
X172307040Y-105531909D01*
X172571881Y-105437070D01*
X172813131Y-105292385D01*
X173021519Y-105103414D01*
X173189037Y-104877420D01*
X173309246Y-104623087D01*
X173349904Y-104489039D01*
X173227915Y-104267000D01*
X172085000Y-104267000D01*
X171831000Y-104267000D01*
X170688085Y-104267000D01*
X170566096Y-104489039D01*
X169791000Y-104489039D01*
X169791000Y-85052131D01*
X171158132Y-83685000D01*
X172304761Y-83685000D01*
X172439748Y-83819987D01*
X172707537Y-83998918D01*
X173005088Y-84122168D01*
X173320967Y-84185000D01*
X173643033Y-84185000D01*
X173958912Y-84122168D01*
X174256463Y-83998918D01*
X174524252Y-83819987D01*
X174658826Y-83685413D01*
X177526192Y-83685413D01*
X177621956Y-83949814D01*
X177911571Y-84090704D01*
X178223108Y-84172384D01*
X178544595Y-84191718D01*
X178863675Y-84147961D01*
X179168088Y-84042795D01*
X179342044Y-83949814D01*
X179437808Y-83685413D01*
X178482000Y-82729605D01*
X177526192Y-83685413D01*
X174658826Y-83685413D01*
X174751987Y-83592252D01*
X174930918Y-83324463D01*
X175054168Y-83026912D01*
X175117000Y-82711033D01*
X175117000Y-82612595D01*
X176840282Y-82612595D01*
X176884039Y-82931675D01*
X176989205Y-83236088D01*
X177082186Y-83410044D01*
X177346587Y-83505808D01*
X178302395Y-82550000D01*
X178661605Y-82550000D01*
X179617413Y-83505808D01*
X179881814Y-83410044D01*
X180022704Y-83120429D01*
X180104384Y-82808892D01*
X180123718Y-82487405D01*
X180079961Y-82168325D01*
X179974795Y-81863912D01*
X179913909Y-81750000D01*
X189315928Y-81750000D01*
X189315928Y-83350000D01*
X189328188Y-83474482D01*
X189364498Y-83594180D01*
X189423463Y-83704494D01*
X189502815Y-83801185D01*
X189599506Y-83880537D01*
X189709820Y-83939502D01*
X189829518Y-83975812D01*
X189954000Y-83988072D01*
X191554000Y-83988072D01*
X191678482Y-83975812D01*
X191798180Y-83939502D01*
X191908494Y-83880537D01*
X192005185Y-83801185D01*
X192084537Y-83704494D01*
X192143502Y-83594180D01*
X192159117Y-83542702D01*
X192440903Y-83542702D01*
X192512486Y-83786671D01*
X192767996Y-83907571D01*
X193042184Y-83976300D01*
X193324512Y-83990217D01*
X193604130Y-83948787D01*
X193870292Y-83853603D01*
X193995514Y-83786671D01*
X194067097Y-83542702D01*
X193254000Y-82729605D01*
X192440903Y-83542702D01*
X192159117Y-83542702D01*
X192179812Y-83474482D01*
X192192072Y-83350000D01*
X192192072Y-83342785D01*
X192261298Y-83363097D01*
X193074395Y-82550000D01*
X193433605Y-82550000D01*
X194246702Y-83363097D01*
X194490671Y-83291514D01*
X194611571Y-83036004D01*
X194680300Y-82761816D01*
X194694217Y-82479488D01*
X194652787Y-82199870D01*
X194557603Y-81933708D01*
X194490671Y-81808486D01*
X194246702Y-81736903D01*
X193433605Y-82550000D01*
X193074395Y-82550000D01*
X192261298Y-81736903D01*
X192192072Y-81757215D01*
X192192072Y-81750000D01*
X192179812Y-81625518D01*
X192159118Y-81557298D01*
X192440903Y-81557298D01*
X193254000Y-82370395D01*
X194067097Y-81557298D01*
X193995514Y-81313329D01*
X193740004Y-81192429D01*
X193465816Y-81123700D01*
X193183488Y-81109783D01*
X192903870Y-81151213D01*
X192637708Y-81246397D01*
X192512486Y-81313329D01*
X192440903Y-81557298D01*
X192159118Y-81557298D01*
X192143502Y-81505820D01*
X192084537Y-81395506D01*
X192005185Y-81298815D01*
X191908494Y-81219463D01*
X191798180Y-81160498D01*
X191678482Y-81124188D01*
X191554000Y-81111928D01*
X189954000Y-81111928D01*
X189829518Y-81124188D01*
X189709820Y-81160498D01*
X189599506Y-81219463D01*
X189502815Y-81298815D01*
X189423463Y-81395506D01*
X189364498Y-81505820D01*
X189328188Y-81625518D01*
X189315928Y-81750000D01*
X179913909Y-81750000D01*
X179881814Y-81689956D01*
X179617413Y-81594192D01*
X178661605Y-82550000D01*
X178302395Y-82550000D01*
X177346587Y-81594192D01*
X177082186Y-81689956D01*
X176941296Y-81979571D01*
X176859616Y-82291108D01*
X176840282Y-82612595D01*
X175117000Y-82612595D01*
X175117000Y-82388967D01*
X175054168Y-82073088D01*
X174930918Y-81775537D01*
X174751987Y-81507748D01*
X174658826Y-81414587D01*
X177526192Y-81414587D01*
X178482000Y-82370395D01*
X179437808Y-81414587D01*
X179342044Y-81150186D01*
X179052429Y-81009296D01*
X178740892Y-80927616D01*
X178419405Y-80908282D01*
X178100325Y-80952039D01*
X177795912Y-81057205D01*
X177621956Y-81150186D01*
X177526192Y-81414587D01*
X174658826Y-81414587D01*
X174524252Y-81280013D01*
X174256463Y-81101082D01*
X173958912Y-80977832D01*
X173643033Y-80915000D01*
X173320967Y-80915000D01*
X173005088Y-80977832D01*
X172707537Y-81101082D01*
X172439748Y-81280013D01*
X172304761Y-81415000D01*
X170743751Y-81415000D01*
X170688000Y-81409509D01*
X170632248Y-81415000D01*
X170465501Y-81431423D01*
X170251553Y-81496324D01*
X170054377Y-81601716D01*
X169881551Y-81743551D01*
X169846009Y-81786859D01*
X168656000Y-82976868D01*
X167505000Y-81825869D01*
X167505000Y-80319751D01*
X167510491Y-80264000D01*
X167488577Y-80041501D01*
X167423676Y-79827553D01*
X167361672Y-79711551D01*
X167318284Y-79630377D01*
X167176449Y-79457551D01*
X167133140Y-79422008D01*
X166195996Y-78484864D01*
X166160449Y-78441551D01*
X165987623Y-78299716D01*
X165790447Y-78194324D01*
X165576499Y-78129423D01*
X165409752Y-78113000D01*
X165409751Y-78113000D01*
X165354000Y-78107509D01*
X165298249Y-78113000D01*
X164365107Y-78113000D01*
X164346632Y-78094525D01*
X164172240Y-77978000D01*
X164346632Y-77861475D01*
X164553475Y-77654632D01*
X164678178Y-77468000D01*
X167325199Y-77468000D01*
X168346200Y-78489002D01*
G37*
%TD.AperFunction*%
%TD*%
M02*
