M48
; DRILL file {KiCad (5.1.9-0-10_14)} date Saturday, January 29, 2022 at 10:24:18 AM
; FORMAT={-:-/ absolute / inch / decimal}
; #@! TF.CreationDate,2022-01-29T10:24:18+00:00
; #@! TF.GenerationSoftware,Kicad,Pcbnew,(5.1.9-0-10_14)
FMAT,2
INCH
T1C0.0157
T2C0.0276
T3C0.0315
T4C0.0394
%
G90
G05
T1
X6.58Y-3.58
X6.64Y-4.42
X6.67Y-3.17
X6.735Y-4.375
X6.74Y-4.5
X6.91Y-3.41
X6.99Y-4.25
X7.09Y-4.51
X7.16Y-3.34
X7.3Y-3.18
X7.36Y-3.82
X7.54Y-3.64
X7.62Y-4.0
X7.66Y-3.64
X7.71Y-3.67
X7.81Y-3.82
X8.03Y-4.0
T2
X6.19Y-3.33
X6.49Y-3.33
T3
X6.77Y-3.5
X6.77Y-3.6
X6.77Y-3.7
X6.77Y-3.8
X6.77Y-3.9
X6.77Y-4.0
X6.77Y-4.1
X7.07Y-3.5
X7.07Y-3.6
X7.07Y-3.7
X7.07Y-3.8
X7.07Y-3.9
X7.07Y-4.0
X7.07Y-4.1
X7.34Y-3.5
X7.34Y-4.1
X7.44Y-3.5
X7.44Y-4.1
X7.51Y-3.25
X7.54Y-3.5
X7.54Y-4.1
X7.6084Y-3.25
X7.64Y-3.5
X7.64Y-4.1
X7.74Y-3.5
X7.74Y-4.1
X7.84Y-3.5
X7.84Y-4.1
X7.94Y-3.5
X7.94Y-4.1
X8.04Y-3.5
X8.04Y-4.1
X8.14Y-3.5
X8.14Y-4.1
X8.24Y-3.5
X8.24Y-4.1
X8.34Y-3.5
X8.34Y-4.1
X8.44Y-3.5
X8.44Y-4.1
X8.54Y-3.5
X8.54Y-4.1
X8.64Y-3.5
X8.64Y-4.1
T4
X6.24Y-2.92
X6.24Y-3.02
X6.24Y-3.12
X6.33Y-3.53
X6.33Y-3.63
X6.33Y-3.73
X6.4331Y-2.92
X6.4331Y-3.02
X6.4331Y-3.12
X6.83Y-3.25
X7.0269Y-3.25
T0
M30
