%TF.GenerationSoftware,KiCad,Pcbnew,(5.1.9-0-10_14)*%
%TF.CreationDate,2022-01-29T10:24:00+00:00*%
%TF.ProjectId,SimpleRamFlashCartridge,53696d70-6c65-4526-916d-466c61736843,rev?*%
%TF.SameCoordinates,Original*%
%TF.FileFunction,Soldermask,Bot*%
%TF.FilePolarity,Negative*%
%FSLAX46Y46*%
G04 Gerber Fmt 4.6, Leading zero omitted, Abs format (unit mm)*
G04 Created by KiCad (PCBNEW (5.1.9-0-10_14)) date 2022-01-29 10:24:00*
%MOMM*%
%LPD*%
G01*
G04 APERTURE LIST*
%ADD10C,1.600000*%
%ADD11R,1.600000X1.600000*%
%ADD12O,1.400000X1.400000*%
%ADD13C,1.400000*%
%ADD14O,1.600000X1.600000*%
%ADD15O,1.700000X1.700000*%
%ADD16R,1.700000X1.700000*%
%ADD17R,1.778000X8.636000*%
%ADD18R,1.778000X7.620000*%
%ADD19C,2.000000*%
G04 APERTURE END LIST*
D10*
%TO.C,C2*%
X193254000Y-82550000D03*
D11*
X190754000Y-82550000D03*
%TD*%
D12*
%TO.C,R1*%
X157226000Y-84582000D03*
D13*
X164846000Y-84582000D03*
%TD*%
D14*
%TO.C,U2*%
X186436000Y-88900000D03*
X219456000Y-104140000D03*
X188976000Y-88900000D03*
X216916000Y-104140000D03*
X191516000Y-88900000D03*
X214376000Y-104140000D03*
X194056000Y-88900000D03*
X211836000Y-104140000D03*
X196596000Y-88900000D03*
X209296000Y-104140000D03*
X199136000Y-88900000D03*
X206756000Y-104140000D03*
X201676000Y-88900000D03*
X204216000Y-104140000D03*
X204216000Y-88900000D03*
X201676000Y-104140000D03*
X206756000Y-88900000D03*
X199136000Y-104140000D03*
X209296000Y-88900000D03*
X196596000Y-104140000D03*
X211836000Y-88900000D03*
X194056000Y-104140000D03*
X214376000Y-88900000D03*
X191516000Y-104140000D03*
X216916000Y-88900000D03*
X188976000Y-104140000D03*
X219456000Y-88900000D03*
D11*
X186436000Y-104140000D03*
%TD*%
D15*
%TO.C,J4*%
X163400000Y-79248000D03*
X163400000Y-76708000D03*
D16*
X163400000Y-74168000D03*
%TD*%
D15*
%TO.C,J3*%
X158496000Y-79248000D03*
X158496000Y-76708000D03*
D16*
X158496000Y-74168000D03*
%TD*%
D17*
%TO.C,CON1*%
X221996000Y-122424000D03*
X219456000Y-122424000D03*
X216916000Y-122424000D03*
X214376000Y-122424000D03*
X211836000Y-122424000D03*
X209296000Y-122424000D03*
X206756000Y-122424000D03*
X204216000Y-122424000D03*
X201676000Y-122424000D03*
X199136000Y-122424000D03*
X196596000Y-122424000D03*
X194056000Y-122424000D03*
X191516000Y-122424000D03*
X188976000Y-122424000D03*
X186436000Y-122424000D03*
X183896000Y-122424000D03*
X181356000Y-122424000D03*
X178816000Y-122424000D03*
X176276000Y-122424000D03*
X173736000Y-122424000D03*
X171196000Y-122424000D03*
D18*
X168656000Y-121916000D03*
%TD*%
D14*
%TO.C,U1*%
X179578000Y-88900000D03*
X171958000Y-104140000D03*
X179578000Y-91440000D03*
X171958000Y-101600000D03*
X179578000Y-93980000D03*
X171958000Y-99060000D03*
X179578000Y-96520000D03*
X171958000Y-96520000D03*
X179578000Y-99060000D03*
X171958000Y-93980000D03*
X179578000Y-101600000D03*
X171958000Y-91440000D03*
X179578000Y-104140000D03*
D11*
X171958000Y-88900000D03*
%TD*%
D15*
%TO.C,J2*%
X160782000Y-89662000D03*
X160782000Y-92202000D03*
D16*
X160782000Y-94742000D03*
%TD*%
D19*
%TO.C,C1*%
X178482000Y-82550000D03*
X173482000Y-82550000D03*
%TD*%
M02*
