%TF.GenerationSoftware,KiCad,Pcbnew,(5.1.9-0-10_14)*%
%TF.CreationDate,2022-01-29T10:24:00+00:00*%
%TF.ProjectId,SimpleRamFlashCartridge,53696d70-6c65-4526-916d-466c61736843,rev?*%
%TF.SameCoordinates,Original*%
%TF.FileFunction,Copper,L2,Bot*%
%TF.FilePolarity,Positive*%
%FSLAX46Y46*%
G04 Gerber Fmt 4.6, Leading zero omitted, Abs format (unit mm)*
G04 Created by KiCad (PCBNEW (5.1.9-0-10_14)) date 2022-01-29 10:24:00*
%MOMM*%
%LPD*%
G01*
G04 APERTURE LIST*
%TA.AperFunction,ComponentPad*%
%ADD10C,1.600000*%
%TD*%
%TA.AperFunction,ComponentPad*%
%ADD11R,1.600000X1.600000*%
%TD*%
%TA.AperFunction,ComponentPad*%
%ADD12O,1.400000X1.400000*%
%TD*%
%TA.AperFunction,ComponentPad*%
%ADD13C,1.400000*%
%TD*%
%TA.AperFunction,ComponentPad*%
%ADD14O,1.600000X1.600000*%
%TD*%
%TA.AperFunction,ComponentPad*%
%ADD15O,1.700000X1.700000*%
%TD*%
%TA.AperFunction,ComponentPad*%
%ADD16R,1.700000X1.700000*%
%TD*%
%TA.AperFunction,ConnectorPad*%
%ADD17R,1.778000X8.636000*%
%TD*%
%TA.AperFunction,ConnectorPad*%
%ADD18R,1.778000X7.620000*%
%TD*%
%TA.AperFunction,ComponentPad*%
%ADD19C,2.000000*%
%TD*%
%TA.AperFunction,ViaPad*%
%ADD20C,0.800000*%
%TD*%
%TA.AperFunction,Conductor*%
%ADD21C,1.000000*%
%TD*%
%TA.AperFunction,Conductor*%
%ADD22C,0.250000*%
%TD*%
%TA.AperFunction,Conductor*%
%ADD23C,0.254000*%
%TD*%
%TA.AperFunction,Conductor*%
%ADD24C,0.100000*%
%TD*%
G04 APERTURE END LIST*
D10*
%TO.P,C2,2*%
%TO.N,GND*%
X193254000Y-82550000D03*
D11*
%TO.P,C2,1*%
%TO.N,+5V*%
X190754000Y-82550000D03*
%TD*%
D12*
%TO.P,R1,2*%
%TO.N,Net-(J3-Pad2)*%
X157226000Y-84582000D03*
D13*
%TO.P,R1,1*%
%TO.N,+5V*%
X164846000Y-84582000D03*
%TD*%
D14*
%TO.P,U2,28*%
%TO.N,+5V*%
X186436000Y-88900000D03*
%TO.P,U2,14*%
%TO.N,GND*%
X219456000Y-104140000D03*
%TO.P,U2,27*%
%TO.N,Net-(J3-Pad2)*%
X188976000Y-88900000D03*
%TO.P,U2,13*%
%TO.N,/D2*%
X216916000Y-104140000D03*
%TO.P,U2,26*%
%TO.N,/A13*%
X191516000Y-88900000D03*
%TO.P,U2,12*%
%TO.N,/D1*%
X214376000Y-104140000D03*
%TO.P,U2,25*%
%TO.N,/A8*%
X194056000Y-88900000D03*
%TO.P,U2,11*%
%TO.N,/D0*%
X211836000Y-104140000D03*
%TO.P,U2,24*%
%TO.N,/A9*%
X196596000Y-88900000D03*
%TO.P,U2,10*%
%TO.N,/BA0*%
X209296000Y-104140000D03*
%TO.P,U2,23*%
%TO.N,/A11*%
X199136000Y-88900000D03*
%TO.P,U2,9*%
%TO.N,/BA1*%
X206756000Y-104140000D03*
%TO.P,U2,22*%
%TO.N,NRD*%
X201676000Y-88900000D03*
%TO.P,U2,8*%
%TO.N,/BA2*%
X204216000Y-104140000D03*
%TO.P,U2,21*%
%TO.N,/A10*%
X204216000Y-88900000D03*
%TO.P,U2,7*%
%TO.N,/BA3*%
X201676000Y-104140000D03*
%TO.P,U2,20*%
%TO.N,ROM*%
X206756000Y-88900000D03*
%TO.P,U2,6*%
%TO.N,/BA4*%
X199136000Y-104140000D03*
%TO.P,U2,19*%
%TO.N,/D7*%
X209296000Y-88900000D03*
%TO.P,U2,5*%
%TO.N,/BA5*%
X196596000Y-104140000D03*
%TO.P,U2,18*%
%TO.N,/D6*%
X211836000Y-88900000D03*
%TO.P,U2,4*%
%TO.N,/BA6*%
X194056000Y-104140000D03*
%TO.P,U2,17*%
%TO.N,/D5*%
X214376000Y-88900000D03*
%TO.P,U2,3*%
%TO.N,/BA7*%
X191516000Y-104140000D03*
%TO.P,U2,16*%
%TO.N,/D4*%
X216916000Y-88900000D03*
%TO.P,U2,2*%
%TO.N,/A12*%
X188976000Y-104140000D03*
%TO.P,U2,15*%
%TO.N,/D3*%
X219456000Y-88900000D03*
D11*
%TO.P,U2,1*%
%TO.N,Net-(J4-Pad2)*%
X186436000Y-104140000D03*
%TD*%
D15*
%TO.P,J4,3*%
%TO.N,+5V*%
X163400000Y-79248000D03*
%TO.P,J4,2*%
%TO.N,Net-(J4-Pad2)*%
X163400000Y-76708000D03*
D16*
%TO.P,J4,1*%
%TO.N,QA*%
X163400000Y-74168000D03*
%TD*%
D15*
%TO.P,J3,3*%
%TO.N,QA*%
X158496000Y-79248000D03*
%TO.P,J3,2*%
%TO.N,Net-(J3-Pad2)*%
X158496000Y-76708000D03*
D16*
%TO.P,J3,1*%
%TO.N,NWE*%
X158496000Y-74168000D03*
%TD*%
D17*
%TO.P,CON1,b22*%
%TO.N,GND*%
X221996000Y-122424000D03*
%TO.P,CON1,b21*%
%TO.N,/D1*%
X219456000Y-122424000D03*
%TO.P,CON1,b20*%
%TO.N,/D2*%
X216916000Y-122424000D03*
%TO.P,CON1,b19*%
%TO.N,/D0*%
X214376000Y-122424000D03*
%TO.P,CON1,b18*%
%TO.N,/BA0*%
X211836000Y-122424000D03*
%TO.P,CON1,b17*%
%TO.N,/BA1*%
X209296000Y-122424000D03*
%TO.P,CON1,b16*%
%TO.N,/BA2*%
X206756000Y-122424000D03*
%TO.P,CON1,b15*%
%TO.N,/BA3*%
X204216000Y-122424000D03*
%TO.P,CON1,b14*%
%TO.N,/BA4*%
X201676000Y-122424000D03*
%TO.P,CON1,b13*%
%TO.N,/BA5*%
X199136000Y-122424000D03*
%TO.P,CON1,b12*%
%TO.N,/BA6*%
X196596000Y-122424000D03*
%TO.P,CON1,b11*%
%TO.N,/BA7*%
X194056000Y-122424000D03*
%TO.P,CON1,b10*%
%TO.N,Net-(CON1-Padb10)*%
X191516000Y-122424000D03*
%TO.P,CON1,b9*%
%TO.N,/D4*%
X188976000Y-122424000D03*
%TO.P,CON1,b8*%
%TO.N,/D5*%
X186436000Y-122424000D03*
%TO.P,CON1,b7*%
%TO.N,/D6*%
X183896000Y-122424000D03*
%TO.P,CON1,b6*%
%TO.N,/D7*%
X181356000Y-122424000D03*
%TO.P,CON1,b5*%
%TO.N,/A9*%
X178816000Y-122424000D03*
%TO.P,CON1,b4*%
%TO.N,/A11*%
X176276000Y-122424000D03*
%TO.P,CON1,b3*%
%TO.N,/D3*%
X173736000Y-122424000D03*
%TO.P,CON1,b2*%
%TO.N,/A10*%
X171196000Y-122424000D03*
D18*
%TO.P,CON1,b1*%
%TO.N,+5V*%
X168656000Y-121916000D03*
%TD*%
D14*
%TO.P,U1,14*%
%TO.N,+5V*%
X179578000Y-88900000D03*
%TO.P,U1,7*%
%TO.N,GND*%
X171958000Y-104140000D03*
%TO.P,U1,13*%
X179578000Y-91440000D03*
%TO.P,U1,6*%
%TO.N,NWE*%
X171958000Y-101600000D03*
%TO.P,U1,12*%
%TO.N,GND*%
X179578000Y-93980000D03*
%TO.P,U1,5*%
%TO.N,PHI2*%
X171958000Y-99060000D03*
%TO.P,U1,11*%
%TO.N,Net-(U1-Pad11)*%
X179578000Y-96520000D03*
%TO.P,U1,4*%
%TO.N,Net-(U1-Pad3)*%
X171958000Y-96520000D03*
%TO.P,U1,10*%
%TO.N,PHI2*%
X179578000Y-99060000D03*
%TO.P,U1,3*%
%TO.N,Net-(U1-Pad3)*%
X171958000Y-93980000D03*
%TO.P,U1,9*%
%TO.N,RW*%
X179578000Y-101600000D03*
%TO.P,U1,2*%
X171958000Y-91440000D03*
%TO.P,U1,8*%
%TO.N,NRD*%
X179578000Y-104140000D03*
D11*
%TO.P,U1,1*%
%TO.N,RW*%
X171958000Y-88900000D03*
%TD*%
D15*
%TO.P,J2,3*%
%TO.N,/M_RW*%
X160782000Y-89662000D03*
%TO.P,J2,2*%
%TO.N,RW*%
X160782000Y-92202000D03*
D16*
%TO.P,J2,1*%
%TO.N,/E_RW*%
X160782000Y-94742000D03*
%TD*%
D19*
%TO.P,C1,2*%
%TO.N,GND*%
X178482000Y-82550000D03*
%TO.P,C1,1*%
%TO.N,+5V*%
X173482000Y-82550000D03*
%TD*%
D20*
%TO.N,GND*%
X175514000Y-86614000D03*
X185420000Y-80772000D03*
X169418000Y-80518000D03*
%TO.N,+5V*%
X168656000Y-112268000D03*
%TO.N,/M_RW*%
X181864000Y-84836000D03*
%TO.N,/E_RW*%
X171069000Y-111125000D03*
%TO.N,ROM*%
X195834000Y-93218000D03*
X177546000Y-107950000D03*
X171196000Y-114300000D03*
%TO.N,/A9*%
X180086000Y-114554000D03*
%TO.N,/A10*%
X194564000Y-92456000D03*
X191516000Y-92456000D03*
%TO.N,/D3*%
X198374000Y-97028000D03*
X186944000Y-97028000D03*
%TO.N,NWE*%
X167132000Y-90932000D03*
%TO.N,Net-(J4-Pad2)*%
X203962000Y-101600000D03*
X193548000Y-101600000D03*
%TD*%
D21*
%TO.N,GND*%
X221996000Y-122424000D02*
X221996000Y-113284000D01*
%TO.N,+5V*%
X186436000Y-88900000D02*
X186436000Y-85852000D01*
X186436000Y-85852000D02*
X189738000Y-82550000D01*
X176022000Y-79756000D02*
X173228000Y-82550000D01*
X186182000Y-85852000D02*
X180086000Y-79756000D01*
X180086000Y-79756000D02*
X176022000Y-79756000D01*
X186436000Y-85852000D02*
X186182000Y-85852000D01*
X168656000Y-121916000D02*
X168656000Y-112268000D01*
X168656000Y-112268000D02*
X168656000Y-112268000D01*
X179578000Y-88900000D02*
X186182000Y-88900000D01*
X163400000Y-79248000D02*
X164084000Y-79248000D01*
X164084000Y-79248000D02*
X164846000Y-80010000D01*
X164846000Y-80010000D02*
X164846000Y-84582000D01*
X189738000Y-82550000D02*
X190754000Y-82550000D01*
D22*
%TO.N,/M_RW*%
X181864000Y-84836000D02*
X167386000Y-84836000D01*
X167386000Y-84836000D02*
X162560000Y-89662000D01*
X162560000Y-89662000D02*
X160782000Y-89662000D01*
%TO.N,/E_RW*%
X171069000Y-111125000D02*
X167386000Y-107442000D01*
X160782000Y-94742000D02*
X165862000Y-94742000D01*
X167386000Y-96266000D02*
X167386000Y-107442000D01*
X165862000Y-94742000D02*
X167386000Y-96266000D01*
%TO.N,ROM*%
X206756000Y-88900000D02*
X206756000Y-91694000D01*
X195834000Y-93218000D02*
X195834000Y-93218000D01*
X195834000Y-93218000D02*
X205232000Y-93218000D01*
X205232000Y-93218000D02*
X206756000Y-91694000D01*
X177546000Y-107950000D02*
X171196000Y-114300000D01*
%TO.N,/D1*%
X219456000Y-122424000D02*
X219456000Y-116586000D01*
X219456000Y-116586000D02*
X219456000Y-114046000D01*
X219456000Y-114046000D02*
X214376000Y-108966000D01*
X214376000Y-108966000D02*
X214376000Y-104394000D01*
%TO.N,/D2*%
X216916000Y-122424000D02*
X216916000Y-116586000D01*
X216916000Y-116586000D02*
X216916000Y-112776000D01*
X212961001Y-108821001D02*
X212961001Y-103014999D01*
X216916000Y-112776000D02*
X212961001Y-108821001D01*
X212961001Y-103014999D02*
X213868000Y-102108000D01*
X213868000Y-102108000D02*
X215900000Y-102108000D01*
X215900000Y-102108000D02*
X216154000Y-102108000D01*
X216154000Y-102108000D02*
X216916000Y-102870000D01*
X216916000Y-102870000D02*
X216916000Y-104140000D01*
%TO.N,/D0*%
X214376000Y-112776000D02*
X214376000Y-116586000D01*
X214376000Y-116586000D02*
X214376000Y-122678000D01*
X211836000Y-110236000D02*
X214376000Y-112776000D01*
X211836000Y-104140000D02*
X211836000Y-110236000D01*
%TO.N,/BA0*%
X211836000Y-112776000D02*
X211836000Y-116586000D01*
X211836000Y-116586000D02*
X211836000Y-122424000D01*
X209296000Y-110236000D02*
X211836000Y-112776000D01*
X209296000Y-104140000D02*
X209296000Y-110236000D01*
%TO.N,/BA1*%
X209296000Y-116586000D02*
X209296000Y-122424000D01*
X209296000Y-112776000D02*
X209296000Y-116586000D01*
X206756000Y-110236000D02*
X209296000Y-112776000D01*
X206756000Y-104140000D02*
X206756000Y-110236000D01*
%TO.N,/BA2*%
X206756000Y-116586000D02*
X206756000Y-122424000D01*
X206756000Y-112776000D02*
X206756000Y-116586000D01*
X204216000Y-110236000D02*
X206756000Y-112776000D01*
X204216000Y-104140000D02*
X204216000Y-110236000D01*
%TO.N,/BA3*%
X204216000Y-112776000D02*
X204216000Y-116586000D01*
X204216000Y-116586000D02*
X204216000Y-122424000D01*
X201676000Y-110236000D02*
X204216000Y-112776000D01*
X201676000Y-104140000D02*
X201676000Y-110236000D01*
%TO.N,/BA4*%
X201676000Y-116586000D02*
X201676000Y-122424000D01*
X201676000Y-112776000D02*
X201676000Y-116586000D01*
X199136000Y-110236000D02*
X201676000Y-112776000D01*
X199136000Y-104140000D02*
X199136000Y-110236000D01*
%TO.N,/BA5*%
X199136000Y-116586000D02*
X199136000Y-122424000D01*
X199136000Y-112776000D02*
X199136000Y-116586000D01*
X196596000Y-110236000D02*
X199136000Y-112776000D01*
X196596000Y-104140000D02*
X196596000Y-110236000D01*
%TO.N,/BA6*%
X196596000Y-116840000D02*
X196596000Y-122424000D01*
X194056000Y-110236000D02*
X196596000Y-112776000D01*
X196596000Y-112776000D02*
X196596000Y-116840000D01*
X194056000Y-104140000D02*
X194056000Y-110236000D01*
%TO.N,/BA7*%
X194056000Y-122424000D02*
X194056000Y-116586000D01*
X191516000Y-104140000D02*
X191516000Y-110236000D01*
X191516000Y-110236000D02*
X194056000Y-112776000D01*
X194056000Y-112776000D02*
X194056000Y-116586000D01*
%TO.N,/D4*%
X190390999Y-102725001D02*
X196850000Y-96266000D01*
X216916000Y-94742000D02*
X216916000Y-88900000D01*
X190390999Y-110091001D02*
X190390999Y-102725001D01*
X188976000Y-111506000D02*
X190390999Y-110091001D01*
X188976000Y-122678000D02*
X188976000Y-111506000D01*
X215392000Y-96266000D02*
X216916000Y-94742000D01*
X196850000Y-96266000D02*
X215392000Y-96266000D01*
%TO.N,/D5*%
X186436000Y-122424000D02*
X186436000Y-111506000D01*
X187850999Y-102725001D02*
X195072000Y-95504000D01*
X187850999Y-110091001D02*
X187850999Y-102725001D01*
X186436000Y-111506000D02*
X187850999Y-110091001D01*
X195072000Y-95504000D02*
X212852000Y-95504000D01*
X212852000Y-95504000D02*
X214376000Y-93980000D01*
X214376000Y-93980000D02*
X214376000Y-88900000D01*
%TO.N,/D6*%
X184912000Y-103478998D02*
X193648998Y-94742000D01*
X184912000Y-110490000D02*
X184912000Y-103478998D01*
X183896000Y-111506000D02*
X184912000Y-110490000D01*
X183896000Y-122424000D02*
X183896000Y-111506000D01*
X210312000Y-94742000D02*
X211836000Y-93218000D01*
X193648998Y-94742000D02*
X210312000Y-94742000D01*
X211836000Y-93218000D02*
X211836000Y-88900000D01*
%TO.N,/D7*%
X181356000Y-116332000D02*
X181356000Y-116586000D01*
X181356000Y-116586000D02*
X181356000Y-122424000D01*
X181356000Y-113030000D02*
X184150000Y-110236000D01*
X209296000Y-92710000D02*
X209296000Y-88900000D01*
X184150000Y-102870000D02*
X193040000Y-93980000D01*
X184150000Y-110236000D02*
X184150000Y-102870000D01*
X181356000Y-116586000D02*
X181356000Y-113030000D01*
X208026000Y-93980000D02*
X209296000Y-92710000D01*
X193040000Y-93980000D02*
X208026000Y-93980000D01*
%TO.N,/A9*%
X178816000Y-116586000D02*
X178816000Y-122682000D01*
X178816000Y-116586000D02*
X178816000Y-115824000D01*
X178816000Y-115824000D02*
X180086000Y-114554000D01*
X180086000Y-114554000D02*
X180086000Y-114554000D01*
%TO.N,/A10*%
X204216000Y-90932000D02*
X204216000Y-88900000D01*
X202946000Y-92456000D02*
X204216000Y-91186000D01*
X204216000Y-91186000D02*
X204216000Y-90932000D01*
X202946000Y-92456000D02*
X199644000Y-92456000D01*
X199644000Y-92456000D02*
X194564000Y-92456000D01*
X194564000Y-92456000D02*
X194564000Y-92456000D01*
X181610000Y-105918000D02*
X171196000Y-116332000D01*
X181610000Y-100584000D02*
X181610000Y-105918000D01*
X189738000Y-92456000D02*
X181610000Y-100584000D01*
X171196000Y-116332000D02*
X171196000Y-122424000D01*
X191516000Y-92456000D02*
X189738000Y-92456000D01*
%TO.N,/D3*%
X219456000Y-88900000D02*
X219456000Y-95758000D01*
X219456000Y-95758000D02*
X218186000Y-97028000D01*
X218186000Y-97028000D02*
X198374000Y-97028000D01*
X173736000Y-122424000D02*
X173736000Y-117856000D01*
X173736000Y-117856000D02*
X173736000Y-116840000D01*
X173736000Y-116840000D02*
X173736000Y-116586000D01*
X173736000Y-116586000D02*
X182626000Y-107696000D01*
X198374000Y-97028000D02*
X198374000Y-97028000D01*
X182626000Y-107696000D02*
X182626000Y-101346000D01*
X182626000Y-101346000D02*
X186944000Y-97028000D01*
X186944000Y-97028000D02*
X186944000Y-97028000D01*
%TO.N,/A11*%
X176276000Y-116332000D02*
X176276000Y-116840000D01*
X183388000Y-109220000D02*
X176276000Y-116332000D01*
X193802000Y-91694000D02*
X183388000Y-102108000D01*
X176276000Y-116840000D02*
X176276000Y-122682000D01*
X183388000Y-102108000D02*
X183388000Y-109220000D01*
X199136000Y-90424000D02*
X197866000Y-91694000D01*
X197866000Y-91694000D02*
X193802000Y-91694000D01*
X199136000Y-88900000D02*
X199136000Y-90424000D01*
%TO.N,NWE*%
X171958000Y-101600000D02*
X170434000Y-101600000D01*
X170434000Y-101600000D02*
X169926000Y-101092000D01*
X169926000Y-101092000D02*
X169164000Y-100330000D01*
X169164000Y-100330000D02*
X169164000Y-92964000D01*
X169164000Y-92964000D02*
X167132000Y-90932000D01*
X167132000Y-90932000D02*
X167132000Y-90932000D01*
%TO.N,Net-(U1-Pad3)*%
X171958000Y-93980000D02*
X171958000Y-96520000D01*
%TO.N,PHI2*%
X179578000Y-99060000D02*
X172212000Y-99060000D01*
X172212000Y-99060000D02*
X171958000Y-98806000D01*
%TO.N,RW*%
X171958000Y-88900000D02*
X171958000Y-91186000D01*
X171958000Y-91186000D02*
X171958000Y-91440000D01*
X171958000Y-88900000D02*
X165100000Y-88900000D01*
X165100000Y-88900000D02*
X161798000Y-92202000D01*
X161798000Y-92202000D02*
X160782000Y-92202000D01*
%TO.N,Net-(J3-Pad2)*%
X188976000Y-86614000D02*
X188976000Y-88900000D01*
X192024000Y-80772000D02*
X192024000Y-83566000D01*
X160782000Y-77978000D02*
X189230000Y-77978000D01*
X192024000Y-83566000D02*
X188976000Y-86614000D01*
X159512000Y-76708000D02*
X160782000Y-77978000D01*
X189230000Y-77978000D02*
X192024000Y-80772000D01*
X158750000Y-76708000D02*
X159512000Y-76708000D01*
X160782000Y-77978000D02*
X160782000Y-81026000D01*
X160782000Y-81026000D02*
X157226000Y-84582000D01*
%TO.N,Net-(J4-Pad2)*%
X203962000Y-101600000D02*
X193548000Y-101600000D01*
X193548000Y-101600000D02*
X193548000Y-101600000D01*
%TD*%
D23*
%TO.N,GND*%
X237084001Y-115164000D02*
X223552419Y-115164000D01*
X223520000Y-115160807D01*
X223487581Y-115164000D01*
X223390617Y-115173550D01*
X223266207Y-115211290D01*
X223151550Y-115272575D01*
X223051052Y-115355052D01*
X222968575Y-115455550D01*
X222907290Y-115570207D01*
X222869550Y-115694617D01*
X222869315Y-115697000D01*
X220216000Y-115697000D01*
X220216000Y-114083323D01*
X220219676Y-114046000D01*
X220216000Y-114008677D01*
X220216000Y-114008667D01*
X220205003Y-113897014D01*
X220161546Y-113753753D01*
X220099030Y-113636795D01*
X220090974Y-113621723D01*
X220019799Y-113534997D01*
X219996001Y-113505999D01*
X219967003Y-113482201D01*
X215136000Y-108651199D01*
X215136000Y-105358043D01*
X215290759Y-105254637D01*
X215490637Y-105054759D01*
X215646000Y-104822241D01*
X215801363Y-105054759D01*
X216001241Y-105254637D01*
X216236273Y-105411680D01*
X216497426Y-105519853D01*
X216774665Y-105575000D01*
X217057335Y-105575000D01*
X217334574Y-105519853D01*
X217595727Y-105411680D01*
X217830759Y-105254637D01*
X218030637Y-105054759D01*
X218187680Y-104819727D01*
X218192067Y-104809135D01*
X218303615Y-104995131D01*
X218492586Y-105203519D01*
X218718580Y-105371037D01*
X218972913Y-105491246D01*
X219106961Y-105531904D01*
X219329000Y-105409915D01*
X219329000Y-104267000D01*
X219583000Y-104267000D01*
X219583000Y-105409915D01*
X219805039Y-105531904D01*
X219939087Y-105491246D01*
X220193420Y-105371037D01*
X220419414Y-105203519D01*
X220608385Y-104995131D01*
X220753070Y-104753881D01*
X220847909Y-104489040D01*
X220726624Y-104267000D01*
X219583000Y-104267000D01*
X219329000Y-104267000D01*
X219309000Y-104267000D01*
X219309000Y-104013000D01*
X219329000Y-104013000D01*
X219329000Y-102870085D01*
X219583000Y-102870085D01*
X219583000Y-104013000D01*
X220726624Y-104013000D01*
X220847909Y-103790960D01*
X220753070Y-103526119D01*
X220608385Y-103284869D01*
X220419414Y-103076481D01*
X220193420Y-102908963D01*
X219939087Y-102788754D01*
X219805039Y-102748096D01*
X219583000Y-102870085D01*
X219329000Y-102870085D01*
X219106961Y-102748096D01*
X218972913Y-102788754D01*
X218718580Y-102908963D01*
X218492586Y-103076481D01*
X218303615Y-103284869D01*
X218192067Y-103470865D01*
X218187680Y-103460273D01*
X218030637Y-103225241D01*
X217830759Y-103025363D01*
X217676000Y-102921957D01*
X217676000Y-102907325D01*
X217679676Y-102870000D01*
X217676000Y-102832675D01*
X217676000Y-102832667D01*
X217665003Y-102721014D01*
X217621546Y-102577753D01*
X217550974Y-102445724D01*
X217456001Y-102329999D01*
X217427004Y-102306202D01*
X217062307Y-101941505D01*
X228394640Y-101941505D01*
X228394640Y-102782495D01*
X228558709Y-103607326D01*
X228880542Y-104384300D01*
X229347771Y-105083559D01*
X229942441Y-105678229D01*
X230641700Y-106145458D01*
X231418674Y-106467291D01*
X232243505Y-106631360D01*
X233084495Y-106631360D01*
X233909326Y-106467291D01*
X234686300Y-106145458D01*
X235385559Y-105678229D01*
X235980229Y-105083559D01*
X236447458Y-104384300D01*
X236769291Y-103607326D01*
X236933360Y-102782495D01*
X236933360Y-101941505D01*
X236769291Y-101116674D01*
X236447458Y-100339700D01*
X235980229Y-99640441D01*
X235385559Y-99045771D01*
X234686300Y-98578542D01*
X233909326Y-98256709D01*
X233084495Y-98092640D01*
X232243505Y-98092640D01*
X231418674Y-98256709D01*
X230641700Y-98578542D01*
X229942441Y-99045771D01*
X229347771Y-99640441D01*
X228880542Y-100339700D01*
X228558709Y-101116674D01*
X228394640Y-101941505D01*
X217062307Y-101941505D01*
X216717803Y-101597002D01*
X216694001Y-101567999D01*
X216578276Y-101473026D01*
X216446247Y-101402454D01*
X216302986Y-101358997D01*
X216191333Y-101348000D01*
X216191322Y-101348000D01*
X216154000Y-101344324D01*
X216116678Y-101348000D01*
X213905322Y-101348000D01*
X213867999Y-101344324D01*
X213830676Y-101348000D01*
X213830667Y-101348000D01*
X213719014Y-101358997D01*
X213575753Y-101402454D01*
X213443724Y-101473026D01*
X213327999Y-101567999D01*
X213304201Y-101596997D01*
X212449999Y-102451200D01*
X212421001Y-102474998D01*
X212397203Y-102503996D01*
X212397202Y-102503997D01*
X212326027Y-102590723D01*
X212255455Y-102722753D01*
X212244707Y-102758184D01*
X211977335Y-102705000D01*
X211694665Y-102705000D01*
X211417426Y-102760147D01*
X211156273Y-102868320D01*
X210921241Y-103025363D01*
X210721363Y-103225241D01*
X210566000Y-103457759D01*
X210410637Y-103225241D01*
X210210759Y-103025363D01*
X209975727Y-102868320D01*
X209714574Y-102760147D01*
X209437335Y-102705000D01*
X209154665Y-102705000D01*
X208877426Y-102760147D01*
X208616273Y-102868320D01*
X208381241Y-103025363D01*
X208181363Y-103225241D01*
X208026000Y-103457759D01*
X207870637Y-103225241D01*
X207670759Y-103025363D01*
X207435727Y-102868320D01*
X207174574Y-102760147D01*
X206897335Y-102705000D01*
X206614665Y-102705000D01*
X206337426Y-102760147D01*
X206076273Y-102868320D01*
X205841241Y-103025363D01*
X205641363Y-103225241D01*
X205486000Y-103457759D01*
X205330637Y-103225241D01*
X205130759Y-103025363D01*
X204895727Y-102868320D01*
X204634574Y-102760147D01*
X204357335Y-102705000D01*
X204074665Y-102705000D01*
X203797426Y-102760147D01*
X203536273Y-102868320D01*
X203301241Y-103025363D01*
X203101363Y-103225241D01*
X202946000Y-103457759D01*
X202790637Y-103225241D01*
X202590759Y-103025363D01*
X202355727Y-102868320D01*
X202094574Y-102760147D01*
X201817335Y-102705000D01*
X201534665Y-102705000D01*
X201257426Y-102760147D01*
X200996273Y-102868320D01*
X200761241Y-103025363D01*
X200561363Y-103225241D01*
X200406000Y-103457759D01*
X200250637Y-103225241D01*
X200050759Y-103025363D01*
X199815727Y-102868320D01*
X199554574Y-102760147D01*
X199277335Y-102705000D01*
X198994665Y-102705000D01*
X198717426Y-102760147D01*
X198456273Y-102868320D01*
X198221241Y-103025363D01*
X198021363Y-103225241D01*
X197866000Y-103457759D01*
X197710637Y-103225241D01*
X197510759Y-103025363D01*
X197275727Y-102868320D01*
X197014574Y-102760147D01*
X196737335Y-102705000D01*
X196454665Y-102705000D01*
X196177426Y-102760147D01*
X195916273Y-102868320D01*
X195681241Y-103025363D01*
X195481363Y-103225241D01*
X195326000Y-103457759D01*
X195170637Y-103225241D01*
X194970759Y-103025363D01*
X194735727Y-102868320D01*
X194474574Y-102760147D01*
X194197335Y-102705000D01*
X193914665Y-102705000D01*
X193637426Y-102760147D01*
X193376273Y-102868320D01*
X193141241Y-103025363D01*
X192941363Y-103225241D01*
X192786000Y-103457759D01*
X192630637Y-103225241D01*
X192430759Y-103025363D01*
X192195727Y-102868320D01*
X191934574Y-102760147D01*
X191657335Y-102705000D01*
X191485801Y-102705000D01*
X192513000Y-101677801D01*
X192513000Y-101701939D01*
X192552774Y-101901898D01*
X192630795Y-102090256D01*
X192744063Y-102259774D01*
X192888226Y-102403937D01*
X193057744Y-102517205D01*
X193246102Y-102595226D01*
X193446061Y-102635000D01*
X193649939Y-102635000D01*
X193849898Y-102595226D01*
X194038256Y-102517205D01*
X194207774Y-102403937D01*
X194251711Y-102360000D01*
X203258289Y-102360000D01*
X203302226Y-102403937D01*
X203471744Y-102517205D01*
X203660102Y-102595226D01*
X203860061Y-102635000D01*
X204063939Y-102635000D01*
X204263898Y-102595226D01*
X204452256Y-102517205D01*
X204621774Y-102403937D01*
X204765937Y-102259774D01*
X204879205Y-102090256D01*
X204957226Y-101901898D01*
X204997000Y-101701939D01*
X204997000Y-101498061D01*
X204957226Y-101298102D01*
X204879205Y-101109744D01*
X204765937Y-100940226D01*
X204621774Y-100796063D01*
X204452256Y-100682795D01*
X204263898Y-100604774D01*
X204063939Y-100565000D01*
X203860061Y-100565000D01*
X203660102Y-100604774D01*
X203471744Y-100682795D01*
X203302226Y-100796063D01*
X203258289Y-100840000D01*
X194251711Y-100840000D01*
X194207774Y-100796063D01*
X194038256Y-100682795D01*
X193849898Y-100604774D01*
X193649939Y-100565000D01*
X193625801Y-100565000D01*
X197164802Y-97026000D01*
X197339000Y-97026000D01*
X197339000Y-97129939D01*
X197378774Y-97329898D01*
X197456795Y-97518256D01*
X197570063Y-97687774D01*
X197714226Y-97831937D01*
X197883744Y-97945205D01*
X198072102Y-98023226D01*
X198272061Y-98063000D01*
X198475939Y-98063000D01*
X198675898Y-98023226D01*
X198864256Y-97945205D01*
X199033774Y-97831937D01*
X199077711Y-97788000D01*
X218148678Y-97788000D01*
X218186000Y-97791676D01*
X218223322Y-97788000D01*
X218223333Y-97788000D01*
X218334986Y-97777003D01*
X218478247Y-97733546D01*
X218610276Y-97662974D01*
X218726001Y-97568001D01*
X218749804Y-97538997D01*
X219967003Y-96321799D01*
X219996001Y-96298001D01*
X220090974Y-96182276D01*
X220161546Y-96050247D01*
X220205003Y-95906986D01*
X220216000Y-95795333D01*
X220216000Y-95795324D01*
X220219676Y-95758001D01*
X220216000Y-95720678D01*
X220216000Y-90118043D01*
X220370759Y-90014637D01*
X220570637Y-89814759D01*
X220727680Y-89579727D01*
X220835853Y-89318574D01*
X220891000Y-89041335D01*
X220891000Y-88758665D01*
X220835853Y-88481426D01*
X220727680Y-88220273D01*
X220570637Y-87985241D01*
X220370759Y-87785363D01*
X220135727Y-87628320D01*
X219874574Y-87520147D01*
X219597335Y-87465000D01*
X219314665Y-87465000D01*
X219037426Y-87520147D01*
X218776273Y-87628320D01*
X218541241Y-87785363D01*
X218341363Y-87985241D01*
X218186000Y-88217759D01*
X218030637Y-87985241D01*
X217830759Y-87785363D01*
X217595727Y-87628320D01*
X217334574Y-87520147D01*
X217057335Y-87465000D01*
X216774665Y-87465000D01*
X216497426Y-87520147D01*
X216236273Y-87628320D01*
X216001241Y-87785363D01*
X215801363Y-87985241D01*
X215646000Y-88217759D01*
X215490637Y-87985241D01*
X215290759Y-87785363D01*
X215055727Y-87628320D01*
X214794574Y-87520147D01*
X214517335Y-87465000D01*
X214234665Y-87465000D01*
X213957426Y-87520147D01*
X213696273Y-87628320D01*
X213461241Y-87785363D01*
X213261363Y-87985241D01*
X213106000Y-88217759D01*
X212950637Y-87985241D01*
X212750759Y-87785363D01*
X212515727Y-87628320D01*
X212254574Y-87520147D01*
X211977335Y-87465000D01*
X211694665Y-87465000D01*
X211417426Y-87520147D01*
X211156273Y-87628320D01*
X210921241Y-87785363D01*
X210721363Y-87985241D01*
X210566000Y-88217759D01*
X210410637Y-87985241D01*
X210210759Y-87785363D01*
X209975727Y-87628320D01*
X209714574Y-87520147D01*
X209437335Y-87465000D01*
X209154665Y-87465000D01*
X208877426Y-87520147D01*
X208616273Y-87628320D01*
X208381241Y-87785363D01*
X208181363Y-87985241D01*
X208026000Y-88217759D01*
X207870637Y-87985241D01*
X207670759Y-87785363D01*
X207435727Y-87628320D01*
X207174574Y-87520147D01*
X206897335Y-87465000D01*
X206614665Y-87465000D01*
X206337426Y-87520147D01*
X206076273Y-87628320D01*
X205841241Y-87785363D01*
X205641363Y-87985241D01*
X205486000Y-88217759D01*
X205330637Y-87985241D01*
X205130759Y-87785363D01*
X204895727Y-87628320D01*
X204634574Y-87520147D01*
X204357335Y-87465000D01*
X204074665Y-87465000D01*
X203797426Y-87520147D01*
X203536273Y-87628320D01*
X203301241Y-87785363D01*
X203101363Y-87985241D01*
X202946000Y-88217759D01*
X202790637Y-87985241D01*
X202590759Y-87785363D01*
X202355727Y-87628320D01*
X202094574Y-87520147D01*
X201817335Y-87465000D01*
X201534665Y-87465000D01*
X201257426Y-87520147D01*
X200996273Y-87628320D01*
X200761241Y-87785363D01*
X200561363Y-87985241D01*
X200406000Y-88217759D01*
X200250637Y-87985241D01*
X200050759Y-87785363D01*
X199815727Y-87628320D01*
X199554574Y-87520147D01*
X199277335Y-87465000D01*
X198994665Y-87465000D01*
X198717426Y-87520147D01*
X198456273Y-87628320D01*
X198221241Y-87785363D01*
X198021363Y-87985241D01*
X197866000Y-88217759D01*
X197710637Y-87985241D01*
X197510759Y-87785363D01*
X197275727Y-87628320D01*
X197014574Y-87520147D01*
X196737335Y-87465000D01*
X196454665Y-87465000D01*
X196177426Y-87520147D01*
X195916273Y-87628320D01*
X195681241Y-87785363D01*
X195481363Y-87985241D01*
X195326000Y-88217759D01*
X195170637Y-87985241D01*
X194970759Y-87785363D01*
X194735727Y-87628320D01*
X194474574Y-87520147D01*
X194197335Y-87465000D01*
X193914665Y-87465000D01*
X193637426Y-87520147D01*
X193376273Y-87628320D01*
X193141241Y-87785363D01*
X192941363Y-87985241D01*
X192786000Y-88217759D01*
X192630637Y-87985241D01*
X192430759Y-87785363D01*
X192195727Y-87628320D01*
X191934574Y-87520147D01*
X191657335Y-87465000D01*
X191374665Y-87465000D01*
X191097426Y-87520147D01*
X190836273Y-87628320D01*
X190601241Y-87785363D01*
X190401363Y-87985241D01*
X190246000Y-88217759D01*
X190090637Y-87985241D01*
X189890759Y-87785363D01*
X189736000Y-87681957D01*
X189736000Y-86928801D01*
X192535003Y-84129799D01*
X192564001Y-84106001D01*
X192615873Y-84042795D01*
X192658974Y-83990277D01*
X192716265Y-83883093D01*
X192767996Y-83907571D01*
X193042184Y-83976300D01*
X193324512Y-83990217D01*
X193604130Y-83948787D01*
X193870292Y-83853603D01*
X193995514Y-83786671D01*
X194067097Y-83542702D01*
X193254000Y-82729605D01*
X193239858Y-82743748D01*
X193060253Y-82564143D01*
X193074395Y-82550000D01*
X193433605Y-82550000D01*
X194246702Y-83363097D01*
X194490671Y-83291514D01*
X194611571Y-83036004D01*
X194680300Y-82761816D01*
X194694217Y-82479488D01*
X194652787Y-82199870D01*
X194557603Y-81933708D01*
X194490671Y-81808486D01*
X194246702Y-81736903D01*
X193433605Y-82550000D01*
X193074395Y-82550000D01*
X193060253Y-82535858D01*
X193239858Y-82356253D01*
X193254000Y-82370395D01*
X194067097Y-81557298D01*
X193995514Y-81313329D01*
X193740004Y-81192429D01*
X193465816Y-81123700D01*
X193183488Y-81109783D01*
X192903870Y-81151213D01*
X192784000Y-81194081D01*
X192784000Y-80809325D01*
X192787676Y-80772000D01*
X192784000Y-80734675D01*
X192784000Y-80734667D01*
X192773003Y-80623014D01*
X192729546Y-80479753D01*
X192658974Y-80347724D01*
X192564001Y-80231999D01*
X192535004Y-80208202D01*
X189793804Y-77467003D01*
X189770001Y-77437999D01*
X189654276Y-77343026D01*
X189522247Y-77272454D01*
X189378986Y-77228997D01*
X189267333Y-77218000D01*
X189267322Y-77218000D01*
X189230000Y-77214324D01*
X189192678Y-77218000D01*
X164796103Y-77218000D01*
X164827932Y-77141158D01*
X164885000Y-76854260D01*
X164885000Y-76561740D01*
X164827932Y-76274842D01*
X164715990Y-76004589D01*
X164553475Y-75761368D01*
X164421620Y-75629513D01*
X164494180Y-75607502D01*
X164604494Y-75548537D01*
X164701185Y-75469185D01*
X164780537Y-75372494D01*
X164839502Y-75262180D01*
X164875812Y-75142482D01*
X164888072Y-75018000D01*
X164888072Y-73318000D01*
X164875812Y-73193518D01*
X164839502Y-73073820D01*
X164780537Y-72963506D01*
X164701185Y-72866815D01*
X164604494Y-72787463D01*
X164494180Y-72728498D01*
X164374482Y-72692188D01*
X164250000Y-72679928D01*
X162550000Y-72679928D01*
X162425518Y-72692188D01*
X162305820Y-72728498D01*
X162195506Y-72787463D01*
X162098815Y-72866815D01*
X162019463Y-72963506D01*
X161960498Y-73073820D01*
X161924188Y-73193518D01*
X161911928Y-73318000D01*
X161911928Y-75018000D01*
X161924188Y-75142482D01*
X161960498Y-75262180D01*
X162019463Y-75372494D01*
X162098815Y-75469185D01*
X162195506Y-75548537D01*
X162305820Y-75607502D01*
X162378380Y-75629513D01*
X162246525Y-75761368D01*
X162084010Y-76004589D01*
X161972068Y-76274842D01*
X161915000Y-76561740D01*
X161915000Y-76854260D01*
X161972068Y-77141158D01*
X162003897Y-77218000D01*
X161096802Y-77218000D01*
X160075804Y-76197003D01*
X160052001Y-76167999D01*
X159936276Y-76073026D01*
X159813056Y-76007163D01*
X159811990Y-76004589D01*
X159649475Y-75761368D01*
X159517620Y-75629513D01*
X159590180Y-75607502D01*
X159700494Y-75548537D01*
X159797185Y-75469185D01*
X159876537Y-75372494D01*
X159935502Y-75262180D01*
X159971812Y-75142482D01*
X159984072Y-75018000D01*
X159984072Y-73318000D01*
X159971812Y-73193518D01*
X159935502Y-73073820D01*
X159876537Y-72963506D01*
X159797185Y-72866815D01*
X159700494Y-72787463D01*
X159590180Y-72728498D01*
X159470482Y-72692188D01*
X159346000Y-72679928D01*
X157646000Y-72679928D01*
X157521518Y-72692188D01*
X157401820Y-72728498D01*
X157291506Y-72787463D01*
X157194815Y-72866815D01*
X157115463Y-72963506D01*
X157056498Y-73073820D01*
X157020188Y-73193518D01*
X157007928Y-73318000D01*
X157007928Y-75018000D01*
X157020188Y-75142482D01*
X157056498Y-75262180D01*
X157115463Y-75372494D01*
X157194815Y-75469185D01*
X157291506Y-75548537D01*
X157401820Y-75607502D01*
X157474380Y-75629513D01*
X157342525Y-75761368D01*
X157180010Y-76004589D01*
X157068068Y-76274842D01*
X157011000Y-76561740D01*
X157011000Y-76854260D01*
X157068068Y-77141158D01*
X157180010Y-77411411D01*
X157342525Y-77654632D01*
X157549368Y-77861475D01*
X157723760Y-77978000D01*
X157549368Y-78094525D01*
X157342525Y-78301368D01*
X157180010Y-78544589D01*
X157068068Y-78814842D01*
X157011000Y-79101740D01*
X157011000Y-79394260D01*
X157068068Y-79681158D01*
X157180010Y-79951411D01*
X157342525Y-80194632D01*
X157549368Y-80401475D01*
X157792589Y-80563990D01*
X158062842Y-80675932D01*
X158349740Y-80733000D01*
X158642260Y-80733000D01*
X158929158Y-80675932D01*
X159199411Y-80563990D01*
X159442632Y-80401475D01*
X159649475Y-80194632D01*
X159811990Y-79951411D01*
X159923932Y-79681158D01*
X159981000Y-79394260D01*
X159981000Y-79101740D01*
X159923932Y-78814842D01*
X159811990Y-78544589D01*
X159649475Y-78301368D01*
X159442632Y-78094525D01*
X159268240Y-77978000D01*
X159442632Y-77861475D01*
X159516653Y-77787454D01*
X160022000Y-78292802D01*
X160022001Y-80711196D01*
X157464844Y-83268355D01*
X157357486Y-83247000D01*
X157094514Y-83247000D01*
X156836595Y-83298304D01*
X156593641Y-83398939D01*
X156374987Y-83545038D01*
X156189038Y-83730987D01*
X156042939Y-83949641D01*
X155942304Y-84192595D01*
X155891000Y-84450514D01*
X155891000Y-84713486D01*
X155942304Y-84971405D01*
X156042939Y-85214359D01*
X156189038Y-85433013D01*
X156374987Y-85618962D01*
X156593641Y-85765061D01*
X156836595Y-85865696D01*
X157094514Y-85917000D01*
X157357486Y-85917000D01*
X157615405Y-85865696D01*
X157858359Y-85765061D01*
X158077013Y-85618962D01*
X158262962Y-85433013D01*
X158409061Y-85214359D01*
X158509696Y-84971405D01*
X158561000Y-84713486D01*
X158561000Y-84450514D01*
X158539645Y-84343156D01*
X161293008Y-81589795D01*
X161322001Y-81566001D01*
X161345795Y-81537008D01*
X161345799Y-81537004D01*
X161416973Y-81450277D01*
X161427051Y-81431423D01*
X161487546Y-81318247D01*
X161531003Y-81174986D01*
X161542000Y-81063333D01*
X161542000Y-81063324D01*
X161545676Y-81026001D01*
X161542000Y-80988678D01*
X161542000Y-78738000D01*
X162003897Y-78738000D01*
X161972068Y-78814842D01*
X161915000Y-79101740D01*
X161915000Y-79394260D01*
X161972068Y-79681158D01*
X162084010Y-79951411D01*
X162246525Y-80194632D01*
X162453368Y-80401475D01*
X162696589Y-80563990D01*
X162966842Y-80675932D01*
X163253740Y-80733000D01*
X163546260Y-80733000D01*
X163711000Y-80700231D01*
X163711001Y-83877711D01*
X163662939Y-83949641D01*
X163562304Y-84192595D01*
X163511000Y-84450514D01*
X163511000Y-84713486D01*
X163562304Y-84971405D01*
X163662939Y-85214359D01*
X163809038Y-85433013D01*
X163994987Y-85618962D01*
X164213641Y-85765061D01*
X164456595Y-85865696D01*
X164714514Y-85917000D01*
X164977486Y-85917000D01*
X165235405Y-85865696D01*
X165314098Y-85833100D01*
X162245199Y-88902000D01*
X162060178Y-88902000D01*
X161935475Y-88715368D01*
X161728632Y-88508525D01*
X161485411Y-88346010D01*
X161215158Y-88234068D01*
X160928260Y-88177000D01*
X160635740Y-88177000D01*
X160348842Y-88234068D01*
X160078589Y-88346010D01*
X159835368Y-88508525D01*
X159628525Y-88715368D01*
X159466010Y-88958589D01*
X159354068Y-89228842D01*
X159297000Y-89515740D01*
X159297000Y-89808260D01*
X159354068Y-90095158D01*
X159466010Y-90365411D01*
X159628525Y-90608632D01*
X159835368Y-90815475D01*
X160009760Y-90932000D01*
X159835368Y-91048525D01*
X159628525Y-91255368D01*
X159466010Y-91498589D01*
X159354068Y-91768842D01*
X159297000Y-92055740D01*
X159297000Y-92348260D01*
X159354068Y-92635158D01*
X159466010Y-92905411D01*
X159628525Y-93148632D01*
X159760380Y-93280487D01*
X159687820Y-93302498D01*
X159577506Y-93361463D01*
X159480815Y-93440815D01*
X159401463Y-93537506D01*
X159342498Y-93647820D01*
X159306188Y-93767518D01*
X159293928Y-93892000D01*
X159293928Y-95592000D01*
X159306188Y-95716482D01*
X159342498Y-95836180D01*
X159401463Y-95946494D01*
X159480815Y-96043185D01*
X159577506Y-96122537D01*
X159687820Y-96181502D01*
X159807518Y-96217812D01*
X159932000Y-96230072D01*
X161632000Y-96230072D01*
X161756482Y-96217812D01*
X161876180Y-96181502D01*
X161986494Y-96122537D01*
X162083185Y-96043185D01*
X162162537Y-95946494D01*
X162221502Y-95836180D01*
X162257812Y-95716482D01*
X162270072Y-95592000D01*
X162270072Y-95502000D01*
X165547199Y-95502000D01*
X166626000Y-96580803D01*
X166626001Y-107404668D01*
X166622324Y-107442000D01*
X166636998Y-107590985D01*
X166680454Y-107734246D01*
X166751026Y-107866276D01*
X166819738Y-107950001D01*
X166846000Y-107982001D01*
X166874998Y-108005799D01*
X170034000Y-111164802D01*
X170034000Y-111226939D01*
X170073774Y-111426898D01*
X170151795Y-111615256D01*
X170265063Y-111784774D01*
X170409226Y-111928937D01*
X170578744Y-112042205D01*
X170767102Y-112120226D01*
X170967061Y-112160000D01*
X171170939Y-112160000D01*
X171370898Y-112120226D01*
X171559256Y-112042205D01*
X171728774Y-111928937D01*
X171872937Y-111784774D01*
X171986205Y-111615256D01*
X172064226Y-111426898D01*
X172104000Y-111226939D01*
X172104000Y-111023061D01*
X172064226Y-110823102D01*
X171986205Y-110634744D01*
X171872937Y-110465226D01*
X171728774Y-110321063D01*
X171559256Y-110207795D01*
X171370898Y-110129774D01*
X171170939Y-110090000D01*
X171108802Y-110090000D01*
X168146000Y-107127199D01*
X168146000Y-104489039D01*
X170566096Y-104489039D01*
X170606754Y-104623087D01*
X170726963Y-104877420D01*
X170894481Y-105103414D01*
X171102869Y-105292385D01*
X171344119Y-105437070D01*
X171608960Y-105531909D01*
X171831000Y-105410624D01*
X171831000Y-104267000D01*
X172085000Y-104267000D01*
X172085000Y-105410624D01*
X172307040Y-105531909D01*
X172571881Y-105437070D01*
X172813131Y-105292385D01*
X173021519Y-105103414D01*
X173189037Y-104877420D01*
X173309246Y-104623087D01*
X173349904Y-104489039D01*
X173227915Y-104267000D01*
X172085000Y-104267000D01*
X171831000Y-104267000D01*
X170688085Y-104267000D01*
X170566096Y-104489039D01*
X168146000Y-104489039D01*
X168146000Y-96303322D01*
X168149676Y-96265999D01*
X168146000Y-96228676D01*
X168146000Y-96228667D01*
X168135003Y-96117014D01*
X168091546Y-95973753D01*
X168020974Y-95841724D01*
X167983652Y-95796247D01*
X167949799Y-95754996D01*
X167949795Y-95754992D01*
X167926001Y-95725999D01*
X167897009Y-95702206D01*
X166425803Y-94231002D01*
X166402001Y-94201999D01*
X166286276Y-94107026D01*
X166154247Y-94036454D01*
X166010986Y-93992997D01*
X165899333Y-93982000D01*
X165899322Y-93982000D01*
X165862000Y-93978324D01*
X165824678Y-93982000D01*
X162270072Y-93982000D01*
X162270072Y-93892000D01*
X162257812Y-93767518D01*
X162221502Y-93647820D01*
X162162537Y-93537506D01*
X162083185Y-93440815D01*
X161986494Y-93361463D01*
X161876180Y-93302498D01*
X161803620Y-93280487D01*
X161935475Y-93148632D01*
X162097990Y-92905411D01*
X162099056Y-92902837D01*
X162222276Y-92836974D01*
X162338001Y-92742001D01*
X162361804Y-92712997D01*
X165414802Y-89660000D01*
X170519928Y-89660000D01*
X170519928Y-89700000D01*
X170532188Y-89824482D01*
X170568498Y-89944180D01*
X170627463Y-90054494D01*
X170706815Y-90151185D01*
X170803506Y-90230537D01*
X170913820Y-90289502D01*
X171033518Y-90325812D01*
X171041961Y-90326643D01*
X170843363Y-90525241D01*
X170686320Y-90760273D01*
X170578147Y-91021426D01*
X170523000Y-91298665D01*
X170523000Y-91581335D01*
X170578147Y-91858574D01*
X170686320Y-92119727D01*
X170843363Y-92354759D01*
X171043241Y-92554637D01*
X171275759Y-92710000D01*
X171043241Y-92865363D01*
X170843363Y-93065241D01*
X170686320Y-93300273D01*
X170578147Y-93561426D01*
X170523000Y-93838665D01*
X170523000Y-94121335D01*
X170578147Y-94398574D01*
X170686320Y-94659727D01*
X170843363Y-94894759D01*
X171043241Y-95094637D01*
X171198000Y-95198044D01*
X171198001Y-95301956D01*
X171043241Y-95405363D01*
X170843363Y-95605241D01*
X170686320Y-95840273D01*
X170578147Y-96101426D01*
X170523000Y-96378665D01*
X170523000Y-96661335D01*
X170578147Y-96938574D01*
X170686320Y-97199727D01*
X170843363Y-97434759D01*
X171043241Y-97634637D01*
X171275759Y-97790000D01*
X171043241Y-97945363D01*
X170843363Y-98145241D01*
X170686320Y-98380273D01*
X170578147Y-98641426D01*
X170523000Y-98918665D01*
X170523000Y-99201335D01*
X170578147Y-99478574D01*
X170686320Y-99739727D01*
X170843363Y-99974759D01*
X171043241Y-100174637D01*
X171275759Y-100330000D01*
X171043241Y-100485363D01*
X170843363Y-100685241D01*
X170743499Y-100834698D01*
X170489803Y-100581002D01*
X170489799Y-100580997D01*
X169924000Y-100015199D01*
X169924000Y-93001323D01*
X169927676Y-92964000D01*
X169924000Y-92926677D01*
X169924000Y-92926667D01*
X169913003Y-92815014D01*
X169869546Y-92671753D01*
X169833858Y-92604986D01*
X169798974Y-92539723D01*
X169727799Y-92452997D01*
X169704001Y-92423999D01*
X169675003Y-92400201D01*
X168167000Y-90892199D01*
X168167000Y-90830061D01*
X168127226Y-90630102D01*
X168049205Y-90441744D01*
X167935937Y-90272226D01*
X167791774Y-90128063D01*
X167622256Y-90014795D01*
X167433898Y-89936774D01*
X167233939Y-89897000D01*
X167030061Y-89897000D01*
X166830102Y-89936774D01*
X166641744Y-90014795D01*
X166472226Y-90128063D01*
X166328063Y-90272226D01*
X166214795Y-90441744D01*
X166136774Y-90630102D01*
X166097000Y-90830061D01*
X166097000Y-91033939D01*
X166136774Y-91233898D01*
X166214795Y-91422256D01*
X166328063Y-91591774D01*
X166472226Y-91735937D01*
X166641744Y-91849205D01*
X166830102Y-91927226D01*
X167030061Y-91967000D01*
X167092199Y-91967000D01*
X168404001Y-93278803D01*
X168404000Y-100292678D01*
X168400324Y-100330000D01*
X168404000Y-100367322D01*
X168404000Y-100367332D01*
X168414997Y-100478985D01*
X168450795Y-100596997D01*
X168458454Y-100622246D01*
X168529026Y-100754276D01*
X168563320Y-100796063D01*
X168623999Y-100870001D01*
X168653002Y-100893803D01*
X169414997Y-101655799D01*
X169415002Y-101655803D01*
X169870200Y-102111002D01*
X169893999Y-102140001D01*
X170009724Y-102234974D01*
X170141753Y-102305546D01*
X170285014Y-102349003D01*
X170396667Y-102360000D01*
X170396676Y-102360000D01*
X170433999Y-102363676D01*
X170471322Y-102360000D01*
X170739957Y-102360000D01*
X170843363Y-102514759D01*
X171043241Y-102714637D01*
X171278273Y-102871680D01*
X171288865Y-102876067D01*
X171102869Y-102987615D01*
X170894481Y-103176586D01*
X170726963Y-103402580D01*
X170606754Y-103656913D01*
X170566096Y-103790961D01*
X170688085Y-104013000D01*
X171831000Y-104013000D01*
X171831000Y-103993000D01*
X172085000Y-103993000D01*
X172085000Y-104013000D01*
X173227915Y-104013000D01*
X173349904Y-103790961D01*
X173309246Y-103656913D01*
X173189037Y-103402580D01*
X173021519Y-103176586D01*
X172813131Y-102987615D01*
X172627135Y-102876067D01*
X172637727Y-102871680D01*
X172872759Y-102714637D01*
X173072637Y-102514759D01*
X173229680Y-102279727D01*
X173337853Y-102018574D01*
X173393000Y-101741335D01*
X173393000Y-101458665D01*
X173337853Y-101181426D01*
X173229680Y-100920273D01*
X173072637Y-100685241D01*
X172872759Y-100485363D01*
X172640241Y-100330000D01*
X172872759Y-100174637D01*
X173072637Y-99974759D01*
X173176043Y-99820000D01*
X178359957Y-99820000D01*
X178463363Y-99974759D01*
X178663241Y-100174637D01*
X178895759Y-100330000D01*
X178663241Y-100485363D01*
X178463363Y-100685241D01*
X178306320Y-100920273D01*
X178198147Y-101181426D01*
X178143000Y-101458665D01*
X178143000Y-101741335D01*
X178198147Y-102018574D01*
X178306320Y-102279727D01*
X178463363Y-102514759D01*
X178663241Y-102714637D01*
X178895759Y-102870000D01*
X178663241Y-103025363D01*
X178463363Y-103225241D01*
X178306320Y-103460273D01*
X178198147Y-103721426D01*
X178143000Y-103998665D01*
X178143000Y-104281335D01*
X178198147Y-104558574D01*
X178306320Y-104819727D01*
X178463363Y-105054759D01*
X178663241Y-105254637D01*
X178898273Y-105411680D01*
X179159426Y-105519853D01*
X179436665Y-105575000D01*
X179719335Y-105575000D01*
X179996574Y-105519853D01*
X180257727Y-105411680D01*
X180492759Y-105254637D01*
X180692637Y-105054759D01*
X180849680Y-104819727D01*
X180850001Y-104818953D01*
X180850001Y-105603197D01*
X178581000Y-107872198D01*
X178581000Y-107848061D01*
X178541226Y-107648102D01*
X178463205Y-107459744D01*
X178349937Y-107290226D01*
X178205774Y-107146063D01*
X178036256Y-107032795D01*
X177847898Y-106954774D01*
X177647939Y-106915000D01*
X177444061Y-106915000D01*
X177244102Y-106954774D01*
X177055744Y-107032795D01*
X176886226Y-107146063D01*
X176742063Y-107290226D01*
X176628795Y-107459744D01*
X176550774Y-107648102D01*
X176511000Y-107848061D01*
X176511000Y-107910198D01*
X171156199Y-113265000D01*
X171094061Y-113265000D01*
X170894102Y-113304774D01*
X170705744Y-113382795D01*
X170536226Y-113496063D01*
X170392063Y-113640226D01*
X170278795Y-113809744D01*
X170200774Y-113998102D01*
X170161000Y-114198061D01*
X170161000Y-114401939D01*
X170200774Y-114601898D01*
X170278795Y-114790256D01*
X170392063Y-114959774D01*
X170536226Y-115103937D01*
X170705744Y-115217205D01*
X170894102Y-115295226D01*
X171094061Y-115335000D01*
X171118199Y-115335000D01*
X170756199Y-115697000D01*
X169791000Y-115697000D01*
X169791000Y-112323752D01*
X169796491Y-112268000D01*
X169774577Y-112045501D01*
X169709676Y-111831553D01*
X169604284Y-111634377D01*
X169462449Y-111461551D01*
X169289623Y-111319716D01*
X169092447Y-111214324D01*
X168878499Y-111149423D01*
X168711752Y-111133000D01*
X168656000Y-111127509D01*
X168600249Y-111133000D01*
X168600248Y-111133000D01*
X168433501Y-111149423D01*
X168219553Y-111214324D01*
X168022377Y-111319716D01*
X167849551Y-111461551D01*
X167707716Y-111634377D01*
X167602324Y-111831553D01*
X167537423Y-112045501D01*
X167515509Y-112268000D01*
X167521001Y-112323762D01*
X167521001Y-115289441D01*
X167500450Y-115272575D01*
X167385793Y-115211290D01*
X167261383Y-115173550D01*
X167164419Y-115164000D01*
X167132000Y-115160807D01*
X167099581Y-115164000D01*
X153568000Y-115164000D01*
X153568000Y-101433505D01*
X153718640Y-101433505D01*
X153718640Y-102274495D01*
X153882709Y-103099326D01*
X154204542Y-103876300D01*
X154671771Y-104575559D01*
X155266441Y-105170229D01*
X155965700Y-105637458D01*
X156742674Y-105959291D01*
X157567505Y-106123360D01*
X158408495Y-106123360D01*
X159233326Y-105959291D01*
X160010300Y-105637458D01*
X160709559Y-105170229D01*
X161304229Y-104575559D01*
X161771458Y-103876300D01*
X162093291Y-103099326D01*
X162257360Y-102274495D01*
X162257360Y-101433505D01*
X162093291Y-100608674D01*
X161771458Y-99831700D01*
X161304229Y-99132441D01*
X160709559Y-98537771D01*
X160010300Y-98070542D01*
X159233326Y-97748709D01*
X158408495Y-97584640D01*
X157567505Y-97584640D01*
X156742674Y-97748709D01*
X155965700Y-98070542D01*
X155266441Y-98537771D01*
X154671771Y-99132441D01*
X154204542Y-99831700D01*
X153882709Y-100608674D01*
X153718640Y-101433505D01*
X153568000Y-101433505D01*
X153568000Y-66700000D01*
X237084000Y-66700000D01*
X237084001Y-115164000D01*
%TA.AperFunction,Conductor*%
D24*
G36*
X237084001Y-115164000D02*
G01*
X223552419Y-115164000D01*
X223520000Y-115160807D01*
X223487581Y-115164000D01*
X223390617Y-115173550D01*
X223266207Y-115211290D01*
X223151550Y-115272575D01*
X223051052Y-115355052D01*
X222968575Y-115455550D01*
X222907290Y-115570207D01*
X222869550Y-115694617D01*
X222869315Y-115697000D01*
X220216000Y-115697000D01*
X220216000Y-114083323D01*
X220219676Y-114046000D01*
X220216000Y-114008677D01*
X220216000Y-114008667D01*
X220205003Y-113897014D01*
X220161546Y-113753753D01*
X220099030Y-113636795D01*
X220090974Y-113621723D01*
X220019799Y-113534997D01*
X219996001Y-113505999D01*
X219967003Y-113482201D01*
X215136000Y-108651199D01*
X215136000Y-105358043D01*
X215290759Y-105254637D01*
X215490637Y-105054759D01*
X215646000Y-104822241D01*
X215801363Y-105054759D01*
X216001241Y-105254637D01*
X216236273Y-105411680D01*
X216497426Y-105519853D01*
X216774665Y-105575000D01*
X217057335Y-105575000D01*
X217334574Y-105519853D01*
X217595727Y-105411680D01*
X217830759Y-105254637D01*
X218030637Y-105054759D01*
X218187680Y-104819727D01*
X218192067Y-104809135D01*
X218303615Y-104995131D01*
X218492586Y-105203519D01*
X218718580Y-105371037D01*
X218972913Y-105491246D01*
X219106961Y-105531904D01*
X219329000Y-105409915D01*
X219329000Y-104267000D01*
X219583000Y-104267000D01*
X219583000Y-105409915D01*
X219805039Y-105531904D01*
X219939087Y-105491246D01*
X220193420Y-105371037D01*
X220419414Y-105203519D01*
X220608385Y-104995131D01*
X220753070Y-104753881D01*
X220847909Y-104489040D01*
X220726624Y-104267000D01*
X219583000Y-104267000D01*
X219329000Y-104267000D01*
X219309000Y-104267000D01*
X219309000Y-104013000D01*
X219329000Y-104013000D01*
X219329000Y-102870085D01*
X219583000Y-102870085D01*
X219583000Y-104013000D01*
X220726624Y-104013000D01*
X220847909Y-103790960D01*
X220753070Y-103526119D01*
X220608385Y-103284869D01*
X220419414Y-103076481D01*
X220193420Y-102908963D01*
X219939087Y-102788754D01*
X219805039Y-102748096D01*
X219583000Y-102870085D01*
X219329000Y-102870085D01*
X219106961Y-102748096D01*
X218972913Y-102788754D01*
X218718580Y-102908963D01*
X218492586Y-103076481D01*
X218303615Y-103284869D01*
X218192067Y-103470865D01*
X218187680Y-103460273D01*
X218030637Y-103225241D01*
X217830759Y-103025363D01*
X217676000Y-102921957D01*
X217676000Y-102907325D01*
X217679676Y-102870000D01*
X217676000Y-102832675D01*
X217676000Y-102832667D01*
X217665003Y-102721014D01*
X217621546Y-102577753D01*
X217550974Y-102445724D01*
X217456001Y-102329999D01*
X217427004Y-102306202D01*
X217062307Y-101941505D01*
X228394640Y-101941505D01*
X228394640Y-102782495D01*
X228558709Y-103607326D01*
X228880542Y-104384300D01*
X229347771Y-105083559D01*
X229942441Y-105678229D01*
X230641700Y-106145458D01*
X231418674Y-106467291D01*
X232243505Y-106631360D01*
X233084495Y-106631360D01*
X233909326Y-106467291D01*
X234686300Y-106145458D01*
X235385559Y-105678229D01*
X235980229Y-105083559D01*
X236447458Y-104384300D01*
X236769291Y-103607326D01*
X236933360Y-102782495D01*
X236933360Y-101941505D01*
X236769291Y-101116674D01*
X236447458Y-100339700D01*
X235980229Y-99640441D01*
X235385559Y-99045771D01*
X234686300Y-98578542D01*
X233909326Y-98256709D01*
X233084495Y-98092640D01*
X232243505Y-98092640D01*
X231418674Y-98256709D01*
X230641700Y-98578542D01*
X229942441Y-99045771D01*
X229347771Y-99640441D01*
X228880542Y-100339700D01*
X228558709Y-101116674D01*
X228394640Y-101941505D01*
X217062307Y-101941505D01*
X216717803Y-101597002D01*
X216694001Y-101567999D01*
X216578276Y-101473026D01*
X216446247Y-101402454D01*
X216302986Y-101358997D01*
X216191333Y-101348000D01*
X216191322Y-101348000D01*
X216154000Y-101344324D01*
X216116678Y-101348000D01*
X213905322Y-101348000D01*
X213867999Y-101344324D01*
X213830676Y-101348000D01*
X213830667Y-101348000D01*
X213719014Y-101358997D01*
X213575753Y-101402454D01*
X213443724Y-101473026D01*
X213327999Y-101567999D01*
X213304201Y-101596997D01*
X212449999Y-102451200D01*
X212421001Y-102474998D01*
X212397203Y-102503996D01*
X212397202Y-102503997D01*
X212326027Y-102590723D01*
X212255455Y-102722753D01*
X212244707Y-102758184D01*
X211977335Y-102705000D01*
X211694665Y-102705000D01*
X211417426Y-102760147D01*
X211156273Y-102868320D01*
X210921241Y-103025363D01*
X210721363Y-103225241D01*
X210566000Y-103457759D01*
X210410637Y-103225241D01*
X210210759Y-103025363D01*
X209975727Y-102868320D01*
X209714574Y-102760147D01*
X209437335Y-102705000D01*
X209154665Y-102705000D01*
X208877426Y-102760147D01*
X208616273Y-102868320D01*
X208381241Y-103025363D01*
X208181363Y-103225241D01*
X208026000Y-103457759D01*
X207870637Y-103225241D01*
X207670759Y-103025363D01*
X207435727Y-102868320D01*
X207174574Y-102760147D01*
X206897335Y-102705000D01*
X206614665Y-102705000D01*
X206337426Y-102760147D01*
X206076273Y-102868320D01*
X205841241Y-103025363D01*
X205641363Y-103225241D01*
X205486000Y-103457759D01*
X205330637Y-103225241D01*
X205130759Y-103025363D01*
X204895727Y-102868320D01*
X204634574Y-102760147D01*
X204357335Y-102705000D01*
X204074665Y-102705000D01*
X203797426Y-102760147D01*
X203536273Y-102868320D01*
X203301241Y-103025363D01*
X203101363Y-103225241D01*
X202946000Y-103457759D01*
X202790637Y-103225241D01*
X202590759Y-103025363D01*
X202355727Y-102868320D01*
X202094574Y-102760147D01*
X201817335Y-102705000D01*
X201534665Y-102705000D01*
X201257426Y-102760147D01*
X200996273Y-102868320D01*
X200761241Y-103025363D01*
X200561363Y-103225241D01*
X200406000Y-103457759D01*
X200250637Y-103225241D01*
X200050759Y-103025363D01*
X199815727Y-102868320D01*
X199554574Y-102760147D01*
X199277335Y-102705000D01*
X198994665Y-102705000D01*
X198717426Y-102760147D01*
X198456273Y-102868320D01*
X198221241Y-103025363D01*
X198021363Y-103225241D01*
X197866000Y-103457759D01*
X197710637Y-103225241D01*
X197510759Y-103025363D01*
X197275727Y-102868320D01*
X197014574Y-102760147D01*
X196737335Y-102705000D01*
X196454665Y-102705000D01*
X196177426Y-102760147D01*
X195916273Y-102868320D01*
X195681241Y-103025363D01*
X195481363Y-103225241D01*
X195326000Y-103457759D01*
X195170637Y-103225241D01*
X194970759Y-103025363D01*
X194735727Y-102868320D01*
X194474574Y-102760147D01*
X194197335Y-102705000D01*
X193914665Y-102705000D01*
X193637426Y-102760147D01*
X193376273Y-102868320D01*
X193141241Y-103025363D01*
X192941363Y-103225241D01*
X192786000Y-103457759D01*
X192630637Y-103225241D01*
X192430759Y-103025363D01*
X192195727Y-102868320D01*
X191934574Y-102760147D01*
X191657335Y-102705000D01*
X191485801Y-102705000D01*
X192513000Y-101677801D01*
X192513000Y-101701939D01*
X192552774Y-101901898D01*
X192630795Y-102090256D01*
X192744063Y-102259774D01*
X192888226Y-102403937D01*
X193057744Y-102517205D01*
X193246102Y-102595226D01*
X193446061Y-102635000D01*
X193649939Y-102635000D01*
X193849898Y-102595226D01*
X194038256Y-102517205D01*
X194207774Y-102403937D01*
X194251711Y-102360000D01*
X203258289Y-102360000D01*
X203302226Y-102403937D01*
X203471744Y-102517205D01*
X203660102Y-102595226D01*
X203860061Y-102635000D01*
X204063939Y-102635000D01*
X204263898Y-102595226D01*
X204452256Y-102517205D01*
X204621774Y-102403937D01*
X204765937Y-102259774D01*
X204879205Y-102090256D01*
X204957226Y-101901898D01*
X204997000Y-101701939D01*
X204997000Y-101498061D01*
X204957226Y-101298102D01*
X204879205Y-101109744D01*
X204765937Y-100940226D01*
X204621774Y-100796063D01*
X204452256Y-100682795D01*
X204263898Y-100604774D01*
X204063939Y-100565000D01*
X203860061Y-100565000D01*
X203660102Y-100604774D01*
X203471744Y-100682795D01*
X203302226Y-100796063D01*
X203258289Y-100840000D01*
X194251711Y-100840000D01*
X194207774Y-100796063D01*
X194038256Y-100682795D01*
X193849898Y-100604774D01*
X193649939Y-100565000D01*
X193625801Y-100565000D01*
X197164802Y-97026000D01*
X197339000Y-97026000D01*
X197339000Y-97129939D01*
X197378774Y-97329898D01*
X197456795Y-97518256D01*
X197570063Y-97687774D01*
X197714226Y-97831937D01*
X197883744Y-97945205D01*
X198072102Y-98023226D01*
X198272061Y-98063000D01*
X198475939Y-98063000D01*
X198675898Y-98023226D01*
X198864256Y-97945205D01*
X199033774Y-97831937D01*
X199077711Y-97788000D01*
X218148678Y-97788000D01*
X218186000Y-97791676D01*
X218223322Y-97788000D01*
X218223333Y-97788000D01*
X218334986Y-97777003D01*
X218478247Y-97733546D01*
X218610276Y-97662974D01*
X218726001Y-97568001D01*
X218749804Y-97538997D01*
X219967003Y-96321799D01*
X219996001Y-96298001D01*
X220090974Y-96182276D01*
X220161546Y-96050247D01*
X220205003Y-95906986D01*
X220216000Y-95795333D01*
X220216000Y-95795324D01*
X220219676Y-95758001D01*
X220216000Y-95720678D01*
X220216000Y-90118043D01*
X220370759Y-90014637D01*
X220570637Y-89814759D01*
X220727680Y-89579727D01*
X220835853Y-89318574D01*
X220891000Y-89041335D01*
X220891000Y-88758665D01*
X220835853Y-88481426D01*
X220727680Y-88220273D01*
X220570637Y-87985241D01*
X220370759Y-87785363D01*
X220135727Y-87628320D01*
X219874574Y-87520147D01*
X219597335Y-87465000D01*
X219314665Y-87465000D01*
X219037426Y-87520147D01*
X218776273Y-87628320D01*
X218541241Y-87785363D01*
X218341363Y-87985241D01*
X218186000Y-88217759D01*
X218030637Y-87985241D01*
X217830759Y-87785363D01*
X217595727Y-87628320D01*
X217334574Y-87520147D01*
X217057335Y-87465000D01*
X216774665Y-87465000D01*
X216497426Y-87520147D01*
X216236273Y-87628320D01*
X216001241Y-87785363D01*
X215801363Y-87985241D01*
X215646000Y-88217759D01*
X215490637Y-87985241D01*
X215290759Y-87785363D01*
X215055727Y-87628320D01*
X214794574Y-87520147D01*
X214517335Y-87465000D01*
X214234665Y-87465000D01*
X213957426Y-87520147D01*
X213696273Y-87628320D01*
X213461241Y-87785363D01*
X213261363Y-87985241D01*
X213106000Y-88217759D01*
X212950637Y-87985241D01*
X212750759Y-87785363D01*
X212515727Y-87628320D01*
X212254574Y-87520147D01*
X211977335Y-87465000D01*
X211694665Y-87465000D01*
X211417426Y-87520147D01*
X211156273Y-87628320D01*
X210921241Y-87785363D01*
X210721363Y-87985241D01*
X210566000Y-88217759D01*
X210410637Y-87985241D01*
X210210759Y-87785363D01*
X209975727Y-87628320D01*
X209714574Y-87520147D01*
X209437335Y-87465000D01*
X209154665Y-87465000D01*
X208877426Y-87520147D01*
X208616273Y-87628320D01*
X208381241Y-87785363D01*
X208181363Y-87985241D01*
X208026000Y-88217759D01*
X207870637Y-87985241D01*
X207670759Y-87785363D01*
X207435727Y-87628320D01*
X207174574Y-87520147D01*
X206897335Y-87465000D01*
X206614665Y-87465000D01*
X206337426Y-87520147D01*
X206076273Y-87628320D01*
X205841241Y-87785363D01*
X205641363Y-87985241D01*
X205486000Y-88217759D01*
X205330637Y-87985241D01*
X205130759Y-87785363D01*
X204895727Y-87628320D01*
X204634574Y-87520147D01*
X204357335Y-87465000D01*
X204074665Y-87465000D01*
X203797426Y-87520147D01*
X203536273Y-87628320D01*
X203301241Y-87785363D01*
X203101363Y-87985241D01*
X202946000Y-88217759D01*
X202790637Y-87985241D01*
X202590759Y-87785363D01*
X202355727Y-87628320D01*
X202094574Y-87520147D01*
X201817335Y-87465000D01*
X201534665Y-87465000D01*
X201257426Y-87520147D01*
X200996273Y-87628320D01*
X200761241Y-87785363D01*
X200561363Y-87985241D01*
X200406000Y-88217759D01*
X200250637Y-87985241D01*
X200050759Y-87785363D01*
X199815727Y-87628320D01*
X199554574Y-87520147D01*
X199277335Y-87465000D01*
X198994665Y-87465000D01*
X198717426Y-87520147D01*
X198456273Y-87628320D01*
X198221241Y-87785363D01*
X198021363Y-87985241D01*
X197866000Y-88217759D01*
X197710637Y-87985241D01*
X197510759Y-87785363D01*
X197275727Y-87628320D01*
X197014574Y-87520147D01*
X196737335Y-87465000D01*
X196454665Y-87465000D01*
X196177426Y-87520147D01*
X195916273Y-87628320D01*
X195681241Y-87785363D01*
X195481363Y-87985241D01*
X195326000Y-88217759D01*
X195170637Y-87985241D01*
X194970759Y-87785363D01*
X194735727Y-87628320D01*
X194474574Y-87520147D01*
X194197335Y-87465000D01*
X193914665Y-87465000D01*
X193637426Y-87520147D01*
X193376273Y-87628320D01*
X193141241Y-87785363D01*
X192941363Y-87985241D01*
X192786000Y-88217759D01*
X192630637Y-87985241D01*
X192430759Y-87785363D01*
X192195727Y-87628320D01*
X191934574Y-87520147D01*
X191657335Y-87465000D01*
X191374665Y-87465000D01*
X191097426Y-87520147D01*
X190836273Y-87628320D01*
X190601241Y-87785363D01*
X190401363Y-87985241D01*
X190246000Y-88217759D01*
X190090637Y-87985241D01*
X189890759Y-87785363D01*
X189736000Y-87681957D01*
X189736000Y-86928801D01*
X192535003Y-84129799D01*
X192564001Y-84106001D01*
X192615873Y-84042795D01*
X192658974Y-83990277D01*
X192716265Y-83883093D01*
X192767996Y-83907571D01*
X193042184Y-83976300D01*
X193324512Y-83990217D01*
X193604130Y-83948787D01*
X193870292Y-83853603D01*
X193995514Y-83786671D01*
X194067097Y-83542702D01*
X193254000Y-82729605D01*
X193239858Y-82743748D01*
X193060253Y-82564143D01*
X193074395Y-82550000D01*
X193433605Y-82550000D01*
X194246702Y-83363097D01*
X194490671Y-83291514D01*
X194611571Y-83036004D01*
X194680300Y-82761816D01*
X194694217Y-82479488D01*
X194652787Y-82199870D01*
X194557603Y-81933708D01*
X194490671Y-81808486D01*
X194246702Y-81736903D01*
X193433605Y-82550000D01*
X193074395Y-82550000D01*
X193060253Y-82535858D01*
X193239858Y-82356253D01*
X193254000Y-82370395D01*
X194067097Y-81557298D01*
X193995514Y-81313329D01*
X193740004Y-81192429D01*
X193465816Y-81123700D01*
X193183488Y-81109783D01*
X192903870Y-81151213D01*
X192784000Y-81194081D01*
X192784000Y-80809325D01*
X192787676Y-80772000D01*
X192784000Y-80734675D01*
X192784000Y-80734667D01*
X192773003Y-80623014D01*
X192729546Y-80479753D01*
X192658974Y-80347724D01*
X192564001Y-80231999D01*
X192535004Y-80208202D01*
X189793804Y-77467003D01*
X189770001Y-77437999D01*
X189654276Y-77343026D01*
X189522247Y-77272454D01*
X189378986Y-77228997D01*
X189267333Y-77218000D01*
X189267322Y-77218000D01*
X189230000Y-77214324D01*
X189192678Y-77218000D01*
X164796103Y-77218000D01*
X164827932Y-77141158D01*
X164885000Y-76854260D01*
X164885000Y-76561740D01*
X164827932Y-76274842D01*
X164715990Y-76004589D01*
X164553475Y-75761368D01*
X164421620Y-75629513D01*
X164494180Y-75607502D01*
X164604494Y-75548537D01*
X164701185Y-75469185D01*
X164780537Y-75372494D01*
X164839502Y-75262180D01*
X164875812Y-75142482D01*
X164888072Y-75018000D01*
X164888072Y-73318000D01*
X164875812Y-73193518D01*
X164839502Y-73073820D01*
X164780537Y-72963506D01*
X164701185Y-72866815D01*
X164604494Y-72787463D01*
X164494180Y-72728498D01*
X164374482Y-72692188D01*
X164250000Y-72679928D01*
X162550000Y-72679928D01*
X162425518Y-72692188D01*
X162305820Y-72728498D01*
X162195506Y-72787463D01*
X162098815Y-72866815D01*
X162019463Y-72963506D01*
X161960498Y-73073820D01*
X161924188Y-73193518D01*
X161911928Y-73318000D01*
X161911928Y-75018000D01*
X161924188Y-75142482D01*
X161960498Y-75262180D01*
X162019463Y-75372494D01*
X162098815Y-75469185D01*
X162195506Y-75548537D01*
X162305820Y-75607502D01*
X162378380Y-75629513D01*
X162246525Y-75761368D01*
X162084010Y-76004589D01*
X161972068Y-76274842D01*
X161915000Y-76561740D01*
X161915000Y-76854260D01*
X161972068Y-77141158D01*
X162003897Y-77218000D01*
X161096802Y-77218000D01*
X160075804Y-76197003D01*
X160052001Y-76167999D01*
X159936276Y-76073026D01*
X159813056Y-76007163D01*
X159811990Y-76004589D01*
X159649475Y-75761368D01*
X159517620Y-75629513D01*
X159590180Y-75607502D01*
X159700494Y-75548537D01*
X159797185Y-75469185D01*
X159876537Y-75372494D01*
X159935502Y-75262180D01*
X159971812Y-75142482D01*
X159984072Y-75018000D01*
X159984072Y-73318000D01*
X159971812Y-73193518D01*
X159935502Y-73073820D01*
X159876537Y-72963506D01*
X159797185Y-72866815D01*
X159700494Y-72787463D01*
X159590180Y-72728498D01*
X159470482Y-72692188D01*
X159346000Y-72679928D01*
X157646000Y-72679928D01*
X157521518Y-72692188D01*
X157401820Y-72728498D01*
X157291506Y-72787463D01*
X157194815Y-72866815D01*
X157115463Y-72963506D01*
X157056498Y-73073820D01*
X157020188Y-73193518D01*
X157007928Y-73318000D01*
X157007928Y-75018000D01*
X157020188Y-75142482D01*
X157056498Y-75262180D01*
X157115463Y-75372494D01*
X157194815Y-75469185D01*
X157291506Y-75548537D01*
X157401820Y-75607502D01*
X157474380Y-75629513D01*
X157342525Y-75761368D01*
X157180010Y-76004589D01*
X157068068Y-76274842D01*
X157011000Y-76561740D01*
X157011000Y-76854260D01*
X157068068Y-77141158D01*
X157180010Y-77411411D01*
X157342525Y-77654632D01*
X157549368Y-77861475D01*
X157723760Y-77978000D01*
X157549368Y-78094525D01*
X157342525Y-78301368D01*
X157180010Y-78544589D01*
X157068068Y-78814842D01*
X157011000Y-79101740D01*
X157011000Y-79394260D01*
X157068068Y-79681158D01*
X157180010Y-79951411D01*
X157342525Y-80194632D01*
X157549368Y-80401475D01*
X157792589Y-80563990D01*
X158062842Y-80675932D01*
X158349740Y-80733000D01*
X158642260Y-80733000D01*
X158929158Y-80675932D01*
X159199411Y-80563990D01*
X159442632Y-80401475D01*
X159649475Y-80194632D01*
X159811990Y-79951411D01*
X159923932Y-79681158D01*
X159981000Y-79394260D01*
X159981000Y-79101740D01*
X159923932Y-78814842D01*
X159811990Y-78544589D01*
X159649475Y-78301368D01*
X159442632Y-78094525D01*
X159268240Y-77978000D01*
X159442632Y-77861475D01*
X159516653Y-77787454D01*
X160022000Y-78292802D01*
X160022001Y-80711196D01*
X157464844Y-83268355D01*
X157357486Y-83247000D01*
X157094514Y-83247000D01*
X156836595Y-83298304D01*
X156593641Y-83398939D01*
X156374987Y-83545038D01*
X156189038Y-83730987D01*
X156042939Y-83949641D01*
X155942304Y-84192595D01*
X155891000Y-84450514D01*
X155891000Y-84713486D01*
X155942304Y-84971405D01*
X156042939Y-85214359D01*
X156189038Y-85433013D01*
X156374987Y-85618962D01*
X156593641Y-85765061D01*
X156836595Y-85865696D01*
X157094514Y-85917000D01*
X157357486Y-85917000D01*
X157615405Y-85865696D01*
X157858359Y-85765061D01*
X158077013Y-85618962D01*
X158262962Y-85433013D01*
X158409061Y-85214359D01*
X158509696Y-84971405D01*
X158561000Y-84713486D01*
X158561000Y-84450514D01*
X158539645Y-84343156D01*
X161293008Y-81589795D01*
X161322001Y-81566001D01*
X161345795Y-81537008D01*
X161345799Y-81537004D01*
X161416973Y-81450277D01*
X161427051Y-81431423D01*
X161487546Y-81318247D01*
X161531003Y-81174986D01*
X161542000Y-81063333D01*
X161542000Y-81063324D01*
X161545676Y-81026001D01*
X161542000Y-80988678D01*
X161542000Y-78738000D01*
X162003897Y-78738000D01*
X161972068Y-78814842D01*
X161915000Y-79101740D01*
X161915000Y-79394260D01*
X161972068Y-79681158D01*
X162084010Y-79951411D01*
X162246525Y-80194632D01*
X162453368Y-80401475D01*
X162696589Y-80563990D01*
X162966842Y-80675932D01*
X163253740Y-80733000D01*
X163546260Y-80733000D01*
X163711000Y-80700231D01*
X163711001Y-83877711D01*
X163662939Y-83949641D01*
X163562304Y-84192595D01*
X163511000Y-84450514D01*
X163511000Y-84713486D01*
X163562304Y-84971405D01*
X163662939Y-85214359D01*
X163809038Y-85433013D01*
X163994987Y-85618962D01*
X164213641Y-85765061D01*
X164456595Y-85865696D01*
X164714514Y-85917000D01*
X164977486Y-85917000D01*
X165235405Y-85865696D01*
X165314098Y-85833100D01*
X162245199Y-88902000D01*
X162060178Y-88902000D01*
X161935475Y-88715368D01*
X161728632Y-88508525D01*
X161485411Y-88346010D01*
X161215158Y-88234068D01*
X160928260Y-88177000D01*
X160635740Y-88177000D01*
X160348842Y-88234068D01*
X160078589Y-88346010D01*
X159835368Y-88508525D01*
X159628525Y-88715368D01*
X159466010Y-88958589D01*
X159354068Y-89228842D01*
X159297000Y-89515740D01*
X159297000Y-89808260D01*
X159354068Y-90095158D01*
X159466010Y-90365411D01*
X159628525Y-90608632D01*
X159835368Y-90815475D01*
X160009760Y-90932000D01*
X159835368Y-91048525D01*
X159628525Y-91255368D01*
X159466010Y-91498589D01*
X159354068Y-91768842D01*
X159297000Y-92055740D01*
X159297000Y-92348260D01*
X159354068Y-92635158D01*
X159466010Y-92905411D01*
X159628525Y-93148632D01*
X159760380Y-93280487D01*
X159687820Y-93302498D01*
X159577506Y-93361463D01*
X159480815Y-93440815D01*
X159401463Y-93537506D01*
X159342498Y-93647820D01*
X159306188Y-93767518D01*
X159293928Y-93892000D01*
X159293928Y-95592000D01*
X159306188Y-95716482D01*
X159342498Y-95836180D01*
X159401463Y-95946494D01*
X159480815Y-96043185D01*
X159577506Y-96122537D01*
X159687820Y-96181502D01*
X159807518Y-96217812D01*
X159932000Y-96230072D01*
X161632000Y-96230072D01*
X161756482Y-96217812D01*
X161876180Y-96181502D01*
X161986494Y-96122537D01*
X162083185Y-96043185D01*
X162162537Y-95946494D01*
X162221502Y-95836180D01*
X162257812Y-95716482D01*
X162270072Y-95592000D01*
X162270072Y-95502000D01*
X165547199Y-95502000D01*
X166626000Y-96580803D01*
X166626001Y-107404668D01*
X166622324Y-107442000D01*
X166636998Y-107590985D01*
X166680454Y-107734246D01*
X166751026Y-107866276D01*
X166819738Y-107950001D01*
X166846000Y-107982001D01*
X166874998Y-108005799D01*
X170034000Y-111164802D01*
X170034000Y-111226939D01*
X170073774Y-111426898D01*
X170151795Y-111615256D01*
X170265063Y-111784774D01*
X170409226Y-111928937D01*
X170578744Y-112042205D01*
X170767102Y-112120226D01*
X170967061Y-112160000D01*
X171170939Y-112160000D01*
X171370898Y-112120226D01*
X171559256Y-112042205D01*
X171728774Y-111928937D01*
X171872937Y-111784774D01*
X171986205Y-111615256D01*
X172064226Y-111426898D01*
X172104000Y-111226939D01*
X172104000Y-111023061D01*
X172064226Y-110823102D01*
X171986205Y-110634744D01*
X171872937Y-110465226D01*
X171728774Y-110321063D01*
X171559256Y-110207795D01*
X171370898Y-110129774D01*
X171170939Y-110090000D01*
X171108802Y-110090000D01*
X168146000Y-107127199D01*
X168146000Y-104489039D01*
X170566096Y-104489039D01*
X170606754Y-104623087D01*
X170726963Y-104877420D01*
X170894481Y-105103414D01*
X171102869Y-105292385D01*
X171344119Y-105437070D01*
X171608960Y-105531909D01*
X171831000Y-105410624D01*
X171831000Y-104267000D01*
X172085000Y-104267000D01*
X172085000Y-105410624D01*
X172307040Y-105531909D01*
X172571881Y-105437070D01*
X172813131Y-105292385D01*
X173021519Y-105103414D01*
X173189037Y-104877420D01*
X173309246Y-104623087D01*
X173349904Y-104489039D01*
X173227915Y-104267000D01*
X172085000Y-104267000D01*
X171831000Y-104267000D01*
X170688085Y-104267000D01*
X170566096Y-104489039D01*
X168146000Y-104489039D01*
X168146000Y-96303322D01*
X168149676Y-96265999D01*
X168146000Y-96228676D01*
X168146000Y-96228667D01*
X168135003Y-96117014D01*
X168091546Y-95973753D01*
X168020974Y-95841724D01*
X167983652Y-95796247D01*
X167949799Y-95754996D01*
X167949795Y-95754992D01*
X167926001Y-95725999D01*
X167897009Y-95702206D01*
X166425803Y-94231002D01*
X166402001Y-94201999D01*
X166286276Y-94107026D01*
X166154247Y-94036454D01*
X166010986Y-93992997D01*
X165899333Y-93982000D01*
X165899322Y-93982000D01*
X165862000Y-93978324D01*
X165824678Y-93982000D01*
X162270072Y-93982000D01*
X162270072Y-93892000D01*
X162257812Y-93767518D01*
X162221502Y-93647820D01*
X162162537Y-93537506D01*
X162083185Y-93440815D01*
X161986494Y-93361463D01*
X161876180Y-93302498D01*
X161803620Y-93280487D01*
X161935475Y-93148632D01*
X162097990Y-92905411D01*
X162099056Y-92902837D01*
X162222276Y-92836974D01*
X162338001Y-92742001D01*
X162361804Y-92712997D01*
X165414802Y-89660000D01*
X170519928Y-89660000D01*
X170519928Y-89700000D01*
X170532188Y-89824482D01*
X170568498Y-89944180D01*
X170627463Y-90054494D01*
X170706815Y-90151185D01*
X170803506Y-90230537D01*
X170913820Y-90289502D01*
X171033518Y-90325812D01*
X171041961Y-90326643D01*
X170843363Y-90525241D01*
X170686320Y-90760273D01*
X170578147Y-91021426D01*
X170523000Y-91298665D01*
X170523000Y-91581335D01*
X170578147Y-91858574D01*
X170686320Y-92119727D01*
X170843363Y-92354759D01*
X171043241Y-92554637D01*
X171275759Y-92710000D01*
X171043241Y-92865363D01*
X170843363Y-93065241D01*
X170686320Y-93300273D01*
X170578147Y-93561426D01*
X170523000Y-93838665D01*
X170523000Y-94121335D01*
X170578147Y-94398574D01*
X170686320Y-94659727D01*
X170843363Y-94894759D01*
X171043241Y-95094637D01*
X171198000Y-95198044D01*
X171198001Y-95301956D01*
X171043241Y-95405363D01*
X170843363Y-95605241D01*
X170686320Y-95840273D01*
X170578147Y-96101426D01*
X170523000Y-96378665D01*
X170523000Y-96661335D01*
X170578147Y-96938574D01*
X170686320Y-97199727D01*
X170843363Y-97434759D01*
X171043241Y-97634637D01*
X171275759Y-97790000D01*
X171043241Y-97945363D01*
X170843363Y-98145241D01*
X170686320Y-98380273D01*
X170578147Y-98641426D01*
X170523000Y-98918665D01*
X170523000Y-99201335D01*
X170578147Y-99478574D01*
X170686320Y-99739727D01*
X170843363Y-99974759D01*
X171043241Y-100174637D01*
X171275759Y-100330000D01*
X171043241Y-100485363D01*
X170843363Y-100685241D01*
X170743499Y-100834698D01*
X170489803Y-100581002D01*
X170489799Y-100580997D01*
X169924000Y-100015199D01*
X169924000Y-93001323D01*
X169927676Y-92964000D01*
X169924000Y-92926677D01*
X169924000Y-92926667D01*
X169913003Y-92815014D01*
X169869546Y-92671753D01*
X169833858Y-92604986D01*
X169798974Y-92539723D01*
X169727799Y-92452997D01*
X169704001Y-92423999D01*
X169675003Y-92400201D01*
X168167000Y-90892199D01*
X168167000Y-90830061D01*
X168127226Y-90630102D01*
X168049205Y-90441744D01*
X167935937Y-90272226D01*
X167791774Y-90128063D01*
X167622256Y-90014795D01*
X167433898Y-89936774D01*
X167233939Y-89897000D01*
X167030061Y-89897000D01*
X166830102Y-89936774D01*
X166641744Y-90014795D01*
X166472226Y-90128063D01*
X166328063Y-90272226D01*
X166214795Y-90441744D01*
X166136774Y-90630102D01*
X166097000Y-90830061D01*
X166097000Y-91033939D01*
X166136774Y-91233898D01*
X166214795Y-91422256D01*
X166328063Y-91591774D01*
X166472226Y-91735937D01*
X166641744Y-91849205D01*
X166830102Y-91927226D01*
X167030061Y-91967000D01*
X167092199Y-91967000D01*
X168404001Y-93278803D01*
X168404000Y-100292678D01*
X168400324Y-100330000D01*
X168404000Y-100367322D01*
X168404000Y-100367332D01*
X168414997Y-100478985D01*
X168450795Y-100596997D01*
X168458454Y-100622246D01*
X168529026Y-100754276D01*
X168563320Y-100796063D01*
X168623999Y-100870001D01*
X168653002Y-100893803D01*
X169414997Y-101655799D01*
X169415002Y-101655803D01*
X169870200Y-102111002D01*
X169893999Y-102140001D01*
X170009724Y-102234974D01*
X170141753Y-102305546D01*
X170285014Y-102349003D01*
X170396667Y-102360000D01*
X170396676Y-102360000D01*
X170433999Y-102363676D01*
X170471322Y-102360000D01*
X170739957Y-102360000D01*
X170843363Y-102514759D01*
X171043241Y-102714637D01*
X171278273Y-102871680D01*
X171288865Y-102876067D01*
X171102869Y-102987615D01*
X170894481Y-103176586D01*
X170726963Y-103402580D01*
X170606754Y-103656913D01*
X170566096Y-103790961D01*
X170688085Y-104013000D01*
X171831000Y-104013000D01*
X171831000Y-103993000D01*
X172085000Y-103993000D01*
X172085000Y-104013000D01*
X173227915Y-104013000D01*
X173349904Y-103790961D01*
X173309246Y-103656913D01*
X173189037Y-103402580D01*
X173021519Y-103176586D01*
X172813131Y-102987615D01*
X172627135Y-102876067D01*
X172637727Y-102871680D01*
X172872759Y-102714637D01*
X173072637Y-102514759D01*
X173229680Y-102279727D01*
X173337853Y-102018574D01*
X173393000Y-101741335D01*
X173393000Y-101458665D01*
X173337853Y-101181426D01*
X173229680Y-100920273D01*
X173072637Y-100685241D01*
X172872759Y-100485363D01*
X172640241Y-100330000D01*
X172872759Y-100174637D01*
X173072637Y-99974759D01*
X173176043Y-99820000D01*
X178359957Y-99820000D01*
X178463363Y-99974759D01*
X178663241Y-100174637D01*
X178895759Y-100330000D01*
X178663241Y-100485363D01*
X178463363Y-100685241D01*
X178306320Y-100920273D01*
X178198147Y-101181426D01*
X178143000Y-101458665D01*
X178143000Y-101741335D01*
X178198147Y-102018574D01*
X178306320Y-102279727D01*
X178463363Y-102514759D01*
X178663241Y-102714637D01*
X178895759Y-102870000D01*
X178663241Y-103025363D01*
X178463363Y-103225241D01*
X178306320Y-103460273D01*
X178198147Y-103721426D01*
X178143000Y-103998665D01*
X178143000Y-104281335D01*
X178198147Y-104558574D01*
X178306320Y-104819727D01*
X178463363Y-105054759D01*
X178663241Y-105254637D01*
X178898273Y-105411680D01*
X179159426Y-105519853D01*
X179436665Y-105575000D01*
X179719335Y-105575000D01*
X179996574Y-105519853D01*
X180257727Y-105411680D01*
X180492759Y-105254637D01*
X180692637Y-105054759D01*
X180849680Y-104819727D01*
X180850001Y-104818953D01*
X180850001Y-105603197D01*
X178581000Y-107872198D01*
X178581000Y-107848061D01*
X178541226Y-107648102D01*
X178463205Y-107459744D01*
X178349937Y-107290226D01*
X178205774Y-107146063D01*
X178036256Y-107032795D01*
X177847898Y-106954774D01*
X177647939Y-106915000D01*
X177444061Y-106915000D01*
X177244102Y-106954774D01*
X177055744Y-107032795D01*
X176886226Y-107146063D01*
X176742063Y-107290226D01*
X176628795Y-107459744D01*
X176550774Y-107648102D01*
X176511000Y-107848061D01*
X176511000Y-107910198D01*
X171156199Y-113265000D01*
X171094061Y-113265000D01*
X170894102Y-113304774D01*
X170705744Y-113382795D01*
X170536226Y-113496063D01*
X170392063Y-113640226D01*
X170278795Y-113809744D01*
X170200774Y-113998102D01*
X170161000Y-114198061D01*
X170161000Y-114401939D01*
X170200774Y-114601898D01*
X170278795Y-114790256D01*
X170392063Y-114959774D01*
X170536226Y-115103937D01*
X170705744Y-115217205D01*
X170894102Y-115295226D01*
X171094061Y-115335000D01*
X171118199Y-115335000D01*
X170756199Y-115697000D01*
X169791000Y-115697000D01*
X169791000Y-112323752D01*
X169796491Y-112268000D01*
X169774577Y-112045501D01*
X169709676Y-111831553D01*
X169604284Y-111634377D01*
X169462449Y-111461551D01*
X169289623Y-111319716D01*
X169092447Y-111214324D01*
X168878499Y-111149423D01*
X168711752Y-111133000D01*
X168656000Y-111127509D01*
X168600249Y-111133000D01*
X168600248Y-111133000D01*
X168433501Y-111149423D01*
X168219553Y-111214324D01*
X168022377Y-111319716D01*
X167849551Y-111461551D01*
X167707716Y-111634377D01*
X167602324Y-111831553D01*
X167537423Y-112045501D01*
X167515509Y-112268000D01*
X167521001Y-112323762D01*
X167521001Y-115289441D01*
X167500450Y-115272575D01*
X167385793Y-115211290D01*
X167261383Y-115173550D01*
X167164419Y-115164000D01*
X167132000Y-115160807D01*
X167099581Y-115164000D01*
X153568000Y-115164000D01*
X153568000Y-101433505D01*
X153718640Y-101433505D01*
X153718640Y-102274495D01*
X153882709Y-103099326D01*
X154204542Y-103876300D01*
X154671771Y-104575559D01*
X155266441Y-105170229D01*
X155965700Y-105637458D01*
X156742674Y-105959291D01*
X157567505Y-106123360D01*
X158408495Y-106123360D01*
X159233326Y-105959291D01*
X160010300Y-105637458D01*
X160709559Y-105170229D01*
X161304229Y-104575559D01*
X161771458Y-103876300D01*
X162093291Y-103099326D01*
X162257360Y-102274495D01*
X162257360Y-101433505D01*
X162093291Y-100608674D01*
X161771458Y-99831700D01*
X161304229Y-99132441D01*
X160709559Y-98537771D01*
X160010300Y-98070542D01*
X159233326Y-97748709D01*
X158408495Y-97584640D01*
X157567505Y-97584640D01*
X156742674Y-97748709D01*
X155965700Y-98070542D01*
X155266441Y-98537771D01*
X154671771Y-99132441D01*
X154204542Y-99831700D01*
X153882709Y-100608674D01*
X153718640Y-101433505D01*
X153568000Y-101433505D01*
X153568000Y-66700000D01*
X237084000Y-66700000D01*
X237084001Y-115164000D01*
G37*
%TD.AperFunction*%
D23*
X185301001Y-86576133D02*
X185301000Y-87765000D01*
X180462284Y-87765000D01*
X180257727Y-87628320D01*
X179996574Y-87520147D01*
X179719335Y-87465000D01*
X179436665Y-87465000D01*
X179159426Y-87520147D01*
X178898273Y-87628320D01*
X178663241Y-87785363D01*
X178463363Y-87985241D01*
X178306320Y-88220273D01*
X178198147Y-88481426D01*
X178143000Y-88758665D01*
X178143000Y-89041335D01*
X178198147Y-89318574D01*
X178306320Y-89579727D01*
X178463363Y-89814759D01*
X178663241Y-90014637D01*
X178898273Y-90171680D01*
X178908865Y-90176067D01*
X178722869Y-90287615D01*
X178514481Y-90476586D01*
X178346963Y-90702580D01*
X178226754Y-90956913D01*
X178186096Y-91090961D01*
X178308085Y-91313000D01*
X179451000Y-91313000D01*
X179451000Y-91293000D01*
X179705000Y-91293000D01*
X179705000Y-91313000D01*
X180847915Y-91313000D01*
X180969904Y-91090961D01*
X180929246Y-90956913D01*
X180809037Y-90702580D01*
X180641519Y-90476586D01*
X180433131Y-90287615D01*
X180247135Y-90176067D01*
X180257727Y-90171680D01*
X180462284Y-90035000D01*
X185551716Y-90035000D01*
X185756273Y-90171680D01*
X186017426Y-90279853D01*
X186294665Y-90335000D01*
X186577335Y-90335000D01*
X186854574Y-90279853D01*
X187115727Y-90171680D01*
X187350759Y-90014637D01*
X187550637Y-89814759D01*
X187706000Y-89582241D01*
X187861363Y-89814759D01*
X188061241Y-90014637D01*
X188296273Y-90171680D01*
X188557426Y-90279853D01*
X188834665Y-90335000D01*
X189117335Y-90335000D01*
X189394574Y-90279853D01*
X189655727Y-90171680D01*
X189890759Y-90014637D01*
X190090637Y-89814759D01*
X190246000Y-89582241D01*
X190401363Y-89814759D01*
X190601241Y-90014637D01*
X190836273Y-90171680D01*
X191097426Y-90279853D01*
X191374665Y-90335000D01*
X191657335Y-90335000D01*
X191934574Y-90279853D01*
X192195727Y-90171680D01*
X192430759Y-90014637D01*
X192630637Y-89814759D01*
X192786000Y-89582241D01*
X192941363Y-89814759D01*
X193141241Y-90014637D01*
X193376273Y-90171680D01*
X193637426Y-90279853D01*
X193914665Y-90335000D01*
X194197335Y-90335000D01*
X194474574Y-90279853D01*
X194735727Y-90171680D01*
X194970759Y-90014637D01*
X195170637Y-89814759D01*
X195326000Y-89582241D01*
X195481363Y-89814759D01*
X195681241Y-90014637D01*
X195916273Y-90171680D01*
X196177426Y-90279853D01*
X196454665Y-90335000D01*
X196737335Y-90335000D01*
X197014574Y-90279853D01*
X197275727Y-90171680D01*
X197510759Y-90014637D01*
X197710637Y-89814759D01*
X197866000Y-89582241D01*
X198021363Y-89814759D01*
X198221241Y-90014637D01*
X198370698Y-90114501D01*
X197551199Y-90934000D01*
X193839322Y-90934000D01*
X193801999Y-90930324D01*
X193764676Y-90934000D01*
X193764667Y-90934000D01*
X193653014Y-90944997D01*
X193544249Y-90977990D01*
X193509753Y-90988454D01*
X193377723Y-91059026D01*
X193338811Y-91090961D01*
X193261999Y-91153999D01*
X193238201Y-91182997D01*
X192439722Y-91981476D01*
X192433205Y-91965744D01*
X192319937Y-91796226D01*
X192175774Y-91652063D01*
X192006256Y-91538795D01*
X191817898Y-91460774D01*
X191617939Y-91421000D01*
X191414061Y-91421000D01*
X191214102Y-91460774D01*
X191025744Y-91538795D01*
X190856226Y-91652063D01*
X190812289Y-91696000D01*
X189775323Y-91696000D01*
X189738000Y-91692324D01*
X189700677Y-91696000D01*
X189700667Y-91696000D01*
X189589014Y-91706997D01*
X189445753Y-91750454D01*
X189313724Y-91821026D01*
X189197999Y-91915999D01*
X189174201Y-91944997D01*
X181099003Y-100020196D01*
X181069999Y-100043999D01*
X181039137Y-100081605D01*
X180975026Y-100159724D01*
X180972206Y-100165000D01*
X180904454Y-100291754D01*
X180860997Y-100435015D01*
X180850000Y-100546668D01*
X180850000Y-100546678D01*
X180846324Y-100584000D01*
X180850000Y-100621323D01*
X180850000Y-100921046D01*
X180849680Y-100920273D01*
X180692637Y-100685241D01*
X180492759Y-100485363D01*
X180260241Y-100330000D01*
X180492759Y-100174637D01*
X180692637Y-99974759D01*
X180849680Y-99739727D01*
X180957853Y-99478574D01*
X181013000Y-99201335D01*
X181013000Y-98918665D01*
X180957853Y-98641426D01*
X180849680Y-98380273D01*
X180692637Y-98145241D01*
X180492759Y-97945363D01*
X180260241Y-97790000D01*
X180492759Y-97634637D01*
X180692637Y-97434759D01*
X180849680Y-97199727D01*
X180957853Y-96938574D01*
X181013000Y-96661335D01*
X181013000Y-96378665D01*
X180957853Y-96101426D01*
X180849680Y-95840273D01*
X180692637Y-95605241D01*
X180492759Y-95405363D01*
X180257727Y-95248320D01*
X180247135Y-95243933D01*
X180433131Y-95132385D01*
X180641519Y-94943414D01*
X180809037Y-94717420D01*
X180929246Y-94463087D01*
X180969904Y-94329039D01*
X180847915Y-94107000D01*
X179705000Y-94107000D01*
X179705000Y-94127000D01*
X179451000Y-94127000D01*
X179451000Y-94107000D01*
X178308085Y-94107000D01*
X178186096Y-94329039D01*
X178226754Y-94463087D01*
X178346963Y-94717420D01*
X178514481Y-94943414D01*
X178722869Y-95132385D01*
X178908865Y-95243933D01*
X178898273Y-95248320D01*
X178663241Y-95405363D01*
X178463363Y-95605241D01*
X178306320Y-95840273D01*
X178198147Y-96101426D01*
X178143000Y-96378665D01*
X178143000Y-96661335D01*
X178198147Y-96938574D01*
X178306320Y-97199727D01*
X178463363Y-97434759D01*
X178663241Y-97634637D01*
X178895759Y-97790000D01*
X178663241Y-97945363D01*
X178463363Y-98145241D01*
X178359957Y-98300000D01*
X173176043Y-98300000D01*
X173072637Y-98145241D01*
X172872759Y-97945363D01*
X172640241Y-97790000D01*
X172872759Y-97634637D01*
X173072637Y-97434759D01*
X173229680Y-97199727D01*
X173337853Y-96938574D01*
X173393000Y-96661335D01*
X173393000Y-96378665D01*
X173337853Y-96101426D01*
X173229680Y-95840273D01*
X173072637Y-95605241D01*
X172872759Y-95405363D01*
X172718000Y-95301957D01*
X172718000Y-95198043D01*
X172872759Y-95094637D01*
X173072637Y-94894759D01*
X173229680Y-94659727D01*
X173337853Y-94398574D01*
X173393000Y-94121335D01*
X173393000Y-93838665D01*
X173337853Y-93561426D01*
X173229680Y-93300273D01*
X173072637Y-93065241D01*
X172872759Y-92865363D01*
X172640241Y-92710000D01*
X172872759Y-92554637D01*
X173072637Y-92354759D01*
X173229680Y-92119727D01*
X173337853Y-91858574D01*
X173351684Y-91789039D01*
X178186096Y-91789039D01*
X178226754Y-91923087D01*
X178346963Y-92177420D01*
X178514481Y-92403414D01*
X178722869Y-92592385D01*
X178918982Y-92710000D01*
X178722869Y-92827615D01*
X178514481Y-93016586D01*
X178346963Y-93242580D01*
X178226754Y-93496913D01*
X178186096Y-93630961D01*
X178308085Y-93853000D01*
X179451000Y-93853000D01*
X179451000Y-91567000D01*
X179705000Y-91567000D01*
X179705000Y-93853000D01*
X180847915Y-93853000D01*
X180969904Y-93630961D01*
X180929246Y-93496913D01*
X180809037Y-93242580D01*
X180641519Y-93016586D01*
X180433131Y-92827615D01*
X180237018Y-92710000D01*
X180433131Y-92592385D01*
X180641519Y-92403414D01*
X180809037Y-92177420D01*
X180929246Y-91923087D01*
X180969904Y-91789039D01*
X180847915Y-91567000D01*
X179705000Y-91567000D01*
X179451000Y-91567000D01*
X178308085Y-91567000D01*
X178186096Y-91789039D01*
X173351684Y-91789039D01*
X173393000Y-91581335D01*
X173393000Y-91298665D01*
X173337853Y-91021426D01*
X173229680Y-90760273D01*
X173072637Y-90525241D01*
X172874039Y-90326643D01*
X172882482Y-90325812D01*
X173002180Y-90289502D01*
X173112494Y-90230537D01*
X173209185Y-90151185D01*
X173288537Y-90054494D01*
X173347502Y-89944180D01*
X173383812Y-89824482D01*
X173396072Y-89700000D01*
X173396072Y-88100000D01*
X173383812Y-87975518D01*
X173347502Y-87855820D01*
X173288537Y-87745506D01*
X173209185Y-87648815D01*
X173112494Y-87569463D01*
X173002180Y-87510498D01*
X172882482Y-87474188D01*
X172758000Y-87461928D01*
X171158000Y-87461928D01*
X171033518Y-87474188D01*
X170913820Y-87510498D01*
X170803506Y-87569463D01*
X170706815Y-87648815D01*
X170627463Y-87745506D01*
X170568498Y-87855820D01*
X170532188Y-87975518D01*
X170519928Y-88100000D01*
X170519928Y-88140000D01*
X165156801Y-88140000D01*
X167700802Y-85596000D01*
X181160289Y-85596000D01*
X181204226Y-85639937D01*
X181373744Y-85753205D01*
X181562102Y-85831226D01*
X181762061Y-85871000D01*
X181965939Y-85871000D01*
X182165898Y-85831226D01*
X182354256Y-85753205D01*
X182523774Y-85639937D01*
X182667937Y-85495774D01*
X182781205Y-85326256D01*
X182859226Y-85137898D01*
X182899000Y-84937939D01*
X182899000Y-84734061D01*
X182859226Y-84534102D01*
X182781205Y-84345744D01*
X182667937Y-84176226D01*
X182523774Y-84032063D01*
X182354256Y-83918795D01*
X182165898Y-83840774D01*
X181965939Y-83801000D01*
X181762061Y-83801000D01*
X181562102Y-83840774D01*
X181373744Y-83918795D01*
X181204226Y-84032063D01*
X181160289Y-84076000D01*
X179071973Y-84076000D01*
X179168088Y-84042795D01*
X179342044Y-83949814D01*
X179437808Y-83685413D01*
X178482000Y-82729605D01*
X177526192Y-83685413D01*
X177621956Y-83949814D01*
X177881345Y-84076000D01*
X174070371Y-84076000D01*
X174256463Y-83998918D01*
X174524252Y-83819987D01*
X174751987Y-83592252D01*
X174930918Y-83324463D01*
X175054168Y-83026912D01*
X175117000Y-82711033D01*
X175117000Y-82612595D01*
X176840282Y-82612595D01*
X176884039Y-82931675D01*
X176989205Y-83236088D01*
X177082186Y-83410044D01*
X177346587Y-83505808D01*
X178302395Y-82550000D01*
X178661605Y-82550000D01*
X179617413Y-83505808D01*
X179881814Y-83410044D01*
X180022704Y-83120429D01*
X180104384Y-82808892D01*
X180123718Y-82487405D01*
X180079961Y-82168325D01*
X179974795Y-81863912D01*
X179881814Y-81689956D01*
X179617413Y-81594192D01*
X178661605Y-82550000D01*
X178302395Y-82550000D01*
X177346587Y-81594192D01*
X177082186Y-81689956D01*
X176941296Y-81979571D01*
X176859616Y-82291108D01*
X176840282Y-82612595D01*
X175117000Y-82612595D01*
X175117000Y-82388967D01*
X175096620Y-82286511D01*
X175968545Y-81414587D01*
X177526192Y-81414587D01*
X178482000Y-82370395D01*
X179437808Y-81414587D01*
X179342044Y-81150186D01*
X179052429Y-81009296D01*
X178740892Y-80927616D01*
X178419405Y-80908282D01*
X178100325Y-80952039D01*
X177795912Y-81057205D01*
X177621956Y-81150186D01*
X177526192Y-81414587D01*
X175968545Y-81414587D01*
X176492133Y-80891000D01*
X179615869Y-80891000D01*
X185301001Y-86576133D01*
%TA.AperFunction,Conductor*%
D24*
G36*
X185301001Y-86576133D02*
G01*
X185301000Y-87765000D01*
X180462284Y-87765000D01*
X180257727Y-87628320D01*
X179996574Y-87520147D01*
X179719335Y-87465000D01*
X179436665Y-87465000D01*
X179159426Y-87520147D01*
X178898273Y-87628320D01*
X178663241Y-87785363D01*
X178463363Y-87985241D01*
X178306320Y-88220273D01*
X178198147Y-88481426D01*
X178143000Y-88758665D01*
X178143000Y-89041335D01*
X178198147Y-89318574D01*
X178306320Y-89579727D01*
X178463363Y-89814759D01*
X178663241Y-90014637D01*
X178898273Y-90171680D01*
X178908865Y-90176067D01*
X178722869Y-90287615D01*
X178514481Y-90476586D01*
X178346963Y-90702580D01*
X178226754Y-90956913D01*
X178186096Y-91090961D01*
X178308085Y-91313000D01*
X179451000Y-91313000D01*
X179451000Y-91293000D01*
X179705000Y-91293000D01*
X179705000Y-91313000D01*
X180847915Y-91313000D01*
X180969904Y-91090961D01*
X180929246Y-90956913D01*
X180809037Y-90702580D01*
X180641519Y-90476586D01*
X180433131Y-90287615D01*
X180247135Y-90176067D01*
X180257727Y-90171680D01*
X180462284Y-90035000D01*
X185551716Y-90035000D01*
X185756273Y-90171680D01*
X186017426Y-90279853D01*
X186294665Y-90335000D01*
X186577335Y-90335000D01*
X186854574Y-90279853D01*
X187115727Y-90171680D01*
X187350759Y-90014637D01*
X187550637Y-89814759D01*
X187706000Y-89582241D01*
X187861363Y-89814759D01*
X188061241Y-90014637D01*
X188296273Y-90171680D01*
X188557426Y-90279853D01*
X188834665Y-90335000D01*
X189117335Y-90335000D01*
X189394574Y-90279853D01*
X189655727Y-90171680D01*
X189890759Y-90014637D01*
X190090637Y-89814759D01*
X190246000Y-89582241D01*
X190401363Y-89814759D01*
X190601241Y-90014637D01*
X190836273Y-90171680D01*
X191097426Y-90279853D01*
X191374665Y-90335000D01*
X191657335Y-90335000D01*
X191934574Y-90279853D01*
X192195727Y-90171680D01*
X192430759Y-90014637D01*
X192630637Y-89814759D01*
X192786000Y-89582241D01*
X192941363Y-89814759D01*
X193141241Y-90014637D01*
X193376273Y-90171680D01*
X193637426Y-90279853D01*
X193914665Y-90335000D01*
X194197335Y-90335000D01*
X194474574Y-90279853D01*
X194735727Y-90171680D01*
X194970759Y-90014637D01*
X195170637Y-89814759D01*
X195326000Y-89582241D01*
X195481363Y-89814759D01*
X195681241Y-90014637D01*
X195916273Y-90171680D01*
X196177426Y-90279853D01*
X196454665Y-90335000D01*
X196737335Y-90335000D01*
X197014574Y-90279853D01*
X197275727Y-90171680D01*
X197510759Y-90014637D01*
X197710637Y-89814759D01*
X197866000Y-89582241D01*
X198021363Y-89814759D01*
X198221241Y-90014637D01*
X198370698Y-90114501D01*
X197551199Y-90934000D01*
X193839322Y-90934000D01*
X193801999Y-90930324D01*
X193764676Y-90934000D01*
X193764667Y-90934000D01*
X193653014Y-90944997D01*
X193544249Y-90977990D01*
X193509753Y-90988454D01*
X193377723Y-91059026D01*
X193338811Y-91090961D01*
X193261999Y-91153999D01*
X193238201Y-91182997D01*
X192439722Y-91981476D01*
X192433205Y-91965744D01*
X192319937Y-91796226D01*
X192175774Y-91652063D01*
X192006256Y-91538795D01*
X191817898Y-91460774D01*
X191617939Y-91421000D01*
X191414061Y-91421000D01*
X191214102Y-91460774D01*
X191025744Y-91538795D01*
X190856226Y-91652063D01*
X190812289Y-91696000D01*
X189775323Y-91696000D01*
X189738000Y-91692324D01*
X189700677Y-91696000D01*
X189700667Y-91696000D01*
X189589014Y-91706997D01*
X189445753Y-91750454D01*
X189313724Y-91821026D01*
X189197999Y-91915999D01*
X189174201Y-91944997D01*
X181099003Y-100020196D01*
X181069999Y-100043999D01*
X181039137Y-100081605D01*
X180975026Y-100159724D01*
X180972206Y-100165000D01*
X180904454Y-100291754D01*
X180860997Y-100435015D01*
X180850000Y-100546668D01*
X180850000Y-100546678D01*
X180846324Y-100584000D01*
X180850000Y-100621323D01*
X180850000Y-100921046D01*
X180849680Y-100920273D01*
X180692637Y-100685241D01*
X180492759Y-100485363D01*
X180260241Y-100330000D01*
X180492759Y-100174637D01*
X180692637Y-99974759D01*
X180849680Y-99739727D01*
X180957853Y-99478574D01*
X181013000Y-99201335D01*
X181013000Y-98918665D01*
X180957853Y-98641426D01*
X180849680Y-98380273D01*
X180692637Y-98145241D01*
X180492759Y-97945363D01*
X180260241Y-97790000D01*
X180492759Y-97634637D01*
X180692637Y-97434759D01*
X180849680Y-97199727D01*
X180957853Y-96938574D01*
X181013000Y-96661335D01*
X181013000Y-96378665D01*
X180957853Y-96101426D01*
X180849680Y-95840273D01*
X180692637Y-95605241D01*
X180492759Y-95405363D01*
X180257727Y-95248320D01*
X180247135Y-95243933D01*
X180433131Y-95132385D01*
X180641519Y-94943414D01*
X180809037Y-94717420D01*
X180929246Y-94463087D01*
X180969904Y-94329039D01*
X180847915Y-94107000D01*
X179705000Y-94107000D01*
X179705000Y-94127000D01*
X179451000Y-94127000D01*
X179451000Y-94107000D01*
X178308085Y-94107000D01*
X178186096Y-94329039D01*
X178226754Y-94463087D01*
X178346963Y-94717420D01*
X178514481Y-94943414D01*
X178722869Y-95132385D01*
X178908865Y-95243933D01*
X178898273Y-95248320D01*
X178663241Y-95405363D01*
X178463363Y-95605241D01*
X178306320Y-95840273D01*
X178198147Y-96101426D01*
X178143000Y-96378665D01*
X178143000Y-96661335D01*
X178198147Y-96938574D01*
X178306320Y-97199727D01*
X178463363Y-97434759D01*
X178663241Y-97634637D01*
X178895759Y-97790000D01*
X178663241Y-97945363D01*
X178463363Y-98145241D01*
X178359957Y-98300000D01*
X173176043Y-98300000D01*
X173072637Y-98145241D01*
X172872759Y-97945363D01*
X172640241Y-97790000D01*
X172872759Y-97634637D01*
X173072637Y-97434759D01*
X173229680Y-97199727D01*
X173337853Y-96938574D01*
X173393000Y-96661335D01*
X173393000Y-96378665D01*
X173337853Y-96101426D01*
X173229680Y-95840273D01*
X173072637Y-95605241D01*
X172872759Y-95405363D01*
X172718000Y-95301957D01*
X172718000Y-95198043D01*
X172872759Y-95094637D01*
X173072637Y-94894759D01*
X173229680Y-94659727D01*
X173337853Y-94398574D01*
X173393000Y-94121335D01*
X173393000Y-93838665D01*
X173337853Y-93561426D01*
X173229680Y-93300273D01*
X173072637Y-93065241D01*
X172872759Y-92865363D01*
X172640241Y-92710000D01*
X172872759Y-92554637D01*
X173072637Y-92354759D01*
X173229680Y-92119727D01*
X173337853Y-91858574D01*
X173351684Y-91789039D01*
X178186096Y-91789039D01*
X178226754Y-91923087D01*
X178346963Y-92177420D01*
X178514481Y-92403414D01*
X178722869Y-92592385D01*
X178918982Y-92710000D01*
X178722869Y-92827615D01*
X178514481Y-93016586D01*
X178346963Y-93242580D01*
X178226754Y-93496913D01*
X178186096Y-93630961D01*
X178308085Y-93853000D01*
X179451000Y-93853000D01*
X179451000Y-91567000D01*
X179705000Y-91567000D01*
X179705000Y-93853000D01*
X180847915Y-93853000D01*
X180969904Y-93630961D01*
X180929246Y-93496913D01*
X180809037Y-93242580D01*
X180641519Y-93016586D01*
X180433131Y-92827615D01*
X180237018Y-92710000D01*
X180433131Y-92592385D01*
X180641519Y-92403414D01*
X180809037Y-92177420D01*
X180929246Y-91923087D01*
X180969904Y-91789039D01*
X180847915Y-91567000D01*
X179705000Y-91567000D01*
X179451000Y-91567000D01*
X178308085Y-91567000D01*
X178186096Y-91789039D01*
X173351684Y-91789039D01*
X173393000Y-91581335D01*
X173393000Y-91298665D01*
X173337853Y-91021426D01*
X173229680Y-90760273D01*
X173072637Y-90525241D01*
X172874039Y-90326643D01*
X172882482Y-90325812D01*
X173002180Y-90289502D01*
X173112494Y-90230537D01*
X173209185Y-90151185D01*
X173288537Y-90054494D01*
X173347502Y-89944180D01*
X173383812Y-89824482D01*
X173396072Y-89700000D01*
X173396072Y-88100000D01*
X173383812Y-87975518D01*
X173347502Y-87855820D01*
X173288537Y-87745506D01*
X173209185Y-87648815D01*
X173112494Y-87569463D01*
X173002180Y-87510498D01*
X172882482Y-87474188D01*
X172758000Y-87461928D01*
X171158000Y-87461928D01*
X171033518Y-87474188D01*
X170913820Y-87510498D01*
X170803506Y-87569463D01*
X170706815Y-87648815D01*
X170627463Y-87745506D01*
X170568498Y-87855820D01*
X170532188Y-87975518D01*
X170519928Y-88100000D01*
X170519928Y-88140000D01*
X165156801Y-88140000D01*
X167700802Y-85596000D01*
X181160289Y-85596000D01*
X181204226Y-85639937D01*
X181373744Y-85753205D01*
X181562102Y-85831226D01*
X181762061Y-85871000D01*
X181965939Y-85871000D01*
X182165898Y-85831226D01*
X182354256Y-85753205D01*
X182523774Y-85639937D01*
X182667937Y-85495774D01*
X182781205Y-85326256D01*
X182859226Y-85137898D01*
X182899000Y-84937939D01*
X182899000Y-84734061D01*
X182859226Y-84534102D01*
X182781205Y-84345744D01*
X182667937Y-84176226D01*
X182523774Y-84032063D01*
X182354256Y-83918795D01*
X182165898Y-83840774D01*
X181965939Y-83801000D01*
X181762061Y-83801000D01*
X181562102Y-83840774D01*
X181373744Y-83918795D01*
X181204226Y-84032063D01*
X181160289Y-84076000D01*
X179071973Y-84076000D01*
X179168088Y-84042795D01*
X179342044Y-83949814D01*
X179437808Y-83685413D01*
X178482000Y-82729605D01*
X177526192Y-83685413D01*
X177621956Y-83949814D01*
X177881345Y-84076000D01*
X174070371Y-84076000D01*
X174256463Y-83998918D01*
X174524252Y-83819987D01*
X174751987Y-83592252D01*
X174930918Y-83324463D01*
X175054168Y-83026912D01*
X175117000Y-82711033D01*
X175117000Y-82612595D01*
X176840282Y-82612595D01*
X176884039Y-82931675D01*
X176989205Y-83236088D01*
X177082186Y-83410044D01*
X177346587Y-83505808D01*
X178302395Y-82550000D01*
X178661605Y-82550000D01*
X179617413Y-83505808D01*
X179881814Y-83410044D01*
X180022704Y-83120429D01*
X180104384Y-82808892D01*
X180123718Y-82487405D01*
X180079961Y-82168325D01*
X179974795Y-81863912D01*
X179881814Y-81689956D01*
X179617413Y-81594192D01*
X178661605Y-82550000D01*
X178302395Y-82550000D01*
X177346587Y-81594192D01*
X177082186Y-81689956D01*
X176941296Y-81979571D01*
X176859616Y-82291108D01*
X176840282Y-82612595D01*
X175117000Y-82612595D01*
X175117000Y-82388967D01*
X175096620Y-82286511D01*
X175968545Y-81414587D01*
X177526192Y-81414587D01*
X178482000Y-82370395D01*
X179437808Y-81414587D01*
X179342044Y-81150186D01*
X179052429Y-81009296D01*
X178740892Y-80927616D01*
X178419405Y-80908282D01*
X178100325Y-80952039D01*
X177795912Y-81057205D01*
X177621956Y-81150186D01*
X177526192Y-81414587D01*
X175968545Y-81414587D01*
X176492133Y-80891000D01*
X179615869Y-80891000D01*
X185301001Y-86576133D01*
G37*
%TD.AperFunction*%
D23*
X175388377Y-78807716D02*
X175258856Y-78914011D01*
X175258855Y-78914012D01*
X175215551Y-78949551D01*
X175180013Y-78992854D01*
X173242201Y-80930667D01*
X173005088Y-80977832D01*
X172707537Y-81101082D01*
X172439748Y-81280013D01*
X172212013Y-81507748D01*
X172033082Y-81775537D01*
X171909832Y-82073088D01*
X171847000Y-82388967D01*
X171847000Y-82711033D01*
X171909832Y-83026912D01*
X172033082Y-83324463D01*
X172212013Y-83592252D01*
X172439748Y-83819987D01*
X172707537Y-83998918D01*
X172893629Y-84076000D01*
X167423325Y-84076000D01*
X167386000Y-84072324D01*
X167348675Y-84076000D01*
X167348667Y-84076000D01*
X167237014Y-84086997D01*
X167093753Y-84130454D01*
X166961724Y-84201026D01*
X166845999Y-84295999D01*
X166822201Y-84324997D01*
X166097100Y-85050098D01*
X166129696Y-84971405D01*
X166181000Y-84713486D01*
X166181000Y-84450514D01*
X166129696Y-84192595D01*
X166029061Y-83949641D01*
X165981000Y-83877712D01*
X165981000Y-80065752D01*
X165986491Y-80010000D01*
X165964577Y-79787501D01*
X165899676Y-79573553D01*
X165794284Y-79376377D01*
X165747650Y-79319554D01*
X165652449Y-79203551D01*
X165609140Y-79168008D01*
X165179131Y-78738000D01*
X175518807Y-78738000D01*
X175388377Y-78807716D01*
%TA.AperFunction,Conductor*%
D24*
G36*
X175388377Y-78807716D02*
G01*
X175258856Y-78914011D01*
X175258855Y-78914012D01*
X175215551Y-78949551D01*
X175180013Y-78992854D01*
X173242201Y-80930667D01*
X173005088Y-80977832D01*
X172707537Y-81101082D01*
X172439748Y-81280013D01*
X172212013Y-81507748D01*
X172033082Y-81775537D01*
X171909832Y-82073088D01*
X171847000Y-82388967D01*
X171847000Y-82711033D01*
X171909832Y-83026912D01*
X172033082Y-83324463D01*
X172212013Y-83592252D01*
X172439748Y-83819987D01*
X172707537Y-83998918D01*
X172893629Y-84076000D01*
X167423325Y-84076000D01*
X167386000Y-84072324D01*
X167348675Y-84076000D01*
X167348667Y-84076000D01*
X167237014Y-84086997D01*
X167093753Y-84130454D01*
X166961724Y-84201026D01*
X166845999Y-84295999D01*
X166822201Y-84324997D01*
X166097100Y-85050098D01*
X166129696Y-84971405D01*
X166181000Y-84713486D01*
X166181000Y-84450514D01*
X166129696Y-84192595D01*
X166029061Y-83949641D01*
X165981000Y-83877712D01*
X165981000Y-80065752D01*
X165986491Y-80010000D01*
X165964577Y-79787501D01*
X165899676Y-79573553D01*
X165794284Y-79376377D01*
X165747650Y-79319554D01*
X165652449Y-79203551D01*
X165609140Y-79168008D01*
X165179131Y-78738000D01*
X175518807Y-78738000D01*
X175388377Y-78807716D01*
G37*
%TD.AperFunction*%
D23*
X191264000Y-81086802D02*
X191264000Y-81111928D01*
X189954000Y-81111928D01*
X189829518Y-81124188D01*
X189709820Y-81160498D01*
X189599506Y-81219463D01*
X189502815Y-81298815D01*
X189423463Y-81395506D01*
X189382738Y-81471697D01*
X189301553Y-81496324D01*
X189104377Y-81601716D01*
X188931551Y-81743551D01*
X188896011Y-81786857D01*
X186309000Y-84373868D01*
X180927996Y-78992865D01*
X180892449Y-78949551D01*
X180719623Y-78807716D01*
X180589193Y-78738000D01*
X188915199Y-78738000D01*
X191264000Y-81086802D01*
%TA.AperFunction,Conductor*%
D24*
G36*
X191264000Y-81086802D02*
G01*
X191264000Y-81111928D01*
X189954000Y-81111928D01*
X189829518Y-81124188D01*
X189709820Y-81160498D01*
X189599506Y-81219463D01*
X189502815Y-81298815D01*
X189423463Y-81395506D01*
X189382738Y-81471697D01*
X189301553Y-81496324D01*
X189104377Y-81601716D01*
X188931551Y-81743551D01*
X188896011Y-81786857D01*
X186309000Y-84373868D01*
X180927996Y-78992865D01*
X180892449Y-78949551D01*
X180719623Y-78807716D01*
X180589193Y-78738000D01*
X188915199Y-78738000D01*
X191264000Y-81086802D01*
G37*
%TD.AperFunction*%
%TD*%
M02*
