%TF.GenerationSoftware,KiCad,Pcbnew,(5.1.9-0-10_14)*%
%TF.CreationDate,2022-01-29T10:24:00+00:00*%
%TF.ProjectId,SimpleRamFlashCartridge,53696d70-6c65-4526-916d-466c61736843,rev?*%
%TF.SameCoordinates,Original*%
%TF.FileFunction,Legend,Top*%
%TF.FilePolarity,Positive*%
%FSLAX46Y46*%
G04 Gerber Fmt 4.6, Leading zero omitted, Abs format (unit mm)*
G04 Created by KiCad (PCBNEW (5.1.9-0-10_14)) date 2022-01-29 10:24:00*
%MOMM*%
%LPD*%
G01*
G04 APERTURE LIST*
%ADD10C,0.150000*%
%ADD11C,0.300000*%
%ADD12C,0.120000*%
G04 APERTURE END LIST*
D10*
X157535714Y-70302380D02*
X157535714Y-69302380D01*
X157916666Y-69302380D01*
X158011904Y-69350000D01*
X158059523Y-69397619D01*
X158107142Y-69492857D01*
X158107142Y-69635714D01*
X158059523Y-69730952D01*
X158011904Y-69778571D01*
X157916666Y-69826190D01*
X157535714Y-69826190D01*
X158488095Y-69397619D02*
X158535714Y-69350000D01*
X158630952Y-69302380D01*
X158869047Y-69302380D01*
X158964285Y-69350000D01*
X159011904Y-69397619D01*
X159059523Y-69492857D01*
X159059523Y-69588095D01*
X159011904Y-69730952D01*
X158440476Y-70302380D01*
X159059523Y-70302380D01*
X159392857Y-69302380D02*
X160059523Y-69302380D01*
X159630952Y-70302380D01*
X162837904Y-70302380D02*
X162837904Y-69302380D01*
X163218857Y-69302380D01*
X163314095Y-69350000D01*
X163361714Y-69397619D01*
X163409333Y-69492857D01*
X163409333Y-69635714D01*
X163361714Y-69730952D01*
X163314095Y-69778571D01*
X163218857Y-69826190D01*
X162837904Y-69826190D01*
X164361714Y-70302380D02*
X163790285Y-70302380D01*
X164076000Y-70302380D02*
X164076000Y-69302380D01*
X163980761Y-69445238D01*
X163885523Y-69540476D01*
X163790285Y-69588095D01*
X172243714Y-86558380D02*
X171672285Y-86558380D01*
X171958000Y-86558380D02*
X171958000Y-85558380D01*
X171862761Y-85701238D01*
X171767523Y-85796476D01*
X171672285Y-85844095D01*
X186888380Y-106140285D02*
X186888380Y-106711714D01*
X186888380Y-106426000D02*
X185888380Y-106426000D01*
X186031238Y-106521238D01*
X186126476Y-106616476D01*
X186174095Y-106711714D01*
X230981428Y-70048380D02*
X230648095Y-69572190D01*
X230410000Y-70048380D02*
X230410000Y-69048380D01*
X230790952Y-69048380D01*
X230886190Y-69096000D01*
X230933809Y-69143619D01*
X230981428Y-69238857D01*
X230981428Y-69381714D01*
X230933809Y-69476952D01*
X230886190Y-69524571D01*
X230790952Y-69572190D01*
X230410000Y-69572190D01*
X231410000Y-69524571D02*
X231743333Y-69524571D01*
X231886190Y-70048380D02*
X231410000Y-70048380D01*
X231410000Y-69048380D01*
X231886190Y-69048380D01*
X232171904Y-69048380D02*
X232505238Y-70048380D01*
X232838571Y-69048380D01*
X233886190Y-69143619D02*
X233933809Y-69096000D01*
X234029047Y-69048380D01*
X234267142Y-69048380D01*
X234362380Y-69096000D01*
X234410000Y-69143619D01*
X234457619Y-69238857D01*
X234457619Y-69334095D01*
X234410000Y-69476952D01*
X233838571Y-70048380D01*
X234457619Y-70048380D01*
X175087904Y-76525333D02*
X175040285Y-76477714D01*
X174945047Y-76334857D01*
X174897428Y-76239619D01*
X174849809Y-76096761D01*
X174802190Y-75858666D01*
X174802190Y-75668190D01*
X174849809Y-75430095D01*
X174897428Y-75287238D01*
X174945047Y-75192000D01*
X175040285Y-75049142D01*
X175087904Y-75001523D01*
X175897428Y-76096761D02*
X175802190Y-76144380D01*
X175611714Y-76144380D01*
X175516476Y-76096761D01*
X175468857Y-76049142D01*
X175421238Y-75953904D01*
X175421238Y-75668190D01*
X175468857Y-75572952D01*
X175516476Y-75525333D01*
X175611714Y-75477714D01*
X175802190Y-75477714D01*
X175897428Y-75525333D01*
X176230761Y-76525333D02*
X176278380Y-76477714D01*
X176373619Y-76334857D01*
X176421238Y-76239619D01*
X176468857Y-76096761D01*
X176516476Y-75858666D01*
X176516476Y-75668190D01*
X176468857Y-75430095D01*
X176421238Y-75287238D01*
X176373619Y-75192000D01*
X176278380Y-75049142D01*
X176230761Y-75001523D01*
X178326000Y-76049142D02*
X178278380Y-76096761D01*
X178135523Y-76144380D01*
X178040285Y-76144380D01*
X177897428Y-76096761D01*
X177802190Y-76001523D01*
X177754571Y-75906285D01*
X177706952Y-75715809D01*
X177706952Y-75572952D01*
X177754571Y-75382476D01*
X177802190Y-75287238D01*
X177897428Y-75192000D01*
X178040285Y-75144380D01*
X178135523Y-75144380D01*
X178278380Y-75192000D01*
X178326000Y-75239619D01*
X178659333Y-75477714D02*
X178897428Y-76144380D01*
X179135523Y-75477714D02*
X178897428Y-76144380D01*
X178802190Y-76382476D01*
X178754571Y-76430095D01*
X178659333Y-76477714D01*
X179516476Y-76144380D02*
X179516476Y-75144380D01*
X179516476Y-75525333D02*
X179611714Y-75477714D01*
X179802190Y-75477714D01*
X179897428Y-75525333D01*
X179945047Y-75572952D01*
X179992666Y-75668190D01*
X179992666Y-75953904D01*
X179945047Y-76049142D01*
X179897428Y-76096761D01*
X179802190Y-76144380D01*
X179611714Y-76144380D01*
X179516476Y-76096761D01*
X180802190Y-76096761D02*
X180706952Y-76144380D01*
X180516476Y-76144380D01*
X180421238Y-76096761D01*
X180373619Y-76001523D01*
X180373619Y-75620571D01*
X180421238Y-75525333D01*
X180516476Y-75477714D01*
X180706952Y-75477714D01*
X180802190Y-75525333D01*
X180849809Y-75620571D01*
X180849809Y-75715809D01*
X180373619Y-75811047D01*
X181278380Y-76144380D02*
X181278380Y-75477714D01*
X181278380Y-75668190D02*
X181326000Y-75572952D01*
X181373619Y-75525333D01*
X181468857Y-75477714D01*
X181564095Y-75477714D01*
X181849809Y-76096761D02*
X181945047Y-76144380D01*
X182135523Y-76144380D01*
X182230761Y-76096761D01*
X182278380Y-76001523D01*
X182278380Y-75953904D01*
X182230761Y-75858666D01*
X182135523Y-75811047D01*
X181992666Y-75811047D01*
X181897428Y-75763428D01*
X181849809Y-75668190D01*
X181849809Y-75620571D01*
X181897428Y-75525333D01*
X181992666Y-75477714D01*
X182135523Y-75477714D01*
X182230761Y-75525333D01*
X182706952Y-75477714D02*
X182706952Y-76477714D01*
X182706952Y-75525333D02*
X182802190Y-75477714D01*
X182992666Y-75477714D01*
X183087904Y-75525333D01*
X183135523Y-75572952D01*
X183183142Y-75668190D01*
X183183142Y-75953904D01*
X183135523Y-76049142D01*
X183087904Y-76096761D01*
X182992666Y-76144380D01*
X182802190Y-76144380D01*
X182706952Y-76096761D01*
X183611714Y-76144380D02*
X183611714Y-75477714D01*
X183611714Y-75144380D02*
X183564095Y-75192000D01*
X183611714Y-75239619D01*
X183659333Y-75192000D01*
X183611714Y-75144380D01*
X183611714Y-75239619D01*
X184516476Y-76096761D02*
X184421238Y-76144380D01*
X184230761Y-76144380D01*
X184135523Y-76096761D01*
X184087904Y-76049142D01*
X184040285Y-75953904D01*
X184040285Y-75668190D01*
X184087904Y-75572952D01*
X184135523Y-75525333D01*
X184230761Y-75477714D01*
X184421238Y-75477714D01*
X184516476Y-75525333D01*
X185326000Y-76096761D02*
X185230761Y-76144380D01*
X185040285Y-76144380D01*
X184945047Y-76096761D01*
X184897428Y-76001523D01*
X184897428Y-75620571D01*
X184945047Y-75525333D01*
X185040285Y-75477714D01*
X185230761Y-75477714D01*
X185326000Y-75525333D01*
X185373619Y-75620571D01*
X185373619Y-75715809D01*
X184897428Y-75811047D01*
X186516476Y-75239619D02*
X186564095Y-75192000D01*
X186659333Y-75144380D01*
X186897428Y-75144380D01*
X186992666Y-75192000D01*
X187040285Y-75239619D01*
X187087904Y-75334857D01*
X187087904Y-75430095D01*
X187040285Y-75572952D01*
X186468857Y-76144380D01*
X187087904Y-76144380D01*
X187706952Y-75144380D02*
X187802190Y-75144380D01*
X187897428Y-75192000D01*
X187945047Y-75239619D01*
X187992666Y-75334857D01*
X188040285Y-75525333D01*
X188040285Y-75763428D01*
X187992666Y-75953904D01*
X187945047Y-76049142D01*
X187897428Y-76096761D01*
X187802190Y-76144380D01*
X187706952Y-76144380D01*
X187611714Y-76096761D01*
X187564095Y-76049142D01*
X187516476Y-75953904D01*
X187468857Y-75763428D01*
X187468857Y-75525333D01*
X187516476Y-75334857D01*
X187564095Y-75239619D01*
X187611714Y-75192000D01*
X187706952Y-75144380D01*
X188421238Y-75239619D02*
X188468857Y-75192000D01*
X188564095Y-75144380D01*
X188802190Y-75144380D01*
X188897428Y-75192000D01*
X188945047Y-75239619D01*
X188992666Y-75334857D01*
X188992666Y-75430095D01*
X188945047Y-75572952D01*
X188373619Y-76144380D01*
X188992666Y-76144380D01*
X189945047Y-76144380D02*
X189373619Y-76144380D01*
X189659333Y-76144380D02*
X189659333Y-75144380D01*
X189564095Y-75287238D01*
X189468857Y-75382476D01*
X189373619Y-75430095D01*
X191135523Y-75763428D02*
X191897428Y-75763428D01*
X193135523Y-76144380D02*
X193135523Y-75144380D01*
X193564095Y-76144380D02*
X193564095Y-75620571D01*
X193516476Y-75525333D01*
X193421238Y-75477714D01*
X193278380Y-75477714D01*
X193183142Y-75525333D01*
X193135523Y-75572952D01*
X193897428Y-75477714D02*
X194278380Y-75477714D01*
X194040285Y-75144380D02*
X194040285Y-76001523D01*
X194087904Y-76096761D01*
X194183142Y-76144380D01*
X194278380Y-76144380D01*
X194468857Y-75477714D02*
X194849809Y-75477714D01*
X194611714Y-75144380D02*
X194611714Y-76001523D01*
X194659333Y-76096761D01*
X194754571Y-76144380D01*
X194849809Y-76144380D01*
X195183142Y-75477714D02*
X195183142Y-76477714D01*
X195183142Y-75525333D02*
X195278380Y-75477714D01*
X195468857Y-75477714D01*
X195564095Y-75525333D01*
X195611714Y-75572952D01*
X195659333Y-75668190D01*
X195659333Y-75953904D01*
X195611714Y-76049142D01*
X195564095Y-76096761D01*
X195468857Y-76144380D01*
X195278380Y-76144380D01*
X195183142Y-76096761D01*
X196087904Y-76049142D02*
X196135523Y-76096761D01*
X196087904Y-76144380D01*
X196040285Y-76096761D01*
X196087904Y-76049142D01*
X196087904Y-76144380D01*
X196087904Y-75525333D02*
X196135523Y-75572952D01*
X196087904Y-75620571D01*
X196040285Y-75572952D01*
X196087904Y-75525333D01*
X196087904Y-75620571D01*
X197278380Y-75096761D02*
X196421238Y-76382476D01*
X198326000Y-75096761D02*
X197468857Y-76382476D01*
X198564095Y-75477714D02*
X198754571Y-76144380D01*
X198945047Y-75668190D01*
X199135523Y-76144380D01*
X199326000Y-75477714D01*
X199611714Y-75477714D02*
X199802190Y-76144380D01*
X199992666Y-75668190D01*
X200183142Y-76144380D01*
X200373619Y-75477714D01*
X200659333Y-75477714D02*
X200849809Y-76144380D01*
X201040285Y-75668190D01*
X201230761Y-76144380D01*
X201421238Y-75477714D01*
X201802190Y-76049142D02*
X201849809Y-76096761D01*
X201802190Y-76144380D01*
X201754571Y-76096761D01*
X201802190Y-76049142D01*
X201802190Y-76144380D01*
X202706952Y-76096761D02*
X202611714Y-76144380D01*
X202421238Y-76144380D01*
X202326000Y-76096761D01*
X202278380Y-76049142D01*
X202230761Y-75953904D01*
X202230761Y-75668190D01*
X202278380Y-75572952D01*
X202326000Y-75525333D01*
X202421238Y-75477714D01*
X202611714Y-75477714D01*
X202706952Y-75525333D01*
X203040285Y-75477714D02*
X203278380Y-76144380D01*
X203516476Y-75477714D02*
X203278380Y-76144380D01*
X203183142Y-76382476D01*
X203135523Y-76430095D01*
X203040285Y-76477714D01*
X203897428Y-76144380D02*
X203897428Y-75144380D01*
X203897428Y-75525333D02*
X203992666Y-75477714D01*
X204183142Y-75477714D01*
X204278380Y-75525333D01*
X204326000Y-75572952D01*
X204373619Y-75668190D01*
X204373619Y-75953904D01*
X204326000Y-76049142D01*
X204278380Y-76096761D01*
X204183142Y-76144380D01*
X203992666Y-76144380D01*
X203897428Y-76096761D01*
X205183142Y-76096761D02*
X205087904Y-76144380D01*
X204897428Y-76144380D01*
X204802190Y-76096761D01*
X204754571Y-76001523D01*
X204754571Y-75620571D01*
X204802190Y-75525333D01*
X204897428Y-75477714D01*
X205087904Y-75477714D01*
X205183142Y-75525333D01*
X205230761Y-75620571D01*
X205230761Y-75715809D01*
X204754571Y-75811047D01*
X205659333Y-76144380D02*
X205659333Y-75477714D01*
X205659333Y-75668190D02*
X205706952Y-75572952D01*
X205754571Y-75525333D01*
X205849809Y-75477714D01*
X205945047Y-75477714D01*
X206230761Y-76096761D02*
X206326000Y-76144380D01*
X206516476Y-76144380D01*
X206611714Y-76096761D01*
X206659333Y-76001523D01*
X206659333Y-75953904D01*
X206611714Y-75858666D01*
X206516476Y-75811047D01*
X206373619Y-75811047D01*
X206278380Y-75763428D01*
X206230761Y-75668190D01*
X206230761Y-75620571D01*
X206278380Y-75525333D01*
X206373619Y-75477714D01*
X206516476Y-75477714D01*
X206611714Y-75525333D01*
X207087904Y-75477714D02*
X207087904Y-76477714D01*
X207087904Y-75525333D02*
X207183142Y-75477714D01*
X207373619Y-75477714D01*
X207468857Y-75525333D01*
X207516476Y-75572952D01*
X207564095Y-75668190D01*
X207564095Y-75953904D01*
X207516476Y-76049142D01*
X207468857Y-76096761D01*
X207373619Y-76144380D01*
X207183142Y-76144380D01*
X207087904Y-76096761D01*
X207992666Y-76144380D02*
X207992666Y-75477714D01*
X207992666Y-75144380D02*
X207945047Y-75192000D01*
X207992666Y-75239619D01*
X208040285Y-75192000D01*
X207992666Y-75144380D01*
X207992666Y-75239619D01*
X208897428Y-76096761D02*
X208802190Y-76144380D01*
X208611714Y-76144380D01*
X208516476Y-76096761D01*
X208468857Y-76049142D01*
X208421238Y-75953904D01*
X208421238Y-75668190D01*
X208468857Y-75572952D01*
X208516476Y-75525333D01*
X208611714Y-75477714D01*
X208802190Y-75477714D01*
X208897428Y-75525333D01*
X209706952Y-76096761D02*
X209611714Y-76144380D01*
X209421238Y-76144380D01*
X209326000Y-76096761D01*
X209278380Y-76001523D01*
X209278380Y-75620571D01*
X209326000Y-75525333D01*
X209421238Y-75477714D01*
X209611714Y-75477714D01*
X209706952Y-75525333D01*
X209754571Y-75620571D01*
X209754571Y-75715809D01*
X209278380Y-75811047D01*
X210183142Y-76049142D02*
X210230761Y-76096761D01*
X210183142Y-76144380D01*
X210135523Y-76096761D01*
X210183142Y-76049142D01*
X210183142Y-76144380D01*
X210802190Y-76144380D02*
X210706952Y-76096761D01*
X210659333Y-76049142D01*
X210611714Y-75953904D01*
X210611714Y-75668190D01*
X210659333Y-75572952D01*
X210706952Y-75525333D01*
X210802190Y-75477714D01*
X210945047Y-75477714D01*
X211040285Y-75525333D01*
X211087904Y-75572952D01*
X211135523Y-75668190D01*
X211135523Y-75953904D01*
X211087904Y-76049142D01*
X211040285Y-76096761D01*
X210945047Y-76144380D01*
X210802190Y-76144380D01*
X211564095Y-76144380D02*
X211564095Y-75477714D01*
X211564095Y-75668190D02*
X211611714Y-75572952D01*
X211659333Y-75525333D01*
X211754571Y-75477714D01*
X211849809Y-75477714D01*
X212611714Y-75477714D02*
X212611714Y-76287238D01*
X212564095Y-76382476D01*
X212516476Y-76430095D01*
X212421238Y-76477714D01*
X212278380Y-76477714D01*
X212183142Y-76430095D01*
X212611714Y-76096761D02*
X212516476Y-76144380D01*
X212326000Y-76144380D01*
X212230761Y-76096761D01*
X212183142Y-76049142D01*
X212135523Y-75953904D01*
X212135523Y-75668190D01*
X212183142Y-75572952D01*
X212230761Y-75525333D01*
X212326000Y-75477714D01*
X212516476Y-75477714D01*
X212611714Y-75525333D01*
X213087904Y-76049142D02*
X213135523Y-76096761D01*
X213087904Y-76144380D01*
X213040285Y-76096761D01*
X213087904Y-76049142D01*
X213087904Y-76144380D01*
X213992666Y-75477714D02*
X213992666Y-76144380D01*
X213564095Y-75477714D02*
X213564095Y-76001523D01*
X213611714Y-76096761D01*
X213706952Y-76144380D01*
X213849809Y-76144380D01*
X213945047Y-76096761D01*
X213992666Y-76049142D01*
X214468857Y-76144380D02*
X214468857Y-75144380D01*
X214564095Y-75763428D02*
X214849809Y-76144380D01*
X214849809Y-75477714D02*
X214468857Y-75858666D01*
X215992666Y-75096761D02*
X215135523Y-76382476D01*
X165925523Y-113498380D02*
X165449333Y-113498380D01*
X165401714Y-113974571D01*
X165449333Y-113926952D01*
X165544571Y-113879333D01*
X165782666Y-113879333D01*
X165877904Y-113926952D01*
X165925523Y-113974571D01*
X165973142Y-114069809D01*
X165973142Y-114307904D01*
X165925523Y-114403142D01*
X165877904Y-114450761D01*
X165782666Y-114498380D01*
X165544571Y-114498380D01*
X165449333Y-114450761D01*
X165401714Y-114403142D01*
X166258857Y-113498380D02*
X166592190Y-114498380D01*
X166925523Y-113498380D01*
X224282095Y-113546000D02*
X224186857Y-113498380D01*
X224044000Y-113498380D01*
X223901142Y-113546000D01*
X223805904Y-113641238D01*
X223758285Y-113736476D01*
X223710666Y-113926952D01*
X223710666Y-114069809D01*
X223758285Y-114260285D01*
X223805904Y-114355523D01*
X223901142Y-114450761D01*
X224044000Y-114498380D01*
X224139238Y-114498380D01*
X224282095Y-114450761D01*
X224329714Y-114403142D01*
X224329714Y-114069809D01*
X224139238Y-114069809D01*
X224758285Y-114498380D02*
X224758285Y-113498380D01*
X225329714Y-114498380D01*
X225329714Y-113498380D01*
X225805904Y-114498380D02*
X225805904Y-113498380D01*
X226044000Y-113498380D01*
X226186857Y-113546000D01*
X226282095Y-113641238D01*
X226329714Y-113736476D01*
X226377333Y-113926952D01*
X226377333Y-114069809D01*
X226329714Y-114260285D01*
X226282095Y-114355523D01*
X226186857Y-114450761D01*
X226044000Y-114498380D01*
X225805904Y-114498380D01*
X166600285Y-79700380D02*
X166266952Y-79224190D01*
X166028857Y-79700380D02*
X166028857Y-78700380D01*
X166409809Y-78700380D01*
X166505047Y-78748000D01*
X166552666Y-78795619D01*
X166600285Y-78890857D01*
X166600285Y-79033714D01*
X166552666Y-79128952D01*
X166505047Y-79176571D01*
X166409809Y-79224190D01*
X166028857Y-79224190D01*
X167219333Y-78700380D02*
X167409809Y-78700380D01*
X167505047Y-78748000D01*
X167600285Y-78843238D01*
X167647904Y-79033714D01*
X167647904Y-79367047D01*
X167600285Y-79557523D01*
X167505047Y-79652761D01*
X167409809Y-79700380D01*
X167219333Y-79700380D01*
X167124095Y-79652761D01*
X167028857Y-79557523D01*
X166981238Y-79367047D01*
X166981238Y-79033714D01*
X167028857Y-78843238D01*
X167124095Y-78748000D01*
X167219333Y-78700380D01*
X168076476Y-79700380D02*
X168076476Y-78700380D01*
X168409809Y-79414666D01*
X168743142Y-78700380D01*
X168743142Y-79700380D01*
X166695523Y-74620380D02*
X166362190Y-74144190D01*
X166124095Y-74620380D02*
X166124095Y-73620380D01*
X166505047Y-73620380D01*
X166600285Y-73668000D01*
X166647904Y-73715619D01*
X166695523Y-73810857D01*
X166695523Y-73953714D01*
X166647904Y-74048952D01*
X166600285Y-74096571D01*
X166505047Y-74144190D01*
X166124095Y-74144190D01*
X167076476Y-74334666D02*
X167552666Y-74334666D01*
X166981238Y-74620380D02*
X167314571Y-73620380D01*
X167647904Y-74620380D01*
X167981238Y-74620380D02*
X167981238Y-73620380D01*
X168314571Y-74334666D01*
X168647904Y-73620380D01*
X168647904Y-74620380D01*
X158281714Y-93908571D02*
X158615047Y-93908571D01*
X158757904Y-94432380D02*
X158281714Y-94432380D01*
X158281714Y-93432380D01*
X158757904Y-93432380D01*
X158162666Y-89352380D02*
X158162666Y-88352380D01*
X158496000Y-89066666D01*
X158829333Y-88352380D01*
X158829333Y-89352380D01*
D11*
X177595809Y-70786761D02*
X178738666Y-70786761D01*
X178167238Y-72786761D02*
X178167238Y-70786761D01*
X179786285Y-70786761D02*
X180167238Y-70786761D01*
X180357714Y-70882000D01*
X180548190Y-71072476D01*
X180643428Y-71453428D01*
X180643428Y-72120095D01*
X180548190Y-72501047D01*
X180357714Y-72691523D01*
X180167238Y-72786761D01*
X179786285Y-72786761D01*
X179595809Y-72691523D01*
X179405333Y-72501047D01*
X179310095Y-72120095D01*
X179310095Y-71453428D01*
X179405333Y-71072476D01*
X179595809Y-70882000D01*
X179786285Y-70786761D01*
X184167238Y-72786761D02*
X183500571Y-71834380D01*
X183024380Y-72786761D02*
X183024380Y-70786761D01*
X183786285Y-70786761D01*
X183976761Y-70882000D01*
X184072000Y-70977238D01*
X184167238Y-71167714D01*
X184167238Y-71453428D01*
X184072000Y-71643904D01*
X183976761Y-71739142D01*
X183786285Y-71834380D01*
X183024380Y-71834380D01*
X185024380Y-71739142D02*
X185691047Y-71739142D01*
X185976761Y-72786761D02*
X185024380Y-72786761D01*
X185024380Y-70786761D01*
X185976761Y-70786761D01*
X186738666Y-72215333D02*
X187691047Y-72215333D01*
X186548190Y-72786761D02*
X187214857Y-70786761D01*
X187881523Y-72786761D01*
X189691047Y-72786761D02*
X189024380Y-71834380D01*
X188548190Y-72786761D02*
X188548190Y-70786761D01*
X189310095Y-70786761D01*
X189500571Y-70882000D01*
X189595809Y-70977238D01*
X189691047Y-71167714D01*
X189691047Y-71453428D01*
X189595809Y-71643904D01*
X189500571Y-71739142D01*
X189310095Y-71834380D01*
X188548190Y-71834380D01*
X192452952Y-70786761D02*
X192833904Y-70786761D01*
X193024380Y-70882000D01*
X193214857Y-71072476D01*
X193310095Y-71453428D01*
X193310095Y-72120095D01*
X193214857Y-72501047D01*
X193024380Y-72691523D01*
X192833904Y-72786761D01*
X192452952Y-72786761D01*
X192262476Y-72691523D01*
X192072000Y-72501047D01*
X191976761Y-72120095D01*
X191976761Y-71453428D01*
X192072000Y-71072476D01*
X192262476Y-70882000D01*
X192452952Y-70786761D01*
X194833904Y-71739142D02*
X194167238Y-71739142D01*
X194167238Y-72786761D02*
X194167238Y-70786761D01*
X195119619Y-70786761D01*
X198548190Y-72596285D02*
X198452952Y-72691523D01*
X198167238Y-72786761D01*
X197976761Y-72786761D01*
X197691047Y-72691523D01*
X197500571Y-72501047D01*
X197405333Y-72310571D01*
X197310095Y-71929619D01*
X197310095Y-71643904D01*
X197405333Y-71262952D01*
X197500571Y-71072476D01*
X197691047Y-70882000D01*
X197976761Y-70786761D01*
X198167238Y-70786761D01*
X198452952Y-70882000D01*
X198548190Y-70977238D01*
X199786285Y-70786761D02*
X200167238Y-70786761D01*
X200357714Y-70882000D01*
X200548190Y-71072476D01*
X200643428Y-71453428D01*
X200643428Y-72120095D01*
X200548190Y-72501047D01*
X200357714Y-72691523D01*
X200167238Y-72786761D01*
X199786285Y-72786761D01*
X199595809Y-72691523D01*
X199405333Y-72501047D01*
X199310095Y-72120095D01*
X199310095Y-71453428D01*
X199405333Y-71072476D01*
X199595809Y-70882000D01*
X199786285Y-70786761D01*
X201500571Y-72786761D02*
X201500571Y-70786761D01*
X202167238Y-72215333D01*
X202833904Y-70786761D01*
X202833904Y-72786761D01*
X203786285Y-72786761D02*
X203786285Y-70786761D01*
X204548190Y-70786761D01*
X204738666Y-70882000D01*
X204833904Y-70977238D01*
X204929142Y-71167714D01*
X204929142Y-71453428D01*
X204833904Y-71643904D01*
X204738666Y-71739142D01*
X204548190Y-71834380D01*
X203786285Y-71834380D01*
X205786285Y-70786761D02*
X205786285Y-72405809D01*
X205881523Y-72596285D01*
X205976761Y-72691523D01*
X206167238Y-72786761D01*
X206548190Y-72786761D01*
X206738666Y-72691523D01*
X206833904Y-72596285D01*
X206929142Y-72405809D01*
X206929142Y-70786761D01*
X207595809Y-70786761D02*
X208738666Y-70786761D01*
X208167238Y-72786761D02*
X208167238Y-70786761D01*
X209405333Y-71739142D02*
X210072000Y-71739142D01*
X210357714Y-72786761D02*
X209405333Y-72786761D01*
X209405333Y-70786761D01*
X210357714Y-70786761D01*
X212357714Y-72786761D02*
X211691047Y-71834380D01*
X211214857Y-72786761D02*
X211214857Y-70786761D01*
X211976761Y-70786761D01*
X212167238Y-70882000D01*
X212262476Y-70977238D01*
X212357714Y-71167714D01*
X212357714Y-71453428D01*
X212262476Y-71643904D01*
X212167238Y-71739142D01*
X211976761Y-71834380D01*
X211214857Y-71834380D01*
D12*
%TO.C,C2*%
X189449225Y-80825000D02*
X189449225Y-81325000D01*
X189199225Y-81075000D02*
X189699225Y-81075000D01*
X194605000Y-82266000D02*
X194605000Y-82834000D01*
X194565000Y-82032000D02*
X194565000Y-83068000D01*
X194525000Y-81873000D02*
X194525000Y-83227000D01*
X194485000Y-81745000D02*
X194485000Y-83355000D01*
X194445000Y-81635000D02*
X194445000Y-83465000D01*
X194405000Y-81539000D02*
X194405000Y-83561000D01*
X194365000Y-81452000D02*
X194365000Y-83648000D01*
X194325000Y-81372000D02*
X194325000Y-83728000D01*
X194285000Y-83590000D02*
X194285000Y-83801000D01*
X194285000Y-81299000D02*
X194285000Y-81510000D01*
X194245000Y-83590000D02*
X194245000Y-83869000D01*
X194245000Y-81231000D02*
X194245000Y-81510000D01*
X194205000Y-83590000D02*
X194205000Y-83933000D01*
X194205000Y-81167000D02*
X194205000Y-81510000D01*
X194165000Y-83590000D02*
X194165000Y-83993000D01*
X194165000Y-81107000D02*
X194165000Y-81510000D01*
X194125000Y-83590000D02*
X194125000Y-84050000D01*
X194125000Y-81050000D02*
X194125000Y-81510000D01*
X194085000Y-83590000D02*
X194085000Y-84104000D01*
X194085000Y-80996000D02*
X194085000Y-81510000D01*
X194045000Y-83590000D02*
X194045000Y-84155000D01*
X194045000Y-80945000D02*
X194045000Y-81510000D01*
X194005000Y-83590000D02*
X194005000Y-84203000D01*
X194005000Y-80897000D02*
X194005000Y-81510000D01*
X193965000Y-83590000D02*
X193965000Y-84249000D01*
X193965000Y-80851000D02*
X193965000Y-81510000D01*
X193925000Y-83590000D02*
X193925000Y-84293000D01*
X193925000Y-80807000D02*
X193925000Y-81510000D01*
X193885000Y-83590000D02*
X193885000Y-84335000D01*
X193885000Y-80765000D02*
X193885000Y-81510000D01*
X193845000Y-83590000D02*
X193845000Y-84376000D01*
X193845000Y-80724000D02*
X193845000Y-81510000D01*
X193805000Y-83590000D02*
X193805000Y-84414000D01*
X193805000Y-80686000D02*
X193805000Y-81510000D01*
X193765000Y-83590000D02*
X193765000Y-84451000D01*
X193765000Y-80649000D02*
X193765000Y-81510000D01*
X193725000Y-83590000D02*
X193725000Y-84487000D01*
X193725000Y-80613000D02*
X193725000Y-81510000D01*
X193685000Y-83590000D02*
X193685000Y-84521000D01*
X193685000Y-80579000D02*
X193685000Y-81510000D01*
X193645000Y-83590000D02*
X193645000Y-84554000D01*
X193645000Y-80546000D02*
X193645000Y-81510000D01*
X193605000Y-83590000D02*
X193605000Y-84585000D01*
X193605000Y-80515000D02*
X193605000Y-81510000D01*
X193565000Y-83590000D02*
X193565000Y-84615000D01*
X193565000Y-80485000D02*
X193565000Y-81510000D01*
X193525000Y-83590000D02*
X193525000Y-84645000D01*
X193525000Y-80455000D02*
X193525000Y-81510000D01*
X193485000Y-83590000D02*
X193485000Y-84672000D01*
X193485000Y-80428000D02*
X193485000Y-81510000D01*
X193445000Y-83590000D02*
X193445000Y-84699000D01*
X193445000Y-80401000D02*
X193445000Y-81510000D01*
X193405000Y-83590000D02*
X193405000Y-84725000D01*
X193405000Y-80375000D02*
X193405000Y-81510000D01*
X193365000Y-83590000D02*
X193365000Y-84750000D01*
X193365000Y-80350000D02*
X193365000Y-81510000D01*
X193325000Y-83590000D02*
X193325000Y-84774000D01*
X193325000Y-80326000D02*
X193325000Y-81510000D01*
X193285000Y-83590000D02*
X193285000Y-84797000D01*
X193285000Y-80303000D02*
X193285000Y-81510000D01*
X193245000Y-83590000D02*
X193245000Y-84818000D01*
X193245000Y-80282000D02*
X193245000Y-81510000D01*
X193205000Y-83590000D02*
X193205000Y-84840000D01*
X193205000Y-80260000D02*
X193205000Y-81510000D01*
X193165000Y-83590000D02*
X193165000Y-84860000D01*
X193165000Y-80240000D02*
X193165000Y-81510000D01*
X193125000Y-83590000D02*
X193125000Y-84879000D01*
X193125000Y-80221000D02*
X193125000Y-81510000D01*
X193085000Y-83590000D02*
X193085000Y-84898000D01*
X193085000Y-80202000D02*
X193085000Y-81510000D01*
X193045000Y-83590000D02*
X193045000Y-84915000D01*
X193045000Y-80185000D02*
X193045000Y-81510000D01*
X193005000Y-83590000D02*
X193005000Y-84932000D01*
X193005000Y-80168000D02*
X193005000Y-81510000D01*
X192965000Y-83590000D02*
X192965000Y-84948000D01*
X192965000Y-80152000D02*
X192965000Y-81510000D01*
X192925000Y-83590000D02*
X192925000Y-84964000D01*
X192925000Y-80136000D02*
X192925000Y-81510000D01*
X192885000Y-83590000D02*
X192885000Y-84978000D01*
X192885000Y-80122000D02*
X192885000Y-81510000D01*
X192845000Y-83590000D02*
X192845000Y-84992000D01*
X192845000Y-80108000D02*
X192845000Y-81510000D01*
X192805000Y-83590000D02*
X192805000Y-85005000D01*
X192805000Y-80095000D02*
X192805000Y-81510000D01*
X192765000Y-83590000D02*
X192765000Y-85018000D01*
X192765000Y-80082000D02*
X192765000Y-81510000D01*
X192725000Y-83590000D02*
X192725000Y-85030000D01*
X192725000Y-80070000D02*
X192725000Y-81510000D01*
X192684000Y-83590000D02*
X192684000Y-85041000D01*
X192684000Y-80059000D02*
X192684000Y-81510000D01*
X192644000Y-83590000D02*
X192644000Y-85051000D01*
X192644000Y-80049000D02*
X192644000Y-81510000D01*
X192604000Y-83590000D02*
X192604000Y-85061000D01*
X192604000Y-80039000D02*
X192604000Y-81510000D01*
X192564000Y-83590000D02*
X192564000Y-85070000D01*
X192564000Y-80030000D02*
X192564000Y-81510000D01*
X192524000Y-83590000D02*
X192524000Y-85078000D01*
X192524000Y-80022000D02*
X192524000Y-81510000D01*
X192484000Y-83590000D02*
X192484000Y-85086000D01*
X192484000Y-80014000D02*
X192484000Y-81510000D01*
X192444000Y-83590000D02*
X192444000Y-85093000D01*
X192444000Y-80007000D02*
X192444000Y-81510000D01*
X192404000Y-83590000D02*
X192404000Y-85100000D01*
X192404000Y-80000000D02*
X192404000Y-81510000D01*
X192364000Y-83590000D02*
X192364000Y-85106000D01*
X192364000Y-79994000D02*
X192364000Y-81510000D01*
X192324000Y-83590000D02*
X192324000Y-85111000D01*
X192324000Y-79989000D02*
X192324000Y-81510000D01*
X192284000Y-83590000D02*
X192284000Y-85115000D01*
X192284000Y-79985000D02*
X192284000Y-81510000D01*
X192244000Y-83590000D02*
X192244000Y-85119000D01*
X192244000Y-79981000D02*
X192244000Y-81510000D01*
X192204000Y-79977000D02*
X192204000Y-85123000D01*
X192164000Y-79974000D02*
X192164000Y-85126000D01*
X192124000Y-79972000D02*
X192124000Y-85128000D01*
X192084000Y-79971000D02*
X192084000Y-85129000D01*
X192044000Y-79970000D02*
X192044000Y-85130000D01*
X192004000Y-79970000D02*
X192004000Y-85130000D01*
X194624000Y-82550000D02*
G75*
G03*
X194624000Y-82550000I-2620000J0D01*
G01*
%TO.C,R1*%
X162956000Y-85502000D02*
X162956000Y-83662000D01*
X162956000Y-83662000D02*
X159116000Y-83662000D01*
X159116000Y-83662000D02*
X159116000Y-85502000D01*
X159116000Y-85502000D02*
X162956000Y-85502000D01*
X163906000Y-84582000D02*
X162956000Y-84582000D01*
X158166000Y-84582000D02*
X159116000Y-84582000D01*
%TO.C,U2*%
X185046000Y-87570000D02*
X185046000Y-105470000D01*
X220846000Y-87570000D02*
X185046000Y-87570000D01*
X220846000Y-105470000D02*
X220846000Y-87570000D01*
X185046000Y-105470000D02*
X220846000Y-105470000D01*
X185106000Y-90060000D02*
X185106000Y-95520000D01*
X220786000Y-90060000D02*
X185106000Y-90060000D01*
X220786000Y-102980000D02*
X220786000Y-90060000D01*
X185106000Y-102980000D02*
X220786000Y-102980000D01*
X185106000Y-97520000D02*
X185106000Y-102980000D01*
X185106000Y-95520000D02*
G75*
G02*
X185106000Y-97520000I0J-1000000D01*
G01*
%TO.C,J4*%
X162070000Y-80578000D02*
X164730000Y-80578000D01*
X162070000Y-75438000D02*
X162070000Y-80578000D01*
X164730000Y-75438000D02*
X164730000Y-80578000D01*
X162070000Y-75438000D02*
X164730000Y-75438000D01*
X162070000Y-74168000D02*
X162070000Y-72838000D01*
X162070000Y-72838000D02*
X163400000Y-72838000D01*
%TO.C,J3*%
X157166000Y-80578000D02*
X159826000Y-80578000D01*
X157166000Y-75438000D02*
X157166000Y-80578000D01*
X159826000Y-75438000D02*
X159826000Y-80578000D01*
X157166000Y-75438000D02*
X159826000Y-75438000D01*
X157166000Y-74168000D02*
X157166000Y-72838000D01*
X157166000Y-72838000D02*
X158496000Y-72838000D01*
%TO.C,U1*%
X180908000Y-87510000D02*
X170628000Y-87510000D01*
X180908000Y-105530000D02*
X180908000Y-87510000D01*
X170628000Y-105530000D02*
X180908000Y-105530000D01*
X170628000Y-87510000D02*
X170628000Y-105530000D01*
X178418000Y-87570000D02*
X176768000Y-87570000D01*
X178418000Y-105470000D02*
X178418000Y-87570000D01*
X173118000Y-105470000D02*
X178418000Y-105470000D01*
X173118000Y-87570000D02*
X173118000Y-105470000D01*
X174768000Y-87570000D02*
X173118000Y-87570000D01*
X176768000Y-87570000D02*
G75*
G02*
X174768000Y-87570000I-1000000J0D01*
G01*
%TO.C,J2*%
X162112000Y-96072000D02*
X160782000Y-96072000D01*
X162112000Y-94742000D02*
X162112000Y-96072000D01*
X162112000Y-93472000D02*
X159452000Y-93472000D01*
X159452000Y-93472000D02*
X159452000Y-88332000D01*
X162112000Y-93472000D02*
X162112000Y-88332000D01*
X162112000Y-88332000D02*
X159452000Y-88332000D01*
%TO.C,C1*%
X179852000Y-81180000D02*
X179852000Y-83920000D01*
X172112000Y-81180000D02*
X172112000Y-83920000D01*
X172112000Y-83920000D02*
X179852000Y-83920000D01*
X172112000Y-81180000D02*
X179852000Y-81180000D01*
%TO.C,C2*%
D10*
X191837333Y-79157142D02*
X191789714Y-79204761D01*
X191646857Y-79252380D01*
X191551619Y-79252380D01*
X191408761Y-79204761D01*
X191313523Y-79109523D01*
X191265904Y-79014285D01*
X191218285Y-78823809D01*
X191218285Y-78680952D01*
X191265904Y-78490476D01*
X191313523Y-78395238D01*
X191408761Y-78300000D01*
X191551619Y-78252380D01*
X191646857Y-78252380D01*
X191789714Y-78300000D01*
X191837333Y-78347619D01*
X192218285Y-78347619D02*
X192265904Y-78300000D01*
X192361142Y-78252380D01*
X192599238Y-78252380D01*
X192694476Y-78300000D01*
X192742095Y-78347619D01*
X192789714Y-78442857D01*
X192789714Y-78538095D01*
X192742095Y-78680952D01*
X192170666Y-79252380D01*
X192789714Y-79252380D01*
%TO.C,R1*%
X160869333Y-83002380D02*
X160536000Y-82526190D01*
X160297904Y-83002380D02*
X160297904Y-82002380D01*
X160678857Y-82002380D01*
X160774095Y-82050000D01*
X160821714Y-82097619D01*
X160869333Y-82192857D01*
X160869333Y-82335714D01*
X160821714Y-82430952D01*
X160774095Y-82478571D01*
X160678857Y-82526190D01*
X160297904Y-82526190D01*
X161821714Y-83002380D02*
X161250285Y-83002380D01*
X161536000Y-83002380D02*
X161536000Y-82002380D01*
X161440761Y-82145238D01*
X161345523Y-82240476D01*
X161250285Y-82288095D01*
%TO.C,U2*%
X183558380Y-97281904D02*
X184367904Y-97281904D01*
X184463142Y-97234285D01*
X184510761Y-97186666D01*
X184558380Y-97091428D01*
X184558380Y-96900952D01*
X184510761Y-96805714D01*
X184463142Y-96758095D01*
X184367904Y-96710476D01*
X183558380Y-96710476D01*
X183653619Y-96281904D02*
X183606000Y-96234285D01*
X183558380Y-96139047D01*
X183558380Y-95900952D01*
X183606000Y-95805714D01*
X183653619Y-95758095D01*
X183748857Y-95710476D01*
X183844095Y-95710476D01*
X183986952Y-95758095D01*
X184558380Y-96329523D01*
X184558380Y-95710476D01*
%TO.C,J4*%
X163066666Y-71334380D02*
X163066666Y-72048666D01*
X163019047Y-72191523D01*
X162923809Y-72286761D01*
X162780952Y-72334380D01*
X162685714Y-72334380D01*
X163971428Y-71667714D02*
X163971428Y-72334380D01*
X163733333Y-71286761D02*
X163495238Y-72001047D01*
X164114285Y-72001047D01*
%TO.C,J3*%
X158162666Y-71334380D02*
X158162666Y-72048666D01*
X158115047Y-72191523D01*
X158019809Y-72286761D01*
X157876952Y-72334380D01*
X157781714Y-72334380D01*
X158543619Y-71334380D02*
X159162666Y-71334380D01*
X158829333Y-71715333D01*
X158972190Y-71715333D01*
X159067428Y-71762952D01*
X159115047Y-71810571D01*
X159162666Y-71905809D01*
X159162666Y-72143904D01*
X159115047Y-72239142D01*
X159067428Y-72286761D01*
X158972190Y-72334380D01*
X158686476Y-72334380D01*
X158591238Y-72286761D01*
X158543619Y-72239142D01*
%TO.C,CON1*%
X194111714Y-116677142D02*
X194064095Y-116724761D01*
X193921238Y-116772380D01*
X193826000Y-116772380D01*
X193683142Y-116724761D01*
X193587904Y-116629523D01*
X193540285Y-116534285D01*
X193492666Y-116343809D01*
X193492666Y-116200952D01*
X193540285Y-116010476D01*
X193587904Y-115915238D01*
X193683142Y-115820000D01*
X193826000Y-115772380D01*
X193921238Y-115772380D01*
X194064095Y-115820000D01*
X194111714Y-115867619D01*
X194730761Y-115772380D02*
X194921238Y-115772380D01*
X195016476Y-115820000D01*
X195111714Y-115915238D01*
X195159333Y-116105714D01*
X195159333Y-116439047D01*
X195111714Y-116629523D01*
X195016476Y-116724761D01*
X194921238Y-116772380D01*
X194730761Y-116772380D01*
X194635523Y-116724761D01*
X194540285Y-116629523D01*
X194492666Y-116439047D01*
X194492666Y-116105714D01*
X194540285Y-115915238D01*
X194635523Y-115820000D01*
X194730761Y-115772380D01*
X195587904Y-116772380D02*
X195587904Y-115772380D01*
X196159333Y-116772380D01*
X196159333Y-115772380D01*
X197159333Y-116772380D02*
X196587904Y-116772380D01*
X196873619Y-116772380D02*
X196873619Y-115772380D01*
X196778380Y-115915238D01*
X196683142Y-116010476D01*
X196587904Y-116058095D01*
%TO.C,U1*%
X175006095Y-86022380D02*
X175006095Y-86831904D01*
X175053714Y-86927142D01*
X175101333Y-86974761D01*
X175196571Y-87022380D01*
X175387047Y-87022380D01*
X175482285Y-86974761D01*
X175529904Y-86927142D01*
X175577523Y-86831904D01*
X175577523Y-86022380D01*
X176577523Y-87022380D02*
X176006095Y-87022380D01*
X176291809Y-87022380D02*
X176291809Y-86022380D01*
X176196571Y-86165238D01*
X176101333Y-86260476D01*
X176006095Y-86308095D01*
%TO.C,J2*%
X160448666Y-86828380D02*
X160448666Y-87542666D01*
X160401047Y-87685523D01*
X160305809Y-87780761D01*
X160162952Y-87828380D01*
X160067714Y-87828380D01*
X160877238Y-86923619D02*
X160924857Y-86876000D01*
X161020095Y-86828380D01*
X161258190Y-86828380D01*
X161353428Y-86876000D01*
X161401047Y-86923619D01*
X161448666Y-87018857D01*
X161448666Y-87114095D01*
X161401047Y-87256952D01*
X160829619Y-87828380D01*
X161448666Y-87828380D01*
%TO.C,C1*%
X175815333Y-80407142D02*
X175767714Y-80454761D01*
X175624857Y-80502380D01*
X175529619Y-80502380D01*
X175386761Y-80454761D01*
X175291523Y-80359523D01*
X175243904Y-80264285D01*
X175196285Y-80073809D01*
X175196285Y-79930952D01*
X175243904Y-79740476D01*
X175291523Y-79645238D01*
X175386761Y-79550000D01*
X175529619Y-79502380D01*
X175624857Y-79502380D01*
X175767714Y-79550000D01*
X175815333Y-79597619D01*
X176767714Y-80502380D02*
X176196285Y-80502380D01*
X176482000Y-80502380D02*
X176482000Y-79502380D01*
X176386761Y-79645238D01*
X176291523Y-79740476D01*
X176196285Y-79788095D01*
%TD*%
M02*
